<svg width="50" height="50" viewBox="0 0 50 50" fill="none" xmlns="http://www.w3.org/2000/svg">
<path d="M43 19.9571C43 18.8048 42.5422 17.6997 41.7275 16.8849C40.9127 16.0702 39.8076 15.6124 38.6553 15.6124H33.0688C31.9165 15.6124 30.8114 16.0702 29.9966 16.8849C29.1819 17.6997 28.7241 18.8048 28.7241 19.9571V21.5093C28.7241 22.0032 28.9203 22.4768 29.2695 22.826C29.6187 23.1751 30.0923 23.3713 30.5861 23.3713H41.138C41.6318 23.3713 42.1054 23.1751 42.4546 22.826C42.8038 22.4768 43 22.0032 43 21.5093V19.9571Z" fill="white"/>
<path d="M35.8617 14.759C38.0041 14.759 39.7408 13.0223 39.7408 10.8799C39.7408 8.73748 38.0041 7.00073 35.8617 7.00073C33.7193 7.00073 31.9825 8.73748 31.9825 10.8799C31.9825 13.0223 33.7193 14.759 35.8617 14.759Z" fill="white"/>
<path d="M21.2768 39.5855C21.2768 38.4332 20.8191 37.3281 20.0043 36.5134C19.1895 35.6986 18.0845 35.2408 16.9322 35.2408H11.3456C10.1933 35.2408 9.08827 35.6986 8.27349 36.5134C7.45871 37.3281 7.00098 38.4332 7.00098 39.5855V41.1371C7.00098 41.6312 7.19711 42.1047 7.54654 42.4536C7.71932 42.6266 7.92453 42.7638 8.15042 42.8574C8.37631 42.9511 8.61844 42.9992 8.86296 42.9991H19.4148C19.9087 42.9991 20.3823 42.8029 20.7315 42.4538C21.0806 42.1046 21.2768 41.631 21.2768 41.1371V39.5855Z" fill="white"/>
<path d="M14.1385 34.3868C16.2809 34.3868 18.0177 32.6501 18.0177 30.5077C18.0177 28.3653 16.2809 26.6285 14.1385 26.6285C11.9961 26.6285 10.2594 28.3653 10.2594 30.5077C10.2594 32.6501 11.9961 34.3868 14.1385 34.3868Z" fill="white"/>
<path d="M9.17266 21.8551L9.16335 21.8973C9.08726 22.3022 9.17499 22.7208 9.40727 23.061C9.64002 23.4005 9.99814 23.6345 10.4028 23.7102L13.4509 24.2856C13.6511 24.3237 13.8568 24.3219 14.0564 24.2804C14.2559 24.2388 14.4453 24.1583 14.6136 24.0435C14.782 23.9286 14.926 23.7817 15.0375 23.6111C15.1489 23.4405 15.2257 23.2495 15.2632 23.0492C16.1613 18.295 20.316 14.9738 24.9822 14.9602C25.3428 14.96 25.6921 14.8339 25.9698 14.6038C26.2475 14.3737 26.4362 14.0539 26.5034 13.6996L26.504 13.6977C26.6263 13.051 26.9497 11.3392 27.0881 10.5994C27.1292 10.3814 27.123 10.1571 27.0699 9.94173C27.0168 9.72635 26.9181 9.52488 26.7804 9.35097C26.6427 9.17707 26.4692 9.03477 26.2717 8.93373C26.0742 8.83269 25.8573 8.77526 25.6357 8.76532L25.6264 8.7647C17.7899 8.46306 10.6914 13.9267 9.17266 21.8551ZM40.8277 28.1449L40.837 28.1027C40.9131 27.6978 40.8253 27.2792 40.593 26.9389C40.3603 26.5992 40.0022 26.3657 39.5975 26.2897L36.5494 25.7144C36.3492 25.6762 36.1435 25.678 35.944 25.7196C35.7444 25.7611 35.5551 25.8416 35.3867 25.9565C35.2184 26.0713 35.0743 26.2183 34.9628 26.3889C34.8514 26.5595 34.7747 26.7504 34.7371 26.9507C33.839 31.705 29.6843 35.0261 25.0182 35.0398C24.6575 35.04 24.3082 35.166 24.0305 35.3961C23.7528 35.6262 23.5641 35.946 23.4969 36.3004L23.4963 36.3022C23.374 36.949 23.0507 38.6607 22.9123 39.4006C22.8709 39.6193 22.8773 39.8445 22.9309 40.0606C22.9845 40.2766 23.084 40.4786 23.2228 40.6528C23.3615 40.8269 23.5361 40.9691 23.7348 41.0696C23.9334 41.1701 24.1514 41.2266 24.3739 41.2352C32.2104 41.5369 39.3089 36.0732 40.8277 28.1449Z" fill="white"/>
</svg>
