<svg width="25" height="23" viewBox="0 0 25 23" fill="none" xmlns="http://www.w3.org/2000/svg">
<path d="M0 22.5333V22.4H0.133333V22.1333H0.266667V21.8667H0.4V21.4667H0.533333V21.2H0.666667V20.9333H0.8V20.5333H0.933333V20.2667H1.06667V20H1.2V19.7333H1.33333V19.3333H1.46667V19.0667H1.6V18.8H1.73333V18.4H1.86667V18.1333H2V17.8667H2.13333V17.6H2.26667V17.2H2.4V16.9333H2.53333V16.6667H2.66667V16.2667H2.8V16H2.93333V15.7333H3.06667V15.4667H3.2V15.0667H3.33333V14.8H3.46667V14.5333H3.6V14.1333H3.73333V13.8667H3.86667V13.6H4V13.3333H4.13333V12.9333H4.26667V12.6667H4.4V12.4H4.53333V12H4.66667V11.7333H4.8V11.4667H4.93333V11.2H5.06667V10.8H5.2V10.5333H5.33333V10.2667H5.46667V9.99999H5.6V9.59999H5.73333V9.33333H5.86667V9.06666H6V8.66666H6.13333V8.39999H6.26667V8.13333H6.4V7.86666H6.53333V7.46666H6.66667V7.19999H6.8V6.93333H6.93333V6.53333H7.06667V6.26666H7.2V5.99999H7.33333V5.73333H7.46667V5.33333H7.6V5.06666H7.73333V4.79999H7.86667V4.39999H8V4.13333H8.13333V3.86666H8.26667V3.59999H8.4V3.19999H8.53333V2.93333H8.66667V2.66666H8.8V2.26666H8.93333V1.99999H9.06667V1.73333H9.2V1.46666H9.33333V1.06666H9.46667V0.799994H9.6V0.533327H9.73333V0.133327H9.86667V-7.62939e-06H10.1333V0.266661H10.2667V0.399994H10.4V0.533327H10.5333V0.799994H10.6667V0.933327H10.8V1.06666H10.9333V1.33333H11.0667V1.46666H11.2V1.59999H11.3333V1.86666H11.4667V1.99999H11.6V2.26666H11.7333V2.39999H11.8667V2.53333H12V2.79999H12.1333V2.93333H12.2667V3.06666H12.4V3.33333H12.5333V3.46666H12.6667V3.59999H12.8V3.86666H12.9333V3.99999H13.0667V4.13333H13.2V4.39999H13.3333V4.53333H13.4667V4.79999H13.6V4.93333H13.7333V5.06666H13.8667V5.33333H14V5.46666H14.1333V5.59999H14.2667V5.86666H14.4V5.99999H14.5333V6.13333H14.6667V6.39999H14.8V6.53333H14.9333V6.66666H15.0667V6.93333H15.2V7.06666H15.3333V7.33333H15.4667V7.46666H15.6V7.59999H15.7333V7.86666H15.8667V7.99999H16V8.13333H16.1333V8.39999H16.2667V8.53333H16.4V8.66666H16.5333V8.93333H16.6667V9.06666H16.8V9.33333H16.9333V9.46666H17.0667V9.59999H17.2V9.86666H17.3333V9.99999H17.4667V10.1333H17.6V10.4H17.7333V10.5333H17.8667V10.6667H18V10.9333H18.1333V11.0667H18.2667V11.2H18.4V11.4667H18.5333V11.6H18.6667V11.8667H18.8V12H18.9333V12.1333H19.0667V12.4H19.2V12.5333H19.3333V12.6667H19.4667V12.9333H19.6V13.0667H19.7333V13.2H19.8667V13.4667H20V13.6H20.1333V13.7333H20.2667V14H20.4V14.1333H20.5333V14.4H20.6667V14.5333H20.8V14.6667H20.9333V14.9333H21.0667V15.0667H21.2V15.2H21.3333V15.4667H21.4667V15.6H21.6V15.7333H21.7333V16H21.8667V16.1333H22V16.4H22.1333V16.5333H22.2667V16.6667H22.4V16.9333H22.5333V17.0667H22.6667V17.2H22.8V17.4667H22.9333V17.6H23.0667V17.7333H23.2V18H23.3333V18.1333H23.4667V18.2667H23.6V18.5333H23.7333V18.6667H23.8667V18.9333H24V19.0667H24.1333V19.2H24.2667V19.4667H24.4V19.6H24.5333V19.8667H24V20H22.8V20.1333H21.6V20.2667H20.4V20.4H19.2V20.5333H18V20.6667H16.8V20.8H15.6V20.9333H14.4V21.0667H13.2V21.2H12V21.3333H10.8V21.4667H9.6V21.6H8.4V21.7333H7.2V21.8667H6V22H4.8V22.1333H3.6V22.2667H2.4V22.4H1.2V22.5333" fill="url(#paint0_linear_26_1401)"/>
<defs>
<linearGradient id="paint0_linear_26_1401" x1="19.4987" y1="12.128" x2="4.99453" y2="11.2721" gradientUnits="userSpaceOnUse">
<stop stop-color="#E13311"/>
<stop offset="1" stop-color="#FF512F"/>
</linearGradient>
</defs>
</svg>
