<svg width="17" height="17" viewBox="0 0 17 17" fill="none" xmlns="http://www.w3.org/2000/svg">
<path d="M15.5667 8.01333H15.1067C15.1067 9.97333 14.3133 11.7427 13.0293 13.028C11.744 14.312 9.97335 15.1053 8.01335 15.1053C6.05335 15.1053 4.28267 14.312 2.99867 13.028C1.71333 11.7427 0.921353 9.97333 0.920019 8.01333C0.921353 6.05333 1.71333 4.28267 2.99867 2.99733C4.28267 1.71334 6.05335 0.920007 8.01335 0.920007C9.97335 0.920007 11.744 1.71334 13.0293 2.99733C14.3133 4.28267 15.1067 6.05333 15.1067 8.01333H15.5667H16.0267C16.0267 3.58667 12.44 3.8147e-06 8.01335 3.8147e-06C3.58801 3.8147e-06 0.00133333 3.58667 0 8.01333C0.00133333 12.4387 3.58801 16.0253 8.01335 16.0253C12.44 16.0253 16.0267 12.4387 16.0267 8.01333H15.5667Z" fill="#29C1C2"/>
</svg>
