<svg width="402" height="547" viewBox="0 0 402 547" fill="none" xmlns="http://www.w3.org/2000/svg">
<rect x="12" y="13" width="362" height="507" rx="10" fill="#15ADAE"/>
<g filter="url(#filter0_d_227_59)">
<path d="M20 15.0277C20 9.49402 24.494 5.01241 30.0276 5.0277L372.028 5.97245C377.54 5.98768 382 10.4604 382 15.9724V502C382 507.523 377.523 512 372 512H30C24.4772 512 20 507.523 20 502V98.9417C20 95.827 21.4513 92.8902 23.9255 90.9981L43.078 76.3521C48.4713 72.2279 48.2745 64.0427 42.6893 60.1823L24.3142 47.4819C21.6126 45.6146 20 42.5397 20 39.2556V15.0277Z" fill="white"/>
</g>
<path d="M25.0969 35.8764C25.0541 35.5708 25.0252 35.2622 25.0108 34.9513L25.5102 34.9281C25.5034 34.7815 25.5 34.6343 25.5 34.4866V33.9693H25V32.9345H25.5V31.8997H25V30.865H25.5V29.8302H25V28.7955H25.5V27.7607H25V26.7259H25.5V25.6912H25V24.6564H25.5V23.6217H25V22.5869H25.5V21.5521H25V20.5174H25.5V20C25.5 19.8435 25.5038 19.6879 25.5113 19.5333L25.0118 19.5091C25.0278 19.179 25.0598 18.8531 25.107 18.5321L25.6016 18.6049C25.6472 18.2949 25.7078 17.9899 25.7826 17.6905L25.2975 17.5693C25.3772 17.2499 25.4724 16.9365 25.582 16.6301L26.0528 16.7985C26.158 16.5046 26.2773 16.2173 26.4098 15.9376L25.958 15.7235C26.0985 15.4268 26.2533 15.1381 26.4213 14.8583L26.85 15.1158C27.0104 14.8487 27.1836 14.5901 27.3687 14.3409L26.9673 14.0427C27.1627 13.7797 27.3707 13.5267 27.5904 13.2844L27.9608 13.6203C28.1697 13.3899 28.3899 13.1697 28.6203 12.9608L28.2844 12.5904C28.5267 12.3707 28.7797 12.1627 29.0427 11.9673L29.3409 12.3687C29.5901 12.1836 29.8487 12.0104 30.1158 11.85L29.8583 11.4213C30.1381 11.2533 30.4268 11.0985 30.7235 10.958L30.9376 11.4098C31.2173 11.2773 31.5046 11.158 31.7985 11.0528L31.6301 10.582C31.9365 10.4724 32.2499 10.3772 32.5693 10.2975L32.6905 10.7826C32.9899 10.7078 33.2949 10.6472 33.6049 10.6016L33.5321 10.107C33.8531 10.0598 34.179 10.0278 34.5091 10.0118L34.5333 10.5113C34.6879 10.5038 34.8435 10.5 35 10.5H35.5V10H36.5V10.5H37.5V10H38.5V10.5H39.5V10H40.5V10.5H41.5V10H42.5V10.5H43.5V10H44.5V10.5H45.5V10H46.5V10.5H47.5V10H48.5V10.5H49.5V10H50.5V10.5H51.5V10H52.5V10.5H53.5V10H54.5V10.5H55.5V10H56.5V10.5H57.5V10H58.5V10.5H59.5V10H60.5V10.5H61.5V10H62.5V10.5H63.5V10H64.5V10.5H65.5V10H66.5V10.5H67.5V10H68.5V10.5H69.5V10H70.5V10.5H71.5V10H72.5V10.5H73.5V10H74.5V10.5H75.5V10H76.5V10.5H77.5V10H78.5V10.5H79.5V10H80.5V10.5H81.5V10H82.5V10.5H83.5V10H84.5V10.5H85.5V10H86.5V10.5H87.5V10H88.5V10.5H89.5V10H90.5V10.5H91.5V10H92.5V10.5H93.5V10H94.5V10.5H95.5V10H96.5V10.5H97.5V10H98.5V10.5H99.5V10H100.5V10.5H101.5V10H102.5V10.5H103.5V10H104.5V10.5H105.5V10H106.5V10.5H107.5V10H108.5V10.5H109.5V10H110.5V10.5H111.5V10H112.5V10.5H113.5V10H114.5V10.5H115.5V10H116.5V10.5H117.5V10H118.5V10.5H119.5V10H120.5V10.5H121.5V10H122.5V10.5H123.5V10H124.5V10.5H125.5V10H126.5V10.5H127.5V10H128.5V10.5H129.5V10H130.5V10.5H131.5V10H132.5V10.5H133.5V10H134.5V10.5H135.5V10H136.5V10.5H137.5V10H138.5V10.5H139.5V10H140.5V10.5H141.5V10H142.5V10.5H143.5V10H144.5V10.5H145.5V10H146.5V10.5H147.5V10H148.5V10.5H149.5V10H150.5V10.5H151.5V10H152.5V10.5H153.5V10H154.5V10.5H155.5V10H156.5V10.5H157.5V10H158.5V10.5H159.5V10H160.5V10.5H161.5V10H162.5V10.5H163.5V10H164.5V10.5H165.5V10H166.5V10.5H167.5V10H168.5V10.5H169.5V10H170.5V10.5H171.5V10H172.5V10.5H173.5V10H174.5V10.5H175.5V10H176.5V10.5H177.5V10H178.5V10.5H179.5V10H180.5V10.5H181.5V10H182.5V10.5H183.5V10H184.5V10.5H185.5V10H186.5V10.5H187.5V10H188.5V10.5H189.5V10H190.5V10.5H191.5V10H192.5V10.5H193.5V10H194.5V10.5H195.5V10H196.5V10.5H197.5V10H198.5V10.5H199.5V10H200.5V10.5H201.5V10H202.5V10.5H203.5V10H204.5V10.5H205.5V10H206.5V10.5H207.5V10H208.5V10.5H209.5V10H210.5V10.5H211.5V10H212.5V10.5H213.5V10H214.5V10.5H215.5V10H216.5V10.5H217.5V10H218.5V10.5H219.5V10H220.5V10.5H221.5V10H222.5V10.5H223.5V10H224.5V10.5H225.5V10H226.5V10.5H227.5V10H228.5V10.5H229.5V10H230.5V10.5H231.5V10H232.5V10.5H233.5V10H234.5V10.5H235.5V10H236.5V10.5H237.5V10H238.5V10.5H239.5V10H240.5V10.5H241.5V10H242.5V10.5H243.5V10H244.5V10.5H245.5V10H246.5V10.5H247.5V10H248.5V10.5H249.5V10H250.5V10.5H251.5V10H252.5V10.5H253.5V10H254.5V10.5H255.5V10H256.5V10.5H257.5V10H258.5V10.5H259.5V10H260.5V10.5H261.5V10H262.5V10.5H263.5V10H264.5V10.5H265.5V10H266.5V10.5H267.5V10H268.5V10.5H269.5V10H270.5V10.5H271.5V10H272.5V10.5H273.5V10H274.5V10.5H275.5V10H276.5V10.5H277.5V10H278.5V10.5H279.5V10H280.5V10.5H281.5V10H282.5V10.5H283.5V10H284.5V10.5H285.5V10H286.5V10.5H287.5V10H288.5V10.5H289.5V10H290.5V10.5H291.5V10H292.5V10.5H293.5V10H294.5V10.5H295.5V10H296.5V10.5H297.5V10H298.5V10.5H299.5V10H300.5V10.5H301.5V10H302.5V10.5H303.5V10H304.5V10.5H305.5V10H306.5V10.5H307.5V10H308.5V10.5H309.5V10H310.5V10.5H311.5V10H312.5V10.5H313.5V10H314.5V10.5H315.5V10H316.5V10.5H317.5V10H318.5V10.5H319.5V10H320.5V10.5H321.5V10H322.5V10.5H323.5V10H324.5V10.5H325.5V10H326.5V10.5H327.5V10H328.5V10.5H329.5V10H330.5V10.5H331.5V10H332.5V10.5H333.5V10H334.5V10.5H335.5V10H336.5V10.5H337.5V10H338.5V10.5H339.5V10H340.5V10.5H341.5V10H342.5V10.5H343.5V10H344.5V10.5H345.5V10H346.5V10.5H347.5V10H348.5V10.5H349.5V10H350.5V10.5H351.5V10H352.5V10.5H353.5V10H354.5V10.5H355.5V10H356.5V10.5H357.5V10H358.5V10.5H359.5V10H360.5V10.5H361.5V10H362.5V10.5H363.5V10H364.5V10.5H365.5V10H366.5V10.5H367C367.157 10.5 367.312 10.5038 367.467 10.5113L367.491 10.0118C367.821 10.0278 368.147 10.0598 368.468 10.107L368.395 10.6016C368.705 10.6472 369.01 10.7078 369.31 10.7826L369.431 10.2975C369.75 10.3772 370.063 10.4724 370.37 10.582L370.201 11.0528C370.495 11.158 370.783 11.2773 371.062 11.4098L371.277 10.958C371.573 11.0985 371.862 11.2533 372.142 11.4213L371.884 11.85C372.151 12.0104 372.41 12.1836 372.659 12.3687L372.957 11.9673C373.22 12.1627 373.473 12.3707 373.716 12.5904L373.38 12.9608C373.61 13.1697 373.83 13.3899 374.039 13.6203L374.41 13.2844C374.629 13.5267 374.837 13.7797 375.033 14.0427L374.631 14.3409C374.816 14.5901 374.99 14.8487 375.15 15.1158L375.579 14.8583C375.747 15.1381 375.901 15.4268 376.042 15.7235L375.59 15.9376C375.723 16.2173 375.842 16.5046 375.947 16.7985L376.418 16.6301C376.528 16.9365 376.623 17.2499 376.703 17.5693L376.217 17.6905C376.292 17.9899 376.353 18.2949 376.398 18.6049L376.893 18.5321C376.94 18.8531 376.972 19.179 376.988 19.5091L376.489 19.5333C376.496 19.6879 376.5 19.8435 376.5 20V20.5016H377V21.4995H376.5V22.4974H377V23.4953H376.5V24.4932H377V25.4911H376.5V26.489H377V27.4869H376.5V28.4848H377V29.4827H376.5V30.4806H377V31.4784H376.5V32.4764H377V33.4742H376.5V34.4721H377V35.47H376.5V36.4679H377V37.4658H376.5V38.4637H377V39.4616H376.5V40.4595H377V41.4574H376.5V42.4553H377V43.4532H376.5V44.4511H377V45.449H376.5V46.4469H377V47.4448H376.5V48.4426H377V49.4406H376.5V50.4384H377V51.4363H376.5V52.4342H377V53.4321H376.5V54.43H377V55.4279H376.5V56.4258H377V57.4237H376.5V58.4216H377V59.4195H376.5V60.4174H377V61.4153H376.5V62.4132H377V63.4111H376.5V64.409H377V65.4068H376.5V66.4048H377V67.4026H376.5V68.4005H377V69.3984H376.5V70.3963H377V71.3942H376.5V72.3921H377V73.39H376.5V74.3879H377V75.3858H376.5V76.3837H377V77.3816H376.5V78.3795H377V79.3774H376.5V80.3753H377V81.3732H376.5V82.3711H377V83.369H376.5V84.3669H377V85.3647H376.5V86.3626H377V87.3605H376.5V88.3584H377V89.3563H376.5V90.3542H377V91.3521H376.5V92.35H377V93.3479H376.5V94.3458H377V95.3437H376.5V96.3416H377V97.3395H376.5V98.3374H377V99.3353H376.5V100.333H377V101.331H376.5V102.329H377V103.327H376.5V104.325H377V105.323H376.5V106.321H377V107.318H376.5V108.316H377V109.314H376.5V110.312H377V111.31H376.5V112.308H377V113.306H376.5V114.304H377V115.302H376.5V116.299H377V117.297H376.5V118.295H377V119.293H376.5V120.291H377V121.289H376.5V122.287H377V123.285H376.5V124.283H377V125.281H376.5V126.278H377V127.276H376.5V128.274H377V129.272H376.5V130.27H377V131.268H376.5V132.266H377V133.264H376.5V134.262H377V135.259H376.5V136.257H377V137.255H376.5V138.253H377V139.251H376.5V140.249H377V141.247H376.5V142.245H377V143.243H376.5V144.241H377V145.238H376.5V146.236H377V147.234H376.5V148.232H377V149.23H376.5V150.228H377V151.226H376.5V152.224H377V153.222H376.5V154.219H377V155.217H376.5V156.215H377V157.213H376.5V158.211H377V159.209H376.5V160.207H377V161.205H376.5V162.203H377V163.201H376.5V164.198H377V165.196H376.5V166.194H377V167.192H376.5V168.19H377V169.188H376.5V170.186H377V171.184H376.5V172.182H377V173.179H376.5V174.177H377V175.175H376.5V176.173H377V177.171H376.5V178.169H377V179.167H376.5V180.165H377V181.163H376.5V182.16H377V183.158H376.5V184.156H377V185.154H376.5V186.152H377V187.15H376.5V188.148H377V189.146H376.5V190.144H377V191.142H376.5V192.139H377V193.137H376.5V194.135H377V195.133H376.5V196.131H377V197.129H376.5V198.127H377V199.125H376.5V200.123H377V201.12H376.5V202.118H377V203.116H376.5V204.114H377V205.112H376.5V206.11H377V207.108H376.5V208.106H377V209.104H376.5V210.102H377V211.099H376.5V212.097H377V213.095H376.5V214.093H377V215.091H376.5V216.089H377V217.087H376.5V218.085H377V219.083H376.5V220.08H377V221.078H376.5V222.076H377V223.074H376.5V224.072H377V225.07H376.5V226.068H377V227.066H376.5V228.064H377V229.062H376.5V230.059H377V231.057H376.5V232.055H377V233.053H376.5V234.051H377V235.049H376.5V236.047H377V237.045H376.5V238.043H377V239.04H376.5V240.038H377V241.036H376.5V242.034H377V243.032H376.5V244.03H377V245.028H376.5V246.026H377V247.024H376.5V248.022H377V249.02H376.5V250.017H377V251.015H376.5V252.013H377V253.011H376.5V254.009H377V255.007H376.5V256.005H377V257.003H376.5V258.001H377V258.999H376.5V259.997H377V260.994H376.5V261.992H377V262.99H376.5V263.988H377V264.986H376.5V265.984H377V266.982H376.5V267.98H377V268.978H376.5V269.976H377V270.974H376.5V271.971H377V272.969H376.5V273.967H377V274.965H376.5V275.963H377V276.961H376.5V277.959H377V278.957H376.5V279.955H377V280.953H376.5V281.951H377V282.948H376.5V283.946H377V284.944H376.5V285.942H377V286.94H376.5V287.938H377V288.936H376.5V289.934H377V290.932H376.5V291.93H377V292.928H376.5V293.925H377V294.923H376.5V295.921H377V296.919H376.5V297.917H377V298.915H376.5V299.913H377V300.911H376.5V301.909H377V302.907H376.5V303.905H377V304.902H376.5V305.9H377V306.898H376.5V307.896H377V308.894H376.5V309.892H377V310.89H376.5V311.888H377V312.886H376.5V313.884H377V314.882H376.5V315.879H377V316.877H376.5V317.875H377V318.873H376.5V319.871H377V320.869H376.5V321.867H377V322.865H376.5V323.863H377V324.861H376.5V325.859H377V326.856H376.5V327.854H377V328.852H376.5V329.85H377V330.848H376.5V331.846H377V332.844H376.5V333.842H377V334.84H376.5V335.838H377V336.836H376.5V337.833H377V338.831H376.5V339.829H377V340.827H376.5V341.825H377V342.823H376.5V343.821H377V344.819H376.5V345.817H377V346.815H376.5V347.813H377V348.81H376.5V349.808H377V350.806H376.5V351.804H377V352.802H376.5V353.8H377V354.798H376.5V355.796H377V356.794H376.5V357.792H377V358.79H376.5V359.788H377V360.785H376.5V361.783H377V362.781H376.5V363.779H377V364.777H376.5V365.775H377V366.773H376.5V367.771H377V368.769H376.5V369.767H377V370.764H376.5V371.762H377V372.76H376.5V373.758H377V374.756H376.5V375.754H377V376.752H376.5V377.75H377V378.748H376.5V379.746H377V380.744H376.5V381.742H377V382.739H376.5V383.737H377V384.735H376.5V385.733H377V386.731H376.5V387.729H377V388.727H376.5V389.725H377V390.723H376.5V391.721H377V392.719H376.5V393.716H377V394.714H376.5V395.712H377V396.71H376.5V397.708H377V398.706H376.5V399.704H377V400.702H376.5V401.7H377V402.698H376.5V403.696H377V404.693H376.5V405.691H377V406.689H376.5V407.687H377V408.685H376.5V409.683H377V410.681H376.5V411.679H377V412.677H376.5V413.675H377V414.673H376.5V415.67H377V416.668H376.5V417.666H377V418.664H376.5V419.662H377V420.66H376.5V421.658H377V422.656H376.5V423.654H377V424.652H376.5V425.65H377V426.647H376.5V427.645H377V428.643H376.5V429.641H377V430.639H376.5V431.637H377V432.635H376.5V433.633H377V434.631H376.5V435.629H377V436.627H376.5V437.624H377V438.622H376.5V439.62H377V440.618H376.5V441.616H377V442.614H376.5V443.612H377V444.61H376.5V445.608H377V446.606H376.5V447.604H377V448.601H376.5V449.599H377V450.597H376.5V451.595H377V452.593H376.5V453.591H377V454.589H376.5V455.587H377V456.585H376.5V457.583H377V458.581H376.5V459.578H377V460.576H376.5V461.574H377V462.572H376.5V463.57H377V464.568H376.5V465.566H377V466.564H376.5V467.562H377V468.56H376.5V469.558H377V470.555H376.5V471.553H377V472.551H376.5V473.549H377V474.547H376.5V475.545H377V476.543H376.5V477.541H377V478.539H376.5V479.537H377V480.535H376.5V481.532H377V482.53H376.5V483.528H377V484.526H376.5V485.524H377V486.522H376.5V487.52H377V488.518H376.5V489.516H377V490.514H376.5V491.512H377V492.509H376.5V493.507H377V494.505H376.5V495.503H377V496.501H376.5V497C376.5 497.157 376.496 497.312 376.489 497.467L376.988 497.491C376.972 497.821 376.94 498.147 376.893 498.468L376.398 498.395C376.353 498.705 376.292 499.01 376.217 499.31L376.703 499.431C376.623 499.75 376.528 500.063 376.418 500.37L375.947 500.201C375.842 500.495 375.723 500.783 375.59 501.062L376.042 501.277C375.901 501.573 375.747 501.862 375.579 502.142L375.15 501.884C374.99 502.151 374.816 502.41 374.631 502.659L375.033 502.957C374.837 503.22 374.629 503.473 374.41 503.716L374.039 503.38C373.83 503.61 373.61 503.83 373.38 504.039L373.716 504.41C373.473 504.629 373.22 504.837 372.957 505.033L372.659 504.631C372.41 504.816 372.151 504.99 371.884 505.15L372.142 505.579C371.862 505.747 371.573 505.901 371.277 506.042L371.062 505.59C370.783 505.723 370.495 505.842 370.201 505.947L370.37 506.418C370.063 506.528 369.75 506.623 369.431 506.703L369.31 506.217C369.01 506.292 368.705 506.353 368.395 506.398L368.468 506.893C368.147 506.94 367.821 506.972 367.491 506.988L367.467 506.489C367.312 506.496 367.157 506.5 367 506.5H366.5V507H365.5V506.5H364.5V507H363.5V506.5H362.5V507H361.5V506.5H360.5V507H359.5V506.5H358.5V507H357.5V506.5H356.5V507H355.5V506.5H354.5V507H353.5V506.5H352.5V507H351.5V506.5H350.5V507H349.5V506.5H348.5V507H347.5V506.5H346.5V507H345.5V506.5H344.5V507H343.5V506.5H342.5V507H341.5V506.5H340.5V507H339.5V506.5H338.5V507H337.5V506.5H336.5V507H335.5V506.5H334.5V507H333.5V506.5H332.5V507H331.5V506.5H330.5V507H329.5V506.5H328.5V507H327.5V506.5H326.5V507H325.5V506.5H324.5V507H323.5V506.5H322.5V507H321.5V506.5H320.5V507H319.5V506.5H318.5V507H317.5V506.5H316.5V507H315.5V506.5H314.5V507H313.5V506.5H312.5V507H311.5V506.5H310.5V507H309.5V506.5H308.5V507H307.5V506.5H306.5V507H305.5V506.5H304.5V507H303.5V506.5H302.5V507H301.5V506.5H300.5V507H299.5V506.5H298.5V507H297.5V506.5H296.5V507H295.5V506.5H294.5V507H293.5V506.5H292.5V507H291.5V506.5H290.5V507H289.5V506.5H288.5V507H287.5V506.5H286.5V507H285.5V506.5H284.5V507H283.5V506.5H282.5V507H281.5V506.5H280.5V507H279.5V506.5H278.5V507H277.5V506.5H276.5V507H275.5V506.5H274.5V507H273.5V506.5H272.5V507H271.5V506.5H270.5V507H269.5V506.5H268.5V507H267.5V506.5H266.5V507H265.5V506.5H264.5V507H263.5V506.5H262.5V507H261.5V506.5H260.5V507H259.5V506.5H258.5V507H257.5V506.5H256.5V507H255.5V506.5H254.5V507H253.5V506.5H252.5V507H251.5V506.5H250.5V507H249.5V506.5H248.5V507H247.5V506.5H246.5V507H245.5V506.5H244.5V507H243.5V506.5H242.5V507H241.5V506.5H240.5V507H239.5V506.5H238.5V507H237.5V506.5H236.5V507H235.5V506.5H234.5V507H233.5V506.5H232.5V507H231.5V506.5H230.5V507H229.5V506.5H228.5V507H227.5V506.5H226.5V507H225.5V506.5H224.5V507H223.5V506.5H222.5V507H221.5V506.5H220.5V507H219.5V506.5H218.5V507H217.5V506.5H216.5V507H215.5V506.5H214.5V507H213.5V506.5H212.5V507H211.5V506.5H210.5V507H209.5V506.5H208.5V507H207.5V506.5H206.5V507H205.5V506.5H204.5V507H203.5V506.5H202.5V507H201.5V506.5H200.5V507H199.5V506.5H198.5V507H197.5V506.5H196.5V507H195.5V506.5H194.5V507H193.5V506.5H192.5V507H191.5V506.5H190.5V507H189.5V506.5H188.5V507H187.5V506.5H186.5V507H185.5V506.5H184.5V507H183.5V506.5H182.5V507H181.5V506.5H180.5V507H179.5V506.5H178.5V507H177.5V506.5H176.5V507H175.5V506.5H174.5V507H173.5V506.5H172.5V507H171.5V506.5H170.5V507H169.5V506.5H168.5V507H167.5V506.5H166.5V507H165.5V506.5H164.5V507H163.5V506.5H162.5V507H161.5V506.5H160.5V507H159.5V506.5H158.5V507H157.5V506.5H156.5V507H155.5V506.5H154.5V507H153.5V506.5H152.5V507H151.5V506.5H150.5V507H149.5V506.5H148.5V507H147.5V506.5H146.5V507H145.5V506.5H144.5V507H143.5V506.5H142.5V507H141.5V506.5H140.5V507H139.5V506.5H138.5V507H137.5V506.5H136.5V507H135.5V506.5H134.5V507H133.5V506.5H132.5V507H131.5V506.5H130.5V507H129.5V506.5H128.5V507H127.5V506.5H126.5V507H125.5V506.5H124.5V507H123.5V506.5H122.5V507H121.5V506.5H120.5V507H119.5V506.5H118.5V507H117.5V506.5H116.5V507H115.5V506.5H114.5V507H113.5V506.5H112.5V507H111.5V506.5H110.5V507H109.5V506.5H108.5V507H107.5V506.5H106.5V507H105.5V506.5H104.5V507H103.5V506.5H102.5V507H101.5V506.5H100.5V507H99.5V506.5H98.5V507H97.5V506.5H96.5V507H95.5V506.5H94.5V507H93.5V506.5H92.5V507H91.5V506.5H90.5V507H89.5V506.5H88.5V507H87.5V506.5H86.5V507H85.5V506.5H84.5V507H83.5V506.5H82.5V507H81.5V506.5H80.5V507H79.5V506.5H78.5V507H77.5V506.5H76.5V507H75.5V506.5H74.5V507H73.5V506.5H72.5V507H71.5V506.5H70.5V507H69.5V506.5H68.5V507H67.5V506.5H66.5V507H65.5V506.5H64.5V507H63.5V506.5H62.5V507H61.5V506.5H60.5V507H59.5V506.5H58.5V507H57.5V506.5H56.5V507H55.5V506.5H54.5V507H53.5V506.5H52.5V507H51.5V506.5H50.5V507H49.5V506.5H48.5V507H47.5V506.5H46.5V507H45.5V506.5H44.5V507H43.5V506.5H42.5V507H41.5V506.5H40.5V507H39.5V506.5H38.5V507H37.5V506.5H36.5V507H35.5V506.5H35C34.8435 506.5 34.6879 506.496 34.5333 506.489L34.5091 506.988C34.179 506.972 33.8531 506.94 33.5321 506.893L33.6049 506.398C33.2949 506.353 32.9899 506.292 32.6905 506.217L32.5693 506.703C32.2499 506.623 31.9365 506.528 31.63 506.418L31.7985 505.947C31.5046 505.842 31.2173 505.723 30.9376 505.59L30.7235 506.042C30.4268 505.901 30.1381 505.747 29.8583 505.579L30.1158 505.15C29.8487 504.99 29.5901 504.816 29.3409 504.631L29.0427 505.033C28.7797 504.837 28.5267 504.629 28.2844 504.41L28.6203 504.039C28.3899 503.83 28.1697 503.61 27.9608 503.38L27.5904 503.716C27.3707 503.473 27.1627 503.22 26.9673 502.957L27.3687 502.659C27.1836 502.41 27.0104 502.151 26.85 501.884L26.4213 502.142C26.2533 501.862 26.0985 501.573 25.958 501.277L26.4098 501.062C26.2773 500.783 26.158 500.495 26.0528 500.201L25.582 500.37C25.4724 500.063 25.3772 499.75 25.2975 499.431L25.7826 499.31C25.7078 499.01 25.6472 498.705 25.6016 498.395L25.107 498.468C25.0598 498.147 25.0278 497.821 25.0118 497.491L25.5113 497.467C25.5038 497.312 25.5 497.157 25.5 497V496.5H25V495.498H25.5V494.496H25V493.494H25.5V492.493H25V491.491H25.5V490.489H25V489.487H25.5V488.486H25V487.484H25.5V486.482H25V485.48H25.5V484.479H25V483.477H25.5V482.475H25V481.473H25.5V480.471H25V479.47H25.5V478.468H25V477.466H25.5V476.464H25V475.463H25.5V474.461H25V473.459H25.5V472.457H25V471.456H25.5V470.454H25V469.452H25.5V468.45H25V467.448H25.5V466.447H25V465.445H25.5V464.443H25V463.441H25.5V462.44H25V461.438H25.5V460.436H25V459.434H25.5V458.432H25V457.431H25.5V456.429H25V455.427H25.5V454.425H25V453.424H25.5V452.422H25V451.42H25.5V450.418H25V449.417H25.5V448.415H25V447.413H25.5V446.411H25V445.409H25.5V444.408H25V443.406H25.5V442.404H25V441.402H25.5V440.401H25V439.399H25.5V438.397H25V437.395H25.5V436.394H25V435.392H25.5V434.39H25V433.388H25.5V432.386H25V431.385H25.5V430.383H25V429.381H25.5V428.379H25V427.378H25.5V426.376H25V425.374H25.5V424.372H25V423.371H25.5V422.369H25V421.367H25.5V420.365H25V419.363H25.5V418.362H25V417.36H25.5V416.358H25V415.356H25.5V414.355H25V413.353H25.5V412.351H25V411.349H25.5V410.348H25V409.346H25.5V408.344H25V407.342H25.5V406.34H25V405.339H25.5V404.337H25V403.335H25.5V402.333H25V401.332H25.5V400.33H25V399.328H25.5V398.326H25V397.325H25.5V396.323H25V395.321H25.5V394.319H25V393.317H25.5V392.316H25V391.314H25.5V390.312H25V389.31H25.5V388.309H25V387.307H25.5V386.305H25V385.303H25.5V384.302H25V383.3H25.5V382.298H25V381.296H25.5V380.294H25V379.293H25.5V378.291H25V377.289H25.5V376.287H25V375.286H25.5V374.284H25V373.282H25.5V372.28H25V371.279H25.5V370.277H25V369.275H25.5V368.273H25V367.271H25.5V366.27H25V365.268H25.5V364.266H25V363.264H25.5V362.263H25V361.261H25.5V360.259H25V359.257H25.5V358.256H25V357.254H25.5V356.252H25V355.25H25.5V354.249H25V353.247H25.5V352.245H25V351.243H25.5V350.241H25V349.24H25.5V348.238H25V347.236H25.5V346.234H25V345.233H25.5V344.231H25V343.229H25.5V342.227H25V341.226H25.5V340.224H25V339.222H25.5V338.22H25V337.219H25.5V336.217H25V335.215H25.5V334.213H25V333.212H25.5V332.21H25V331.208H25.5V330.206H25V329.205H25.5V328.203H25V327.201H25.5V326.199H25V325.198H25.5V324.196H25V323.194H25.5V322.192H25V321.191H25.5V320.189H25V319.187H25.5V318.185H25V317.184H25.5V316.182H25V315.18H25.5V314.178H25V313.177H25.5V312.175H25V311.173H25.5V310.171H25V309.17H25.5V308.168H25V307.166H25.5V306.164H25V305.163H25.5V304.161H25V303.159H25.5V302.157H25V301.155H25.5V300.154H25V299.152H25.5V298.15H25V297.148H25.5V296.147H25V295.145H25.5V294.143H25V293.141H25.5V292.14H25V291.138H25.5V290.136H25V289.134H25.5V288.133H25V287.131H25.5V286.129H25V285.127H25.5V284.126H25V283.124H25.5V282.122H25V281.12H25.5V280.119H25V279.117H25.5V278.115H25V277.113H25.5V276.112H25V275.11H25.5V274.108H25V273.106H25.5V272.105H25V271.103H25.5V270.101H25V269.099H25.5V268.098H25V267.096H25.5V266.094H25V265.092H25.5V264.091H25V263.089H25.5V262.087H25V261.085H25.5V260.084H25V259.082H25.5V258.08H25V257.078H25.5V256.077H25V255.075H25.5V254.073H25V253.071H25.5V252.07H25V251.068H25.5V250.066H25V249.064H25.5V248.062H25V247.061H25.5V246.059H25V245.057H25.5V244.055H25V243.054H25.5V242.052H25V241.05H25.5V240.048H25V239.047H25.5V238.045H25V237.043H25.5V236.041H25V235.04H25.5V234.038H25V233.036H25.5V232.034H25V231.033H25.5V230.031H25V229.029H25.5V228.027H25V227.026H25.5V226.024H25V225.022H25.5V224.02H25V223.019H25.5V222.017H25V221.015H25.5V220.013H25V219.012H25.5V218.01H25V217.008H25.5V216.006H25V215.004H25.5V214.003H25V213.001H25.5V211.999H25V210.997H25.5V209.996H25V208.994H25.5V207.992H25V206.99H25.5V205.989H25V204.987H25.5V203.985H25V202.983H25.5V201.982H25V200.98H25.5V199.978H25V198.976H25.5V197.975H25V196.973H25.5V195.971H25V194.969H25.5V193.967H25V192.966H25.5V191.964H25V190.962H25.5V189.96H25V188.959H25.5V187.957H25V186.955H25.5V185.953H25V184.952H25.5V183.95H25V182.948H25.5V181.946H25V180.945H25.5V179.943H25V178.941H25.5V177.939H25V176.937H25.5V175.936H25V174.934H25.5V173.932H25V172.93H25.5V171.929H25V170.927H25.5V169.925H25V168.923H25.5V167.922H25V166.92H25.5V165.918H25V164.916H25.5V163.915H25V162.913H25.5V161.911H25V160.909H25.5V159.908H25V158.906H25.5V157.904H25V156.902H25.5V155.9H25V154.899H25.5V153.897H25V152.895H25.5V151.893H25V150.892H25.5V149.89H25V148.888H25.5V147.886H25V146.885H25.5V145.883H25V144.881H25.5V143.879H25V142.878H25.5V141.876H25V140.874H25.5V139.872H25V138.871H25.5V137.869H25V136.867H25.5V135.865H25V134.863H25.5V133.862H25V132.86H25.5V131.858H25V130.856H25.5V129.855H25V128.853H25.5V127.851H25V126.849H25.5V125.848H25V124.846H25.5V123.844H25V122.842H25.5V121.841H25V120.839H25.5V119.837H25V118.835H25.5V117.834H25V116.832H25.5V115.83H25V114.828H25.5V113.826H25V112.825H25.5V111.823H25V110.821H25.5V109.819H25V108.818H25.5V107.816H25V106.814H25.5V105.812H25V104.811H25.5V103.809H25V102.807H25.5V102.306C25.5 102.128 25.505 101.951 25.5149 101.774L25.0157 101.746C25.0366 101.372 25.0786 101 25.1407 100.634L25.6337 100.718C25.6932 100.367 25.7722 100.021 25.8699 99.6807L25.3894 99.5425C25.4928 99.1831 25.6161 98.8303 25.7586 98.4856L26.2207 98.6767C26.3562 98.3488 26.5101 98.0288 26.6814 97.7181L26.2436 97.4766C26.4236 97.1501 26.6221 96.8334 26.8382 96.5282L27.2463 96.817C27.4507 96.5283 27.6716 96.2504 27.9084 95.9848L27.5352 95.6521C27.7825 95.3746 28.0463 95.1099 28.3257 94.8595L28.6594 95.2318C28.7911 95.1138 28.9265 94.9991 29.0654 94.888L29.4595 94.5727L29.1471 94.1823L29.9353 93.5518L30.2477 93.9422L31.0358 93.3117L30.7235 92.9212L31.5116 92.2907L31.824 92.6811L32.6122 92.0506L32.2998 91.6602L33.088 91.0296L33.4003 91.4201L34.1885 90.7895L33.8761 90.3991L34.6643 89.7686L34.9767 90.159L35.7648 89.5285L35.4525 89.138L36.2406 88.5075L36.553 88.8979L37.3412 88.2674L37.0288 87.877L37.817 87.2464L38.1293 87.6369L38.9175 87.0063L38.6051 86.6159L39.3933 85.9854L39.7057 86.3758L40.4938 85.7453L40.1815 85.3548L40.9696 84.7243L41.282 85.1147L42.0702 84.4842L41.7578 84.0938L42.546 83.4632L42.8583 83.8537L43.6465 83.2231L43.3341 82.8327L44.1223 82.2022L44.4347 82.5926L45.2228 81.9621L44.9105 81.5716L45.6986 80.9411L46.011 81.3315L46.7992 80.701L46.4868 80.3106L47.275 79.68L47.5873 80.0705L48.3755 79.4399L48.0631 79.0495L48.8513 78.419L49.1637 78.8094L49.9518 78.1789L49.6395 77.7884L50.4276 77.1579L50.74 77.5483L51.5282 76.9178L51.2158 76.5274L52.004 75.8968L52.3163 76.2873L52.7104 75.972C52.8499 75.8604 52.9858 75.7461 53.1179 75.6292L52.7867 75.2546C53.0433 75.0278 53.285 74.7911 53.5121 74.5456L53.8792 74.8851C54.1226 74.6219 54.35 74.3491 54.5614 74.0678L54.1617 73.7674C54.3664 73.495 54.5552 73.2145 54.7283 72.9269L55.1567 73.1847C55.341 72.8784 55.5083 72.5645 55.6585 72.2446L55.2058 72.0322C55.3502 71.7247 55.4779 71.4113 55.5892 71.0933L56.0611 71.2584C56.1788 70.9222 56.2787 70.5811 56.3611 70.2368L55.8749 70.1204C55.9537 69.7909 56.0157 69.4582 56.0607 69.1236L56.5563 69.1904C56.6037 68.8383 56.6333 68.4843 56.6452 68.1299L56.1455 68.1132C56.1568 67.7751 56.1511 67.4367 56.1285 67.0992L56.6274 67.0658C56.6037 66.712 56.5623 66.3592 56.5032 66.0089L56.0101 66.0922C55.9539 65.7593 55.8809 65.4288 55.7911 65.1021L56.2732 64.9696C56.1794 64.6282 56.0681 64.2907 55.9393 63.9585L55.4731 64.1393C55.3513 63.8252 55.2132 63.5163 55.0587 63.2138L55.5039 62.9863C55.3432 62.6716 55.1655 62.3635 54.9711 62.0635L54.5515 62.3354C54.369 62.0538 54.1709 61.7797 53.9572 61.5143L54.3467 61.2008C54.126 60.9267 53.8896 60.6616 53.6375 60.4067L53.282 60.7582C53.0469 60.5205 52.7973 60.2919 52.5334 60.0738L52.8519 59.6884C52.7159 59.576 52.5763 59.4663 52.4331 59.3594L52.0204 59.0512L51.7212 59.4518L50.8956 58.8354L51.1947 58.4347L50.3691 57.8183L50.07 58.2189L49.2444 57.6025L49.5435 57.2018L48.7179 56.5854L48.4188 56.986L47.5932 56.3696L47.8923 55.9689L47.0667 55.3525L46.7676 55.7531L45.942 55.1367L46.2411 54.736L45.4155 54.1196L45.1164 54.5202L44.2908 53.9038L44.5899 53.5031L43.7643 52.8867L43.4652 53.2873L42.6396 52.6709L42.9387 52.2702L42.1131 51.6538L41.814 52.0544L40.9884 51.438L41.2875 51.0373L40.4619 50.4209L40.1628 50.8215L39.3372 50.2051L39.6363 49.8044L38.8107 49.188L38.5116 49.5886L37.6859 48.9722L37.9851 48.5715L37.1595 47.9551L36.8603 48.3557L36.0347 47.7393L36.3339 47.3386L35.5083 46.7222L35.2091 47.1228L34.3835 46.5064L34.6827 46.1057L33.8571 45.4893L33.5579 45.8899L32.7323 45.2735L33.0315 44.8728L32.2059 44.2564L31.9067 44.657L31.0811 44.0406L31.3803 43.6399L30.5547 43.0235L30.2555 43.4241L29.4299 42.8077L29.7291 42.407L29.3163 42.0988C29.198 42.0105 29.0821 41.9197 28.9686 41.8265L28.6512 42.2128C28.4108 42.0152 28.1807 41.8074 27.9616 41.5903L28.3135 41.2351C28.1037 41.0273 27.9044 40.8105 27.716 40.5855L27.3327 40.9065C27.1333 40.6684 26.9456 40.4216 26.77 40.1671L27.1815 39.8831C27.0141 39.6406 26.8583 39.3907 26.7144 39.1342L26.2784 39.3788C26.1268 39.1085 25.9878 38.8314 25.862 38.5482L26.3189 38.3451C26.1994 38.0764 26.0924 37.802 25.9982 37.5228L25.5244 37.6826C25.4256 37.3896 25.3401 37.0916 25.2686 36.7894L25.7552 36.6743C25.6876 36.3887 25.6331 36.0993 25.5921 35.8069L25.0969 35.8764Z" stroke="#E9E7E8" stroke-dasharray="1 1"/>
<defs>
<filter id="filter0_d_227_59" x="0" y="0.0275879" width="402" height="546.972" filterUnits="userSpaceOnUse" color-interpolation-filters="sRGB">
<feFlood flood-opacity="0" result="BackgroundImageFix"/>
<feColorMatrix in="SourceAlpha" type="matrix" values="0 0 0 0 0 0 0 0 0 0 0 0 0 0 0 0 0 0 127 0" result="hardAlpha"/>
<feOffset dy="15"/>
<feGaussianBlur stdDeviation="10"/>
<feColorMatrix type="matrix" values="0 0 0 0 0 0 0 0 0 0.0245834 0 0 0 0 0.245833 0 0 0 0.15 0"/>
<feBlend mode="normal" in2="BackgroundImageFix" result="effect1_dropShadow_227_59"/>
<feBlend mode="normal" in="SourceGraphic" in2="effect1_dropShadow_227_59" result="shape"/>
</filter>
</defs>
</svg>
