<svg width="76" height="115" viewBox="0 0 76 115" fill="none" xmlns="http://www.w3.org/2000/svg">
<rect y="24" width="75" height="79" fill="#179D9F" fill-opacity="0.95"/>
<path d="M1 10C1 4.47715 5.47715 0 11 0H65.5C71.0228 0 75.5 4.47715 75.5 10V105C75.5 110.523 71.0228 115 65.5 115H11C5.47715 115 1 110.523 1 105V93.9417C1 90.827 2.45131 87.8902 4.9255 85.9981L24.078 71.3521C29.4713 67.2278 29.2745 59.0427 23.6893 55.1823L5.3142 42.4819C2.61256 40.6146 1 37.5397 1 34.2556V10Z" fill="white"/>
<path d="M32.2158 71.5274L33.004 70.8968L33.3163 71.2872L33.7104 70.972C33.8499 70.8604 33.9858 70.7461 34.1179 70.6292L33.7867 70.2546C34.0432 70.0278 34.285 69.7911 34.5121 69.5456L34.8792 69.8851C35.1226 69.6219 35.35 69.3491 35.5614 69.0678L35.1617 68.7674C35.3664 68.495 35.5552 68.2145 35.7283 67.9269L36.1567 68.1847C36.341 67.8784 36.5083 67.5645 36.6585 67.2446L36.2058 67.0322C36.3502 66.7247 36.4779 66.4113 36.5892 66.0933L37.0611 66.2584C37.1787 65.9222 37.2787 65.5811 37.3611 65.2368L36.8749 65.1204C36.9537 64.7909 37.0157 64.4582 37.0607 64.1236L37.5563 64.1904C37.6037 63.8383 37.6333 63.4843 37.6452 63.1299L37.1455 63.1132C37.1568 62.7751 37.1511 62.4367 37.1285 62.0992L37.6274 62.0658C37.6037 61.712 37.5623 61.3592 37.5032 61.0089L37.0101 61.0922C36.9539 60.7593 36.8809 60.4288 36.7911 60.1021L37.2732 59.9696C37.1794 59.6282 37.0681 59.2907 36.9393 58.9585L36.4731 59.1393C36.3513 58.8252 36.2132 58.5163 36.0587 58.2138L36.5039 57.9863C36.3432 57.6716 36.1655 57.3635 35.9711 57.0635L35.5515 57.3354C35.369 57.0538 35.1709 56.7797 34.9572 56.5143L35.3467 56.2008C35.126 55.9267 34.8896 55.6616 34.6375 55.4067L34.282 55.7582C34.0469 55.5205 33.7973 55.2919 33.5334 55.0738L33.8519 54.6884C33.7159 54.576 33.5763 54.4663 33.4331 54.3594L33.0204 54.0512L32.7212 54.4518L31.8956 53.8354L32.1947 53.4347L31.3691 52.8183L31.07 53.2189L30.2444 52.6025L30.5435 52.2018L29.7179 51.5854L29.4188 51.986L28.5932 51.3696L28.8923 50.9689L28.0667 50.3525L27.7676 50.7531L26.942 50.1367L27.2411 49.736L26.4155 49.1196L26.1164 49.5202L25.2908 48.9038L25.5899 48.5031L24.7643 47.8867L24.4652 48.2873L23.6396 47.6709L23.9387 47.2702L23.1131 46.6538L22.814 47.0544L21.9884 46.438L22.2875 46.0373L21.4619 45.4209L21.1628 45.8215L20.3372 45.2051L20.6363 44.8044L19.8107 44.188L19.5116 44.5886L18.6859 43.9722L18.9851 43.5715L18.1595 42.9551L17.8603 43.3557L17.0347 42.7393L17.3339 42.3386L16.5083 41.7222L16.2091 42.1228L15.3835 41.5064L15.6827 41.1057L14.8571 40.4893L14.5579 40.8899L13.7323 40.2735L14.0315 39.8728L13.2059 39.2564L12.9067 39.657L12.0811 39.0406L12.3803 38.6399L11.5547 38.0235L11.2555 38.4241L10.4299 37.8077L10.7291 37.407L10.3163 37.0988C10.198 37.0105 10.0821 36.9197 9.96864 36.8265L9.65123 37.2128C9.41076 37.0152 9.18072 36.8074 8.96156 36.5903L9.31345 36.2351C9.10369 36.0273 8.90441 35.8105 8.71605 35.5855L8.33267 35.9065C8.13335 35.6684 7.94563 35.4216 7.76999 35.1671L8.1815 34.8831C8.01414 34.6406 7.8583 34.3907 7.71444 34.1342L7.27835 34.3788C7.12677 34.1085 6.98782 33.8314 6.86196 33.5482L7.31886 33.3451C7.1994 33.0764 7.09236 32.802 6.99817 32.5228L6.5244 32.6826C6.42555 32.3896 6.34014 32.0916 6.26863 31.7894L6.75519 31.6743C6.68762 31.3887 6.63311 31.0993 6.59209 30.8069L6.09694 30.8764C6.05408 30.5708 6.02522 30.2622 6.01078 29.9513L6.51024 29.9281C6.50343 29.7815 6.5 29.6343 6.5 29.4866V28.9693H6V27.9345H6.5V26.8997H6V25.865H6.5V24.8302H6V23.7955H6.5V22.7607H6V21.7259H6.5V20.6912H6V19.6564H6.5V18.6217H6V17.5869H6.5V16.5521H6V15.5174H6.5V15C6.5 14.8435 6.50378 14.6879 6.51125 14.5333L6.01184 14.5091C6.02779 14.179 6.05976 13.8531 6.10697 13.5321L6.60165 13.6049C6.64724 13.2949 6.70781 12.9899 6.78257 12.6905L6.29747 12.5693C6.37724 12.2499 6.47237 11.9365 6.58204 11.6301L7.0528 11.7985C7.15799 11.5046 7.27726 11.2173 7.40982 10.9376L6.95797 10.7235C7.09855 10.4268 7.2533 10.1381 7.42135 9.85832L7.84997 10.1158C8.01039 9.84869 8.18358 9.59012 8.36871 9.34091L7.96733 9.04275C8.16271 8.77974 8.37069 8.52666 8.59039 8.28441L8.96077 8.6203C9.16974 8.38987 9.38987 8.16974 9.62029 7.96077L9.28441 7.59039C9.52666 7.37069 9.77974 7.16271 10.0427 6.96734L10.3409 7.36871C10.5901 7.18358 10.8487 7.01039 11.1158 6.84997L10.8583 6.42135C11.1381 6.2533 11.4268 6.09855 11.7235 5.95797L11.9376 6.40982C12.2173 6.27727 12.5046 6.15799 12.7985 6.0528L12.6301 5.58204C12.9365 5.47237 13.2499 5.37724 13.5693 5.29747L13.6905 5.78257C13.9899 5.70781 14.2949 5.64724 14.6049 5.60165L14.5321 5.10697C14.8531 5.05976 15.179 5.02779 15.5091 5.01184L15.5333 5.51125C15.6879 5.50378 15.8435 5.5 16 5.5H16.49V5H17.47V5.5H18.45V5H19.43V5.5H20.41V5H21.39V5.5H22.37V5H23.35V5.5H24.33V5H25.31V5.5H26.29V5H27.27V5.5H28.25V5H29.23V5.5H30.21V5H31.19V5.5H32.17V5H33.15V5.5H34.13V5H35.11V5.5H36.09V5H37.07V5.5H38.05V5H39.03V5.5H40.01V5H40.99V5.5H41.97V5H42.95V5.5H43.93V5H44.91V5.5H45.89V5H46.87V5.5H47.85V5H48.83V5.5H49.81V5H50.79V5.5H51.77V5H52.75V5.5H53.73V5H54.71V5.5H55.69V5H56.67V5.5H57.65V5H58.63V5.5H59.61V5H60.59V5.5H61.57V5H62.55V5.5H63.53V5H64.51V5.5H65C65.1565 5.5 65.3121 5.50378 65.4667 5.51125L65.4909 5.01184C65.821 5.02779 66.1469 5.05976 66.4679 5.10697L66.3951 5.60165C66.7051 5.64724 67.0101 5.70781 67.3095 5.78257L67.4307 5.29746C67.7501 5.37724 68.0635 5.47237 68.3699 5.58204L68.2015 6.0528C68.4954 6.15799 68.7827 6.27726 69.0624 6.40982L69.2765 5.95797C69.5732 6.09855 69.8619 6.2533 70.1417 6.42135L69.8842 6.84997C70.1513 7.01039 70.4099 7.18358 70.6591 7.36871L70.9572 6.96733C71.2203 7.16271 71.4733 7.37069 71.7156 7.59039L71.3797 7.96077C71.6101 8.16974 71.8303 8.38987 72.0392 8.62029L72.4096 8.28441C72.6293 8.52666 72.8373 8.77974 73.0327 9.04275L72.6313 9.34091C72.8164 9.59012 72.9896 9.84869 73.15 10.1158L73.5787 9.85832C73.7467 10.1381 73.9015 10.4268 74.042 10.7235L73.5902 10.9376C73.7227 11.2173 73.842 11.5046 73.9472 11.7985L74.418 11.6301C74.5276 11.9365 74.6228 12.2499 74.7025 12.5693L74.2174 12.6905C74.2922 12.9899 74.3528 13.2949 74.3984 13.6049L74.893 13.5321C74.9402 13.8531 74.9722 14.179 74.9882 14.5091L74.4887 14.5333C74.4962 14.6879 74.5 14.8435 74.5 15V15.4971H75V16.4913H74.5V17.4854H75V18.4796H74.5V19.4738H75V20.468H74.5V21.4622H75V22.4564H74.5V23.4506H75V24.4447H74.5V25.4389H75V26.4331H74.5V27.4273H75V28.4215H74.5V29.4157H75V30.4099H74.5V31.4041H75V32.3982H74.5V33.3924H75V34.3866H74.5V35.3808H75V36.375H74.5V37.3692H75V38.3634H74.5V39.3575H75V40.3517H74.5V41.3459H75V42.3401H74.5V43.3343H75V44.3285H74.5V45.3227H75V46.3168H74.5V47.311H75V48.3052H74.5V49.2994H75V50.2936H74.5V51.2878H75V52.282H74.5V53.2762H75V54.2703H74.5V55.2645H75V56.2587H74.5V57.2529H75V58.2471H74.5V59.2413H75V60.2355H74.5V61.2296H75V62.2238H74.5V63.218H75V64.2122H74.5V65.2064H75V66.2006H74.5V67.1948H75V68.1889H74.5V69.1831H75V70.1773H74.5V71.1715H75V72.1657H74.5V73.1599H75V74.1541H74.5V75.1483H75V76.1424H74.5V77.1366H75V78.1308H74.5V79.125H75V80.1192H74.5V81.1134H75V82.1076H74.5V83.1017H75V84.0959H74.5V85.0901H75V86.0843H74.5V87.0785H75V88.0727H74.5V89.0669H75V90.0611H74.5V91.0552H75V92.0494H74.5V93.0436H75V94.0378H74.5V95.032H75V96.0262H74.5V97.0204H75V98.0145H74.5V99.0087H75V100.003H74.5V100.5C74.5 100.657 74.4962 100.812 74.4887 100.967L74.9882 100.991C74.9722 101.321 74.9402 101.647 74.893 101.968L74.3984 101.895C74.3528 102.205 74.2922 102.51 74.2174 102.81L74.7025 102.931C74.6228 103.25 74.5276 103.563 74.418 103.87L73.9472 103.701C73.842 103.995 73.7227 104.283 73.5902 104.562L74.042 104.777C73.9015 105.073 73.7467 105.362 73.5787 105.642L73.15 105.384C72.9896 105.651 72.8164 105.91 72.6313 106.159L73.0327 106.457C72.8373 106.72 72.6293 106.973 72.4096 107.216L72.0392 106.88C71.8303 107.11 71.6101 107.33 71.3797 107.539L71.7156 107.91C71.4733 108.129 71.2203 108.337 70.9572 108.533L70.6591 108.131C70.4099 108.316 70.1513 108.49 69.8842 108.65L70.1417 109.079C69.8619 109.247 69.5732 109.401 69.2765 109.542L69.0624 109.09C68.7827 109.223 68.4954 109.342 68.2015 109.447L68.3699 109.918C68.0635 110.028 67.7501 110.123 67.4307 110.203L67.3095 109.717C67.0101 109.792 66.7051 109.853 66.3951 109.898L66.4679 110.393C66.1469 110.44 65.821 110.472 65.4909 110.488L65.4667 109.989C65.3121 109.996 65.1565 110 65 110H64.51V110.5H63.53V110H62.55V110.5H61.57V110H60.59V110.5H59.61V110H58.63V110.5H57.65V110H56.67V110.5H55.69V110H54.71V110.5H53.73V110H52.75V110.5H51.77V110H50.79V110.5H49.81V110H48.83V110.5H47.85V110H46.87V110.5H45.89V110H44.91V110.5H43.93V110H42.95V110.5H41.97V110H40.99V110.5H40.01V110H39.03V110.5H38.05V110H37.07V110.5H36.09V110H35.11V110.5H34.13V110H33.15V110.5H32.17V110H31.19V110.5H30.21V110H29.23V110.5H28.25V110H27.27V110.5H26.29V110H25.31V110.5H24.33V110H23.35V110.5H22.37V110H21.39V110.5H20.41V110H19.43V110.5H18.45V110H17.47V110.5H16.49V110H16C15.8435 110 15.6879 109.996 15.5333 109.989L15.5091 110.488C15.179 110.472 14.8531 110.44 14.5321 110.393L14.6049 109.898C14.2949 109.853 13.9899 109.792 13.6905 109.717L13.5693 110.203C13.2499 110.123 12.9365 110.028 12.6301 109.918L12.7985 109.447C12.5046 109.342 12.2173 109.223 11.9376 109.09L11.7235 109.542C11.4268 109.401 11.1381 109.247 10.8583 109.079L11.1158 108.65C10.8487 108.49 10.5901 108.316 10.3409 108.131L10.0428 108.533C9.77974 108.337 9.52666 108.129 9.28441 107.91L9.6203 107.539C9.38987 107.33 9.16974 107.11 8.96077 106.88L8.59039 107.216C8.37069 106.973 8.16271 106.72 7.96733 106.457L8.36871 106.159C8.18358 105.91 8.01039 105.651 7.84997 105.384L7.42135 105.642C7.2533 105.362 7.09855 105.073 6.95797 104.777L7.40982 104.562C7.27727 104.283 7.15799 103.995 7.0528 103.701L6.58204 103.87C6.47237 103.563 6.37724 103.25 6.29746 102.931L6.78257 102.81C6.70781 102.51 6.64724 102.205 6.60165 101.895L6.10697 101.968C6.05976 101.647 6.02779 101.321 6.01184 100.991L6.51125 100.967C6.50378 100.812 6.5 100.657 6.5 100.5V100.101H6V99.3023H6.5V98.5039H6V97.7055H6.5V97.3063C6.5 97.1283 6.50499 96.951 6.51487 96.7744L6.01565 96.7465C6.03663 96.3718 6.07857 96.0005 6.14072 95.634L6.63368 95.7176C6.69318 95.3668 6.77218 95.0206 6.86995 94.6807L6.38943 94.5425C6.49281 94.1831 6.61613 93.8303 6.75862 93.4856L7.22068 93.6767C7.35624 93.3488 7.51006 93.0288 7.68139 92.7181L7.24356 92.4766C7.42365 92.1501 7.62212 91.8334 7.8382 91.5282L8.24631 91.817C8.45067 91.5283 8.6716 91.2504 8.90839 90.9848L8.53515 90.6521C8.7825 90.3746 9.04627 90.1099 9.32573 89.8595L9.65942 90.2318C9.7911 90.1138 9.92645 89.9991 10.0654 89.888L10.4595 89.5727L10.1471 89.1823L10.9353 88.5518L11.2477 88.9422L12.0358 88.3117L11.7235 87.9212L12.5116 87.2907L12.824 87.6811L13.6122 87.0506L13.2998 86.6602L14.088 86.0296L14.4003 86.4201L15.1885 85.7895L14.8761 85.3991L15.6643 84.7686L15.9767 85.159L16.7648 84.5285L16.4525 84.138L17.2406 83.5075L17.553 83.8979L18.3412 83.2674L18.0288 82.877L18.817 82.2464L19.1293 82.6369L19.9175 82.0063L19.6051 81.6159L20.3933 80.9854L20.7057 81.3758L21.4938 80.7453L21.1815 80.3548L21.9696 79.7243L22.282 80.1147L23.0702 79.4842L22.7578 79.0938L23.546 78.4632L23.8583 78.8537L24.6465 78.2231L24.3341 77.8327L25.1223 77.2021L25.4347 77.5926L26.2228 76.9621L25.9105 76.5716L26.6986 75.9411L27.011 76.3315L27.7992 75.701L27.4868 75.3105L28.275 74.68L28.5873 75.0704L29.3755 74.4399L29.0631 74.0495L29.8513 73.419L30.1637 73.8094L30.9518 73.1788L30.6395 72.7884L31.4276 72.1579L31.74 72.5483L32.5282 71.9178L32.2158 71.5274Z" stroke="#E9E7E8" stroke-dasharray="1 1"/>
</svg>
