<svg width="840" height="829" viewBox="0 0 840 829" fill="none" xmlns="http://www.w3.org/2000/svg">
<path d="M840.391 382.462V828.105H800.309C752.163 828.105 717.074 784.136 692.959 742.464C670.941 704.43 631.99 680.99 591.112 667.753C546.507 653.285 496.31 661.593 453.79 643.871C435.278 636.163 418.725 621.537 413.228 602.267C408.174 584.418 413.038 565.496 414.934 547.016C416.798 528.567 414.334 507.212 399.423 496.187C384.039 484.783 362.557 489.237 344.046 494.197C313.624 502.347 248.959 534.38 228.141 493.376C213.831 465.197 245.484 436.45 255.309 406.376C265.733 374.375 248.927 338.173 222.297 317.576C195.666 296.979 161.296 289.303 127.811 285.923C102.444 283.364 76.4766 282.827 52.4365 274.424C28.3648 266.021 5.87255 247.604 1.03926 222.584C-8.72211 172.072 53.1947 136.375 64.9462 86.3043C72.2751 55.1248 57.9648 21.9552 34.3037 0H186.379C169.857 53.3875 179.429 124.465 244.126 132.9C310.465 142.377 386.282 79.1966 436.826 139.218C474.734 183.444 427.349 256.102 487.37 287.692C560.028 322.441 632.685 281.374 705.342 284.533H705.816C730.169 284.631 751.41 301.007 758.341 324.352C776.673 386.064 809.322 367.267 840.391 382.462Z" fill="#29C1C2"/>
<path d="M840.391 634.647V828.105C825.469 828.105 812.49 828.105 800.303 828.105C752.156 828.105 717.074 784.136 692.959 742.464C670.941 704.43 631.99 680.99 591.112 667.753C546.507 653.285 496.31 661.593 453.79 643.871C435.278 636.163 418.725 621.537 413.228 602.267C408.174 584.418 413.038 565.496 414.934 547.016C416.798 528.567 414.334 507.212 399.423 496.187C384.039 484.783 362.557 489.237 344.046 494.197C313.624 502.347 248.959 534.38 228.141 493.376C213.831 465.197 245.484 436.45 255.309 406.376C265.733 374.375 248.927 338.173 222.297 317.576C195.666 296.979 161.296 289.303 127.811 285.923C102.444 283.364 76.4766 282.827 52.4365 274.424C28.3648 266.021 5.87255 247.604 1.03926 222.584C-8.72211 172.072 53.1947 136.375 64.9462 86.3044C72.2751 55.1249 57.9648 21.9552 34.3037 0H119.755C123.925 31.5902 121.872 65.4548 116.912 83.9035C107.814 117.642 85.6378 150.717 94.104 184.645C103.581 222.679 148.028 241.444 187.232 241.286C226.435 241.128 264.723 228.018 303.926 228.05C334.79 228.081 369.128 239.264 382.459 267.095C405.267 314.67 352.638 367.299 358.04 419.77C363.221 470.157 420.241 499.662 470.88 500.61C521.519 501.557 570.926 483.772 621.565 482.824C659.537 482.129 702.752 495.081 718.168 529.799C724.834 544.867 725.339 562.084 731.91 577.153C744.198 605.3 775.062 620.558 804.883 627.76C816.603 630.603 828.513 632.593 840.391 634.647Z" fill="#15ADAE"/>
<path d="M466.442 662.102C466.442 662.102 367.438 669.026 245.31 669.026C123.183 669.026 24.1791 662.102 24.1791 662.102C24.1791 662.102 123.183 655.181 245.31 655.181C367.438 655.181 466.442 662.102 466.442 662.102Z" fill="#01999A"/>
<path d="M643.915 402.396H353.99V223.232H643.915V402.396Z" fill="#48C1B4"/>
<path d="M631.781 391.469H366.127V234.159H631.781V391.469Z" fill="white"/>
<path d="M609.852 370.42V296.25H595.203V370.42H585.789V316.445H571.141V370.42H561.727V291.963H547.076V370.42H537.668V280.527H523.017V370.42H513.606V316.445H498.954V370.42H487.601V269.183H484.388V373.639H620.643V370.42H609.852Z" fill="#302F31"/>
<path d="M463.418 264.176H380.791V259.172H463.418V264.176Z" fill="#48C1B4"/>
<path d="M463.418 278.471H380.791V273.467H463.418V278.471Z" fill="#48C1B4"/>
<path d="M421.388 292.762H380.791V287.758H421.388V292.762Z" fill="#48C1B4"/>
<path d="M434.153 350.121V364.415L426.758 371.693H412.58V350.121H434.153Z" fill="#48C1B4"/>
<path d="M434.153 364.415L426.758 371.693V364.415H434.153Z" fill="#39A89E"/>
<path d="M403.195 350.121V371.693H381.619V350.121H403.195Z" fill="#FF512F"/>
<path d="M602.529 276.152L590.089 279.273L593.431 282.726L578.353 297.34L526.864 257.242L501.226 276.474L503.153 279.046L526.826 261.292L578.581 301.595L595.668 285.035L599.016 288.488L602.529 276.152Z" fill="#48C1B4"/>
<path d="M410.287 322.425C410.287 330.569 403.685 337.175 395.541 337.175C387.394 337.175 380.791 330.569 380.791 322.425C380.791 314.281 387.394 307.679 395.541 307.679C403.685 307.679 410.287 314.281 410.287 322.425Z" fill="#015656"/>
<path d="M402.639 328.058C401.871 327.486 400.958 327.006 399.935 326.646C400.21 325.521 400.38 324.264 400.415 322.928H404.588C404.484 324.864 403.767 326.633 402.639 328.058ZM397.398 331.299C398.339 330.557 399.126 329.261 399.663 327.603C400.545 327.913 401.328 328.32 401.985 328.797C400.756 330.039 399.17 330.929 397.398 331.299ZM396.043 330.907V326.94C396.975 326.974 397.866 327.104 398.696 327.312C398.077 329.223 397.123 330.582 396.043 330.907ZM396.043 322.928H399.404C399.373 324.15 399.215 325.309 398.965 326.352C398.049 326.115 397.066 325.967 396.043 325.929V322.928ZM396.043 319.029C397.076 318.995 398.065 318.843 398.987 318.603C399.224 319.617 399.373 320.742 399.404 321.92H396.043V319.029ZM396.043 313.943C397.142 314.275 398.112 315.671 398.725 317.636C397.888 317.854 396.987 317.987 396.043 318.025V313.943ZM402.032 316.107C401.372 316.6 400.582 317.02 399.695 317.339C399.158 315.64 398.355 314.31 397.398 313.555C399.196 313.928 400.8 314.837 402.032 316.107ZM404.588 321.92H400.415C400.38 320.625 400.219 319.402 399.96 318.3C400.993 317.933 401.912 317.44 402.68 316.85C403.789 318.265 404.484 320.015 404.588 321.92ZM395.035 318.025C394.091 317.987 393.19 317.854 392.35 317.636C392.963 315.671 393.936 314.275 395.035 313.943V318.025ZM395.035 321.92H391.674C391.706 320.742 391.854 319.617 392.091 318.603C393.013 318.843 393.999 318.995 395.035 319.029V321.92ZM395.035 325.929C394.008 325.967 393.029 326.115 392.113 326.352C391.864 325.309 391.706 324.15 391.674 322.928H395.035V325.929ZM395.035 330.907C393.955 330.582 392.998 329.223 392.385 327.312C393.209 327.104 394.103 326.974 395.035 326.94V330.907ZM389.096 328.797C389.753 328.32 390.534 327.913 391.415 327.603C391.949 329.261 392.739 330.553 393.68 331.299C391.905 330.929 390.322 330.039 389.096 328.797ZM386.487 322.928H390.666C390.698 324.264 390.865 325.521 391.143 326.646C390.12 327.003 389.207 327.486 388.442 328.058C387.308 326.633 386.597 324.864 386.487 322.928ZM388.395 316.85C389.163 317.44 390.085 317.933 391.118 318.303C390.856 319.402 390.695 320.625 390.666 321.92H386.487C386.594 320.015 387.289 318.265 388.395 316.85ZM393.68 313.555C392.72 314.31 391.917 315.64 391.383 317.339C390.492 317.02 389.703 316.6 389.043 316.107C390.281 314.837 391.879 313.928 393.68 313.555ZM395.541 312.057C389.81 312.057 385.17 316.698 385.17 322.425C385.17 328.153 389.81 332.793 395.541 332.793C401.265 332.793 405.908 328.153 405.908 322.425C405.908 316.698 401.265 312.057 395.541 312.057Z" fill="white"/>
<path d="M445.804 322.425C445.804 330.452 439.296 336.96 431.269 336.96C423.242 336.96 416.738 330.452 416.738 322.425C416.738 314.398 423.242 307.894 431.269 307.894C439.296 307.894 445.804 314.398 445.804 322.425Z" fill="#FF512F"/>
<path d="M431.269 326.197C429.184 326.197 427.494 324.51 427.494 322.425C427.494 320.34 429.184 318.65 431.269 318.65C433.351 318.65 435.044 320.34 435.044 322.425C435.044 324.51 433.351 326.197 431.269 326.197ZM439.827 320.454H438.023C437.878 319.958 437.682 319.484 437.439 319.042L438.715 317.769C439.066 317.415 439.066 316.846 438.715 316.493L437.202 314.979C436.851 314.629 436.279 314.629 435.929 314.979L434.656 316.256C434.21 316.009 433.733 315.817 433.24 315.671V313.867C433.24 313.368 432.836 312.964 432.34 312.964H430.198C429.702 312.964 429.298 313.368 429.298 313.867V315.671C428.802 315.817 428.331 316.009 427.886 316.256L426.613 314.979C426.259 314.629 425.69 314.629 425.337 314.979L423.827 316.493C423.47 316.846 423.47 317.415 423.827 317.769L425.097 319.042C424.853 319.484 424.661 319.958 424.518 320.454H422.712C422.212 320.454 421.811 320.858 421.811 321.354V323.493C421.811 323.992 422.212 324.396 422.712 324.396H424.518C424.661 324.889 424.853 325.366 425.097 325.809L423.827 327.085C423.47 327.435 423.47 328.004 423.827 328.358L425.337 329.871C425.69 330.222 426.259 330.222 426.613 329.871L427.886 328.595C428.331 328.838 428.802 329.034 429.298 329.179V330.983C429.298 331.482 429.702 331.883 430.198 331.883H432.34C432.836 331.883 433.24 331.482 433.24 330.983V329.179C433.733 329.034 434.21 328.838 434.656 328.595L435.929 329.871C436.279 330.222 436.851 330.222 437.202 329.871L438.715 328.358C439.066 328.004 439.066 327.435 438.715 327.085L437.439 325.809C437.682 325.366 437.878 324.889 438.023 324.396H439.827C440.323 324.396 440.727 323.992 440.727 323.493V321.354C440.727 320.858 440.323 320.454 439.827 320.454Z" fill="white"/>
<path d="M462.502 316.186H456.45V310.134H462.502V316.186Z" fill="#302F31"/>
<path d="M472.327 316.186H466.277V310.134H472.327V316.186Z" fill="#302F31"/>
<path d="M462.502 325.452H456.45V319.399H462.502V325.452Z" fill="#302F31"/>
<path d="M472.327 325.452H466.277V319.399H472.327V325.452Z" fill="#FF512F"/>
<path d="M462.502 334.717H456.45V328.667H462.502V334.717Z" fill="#FF512F"/>
<path d="M472.327 334.717H466.277V328.667H472.327V334.717Z" fill="#FF512F"/>
<path d="M680.876 364.26C680.876 364.26 654.223 385.653 631.377 378.049C608.531 370.442 599.667 327.379 599.667 327.379C599.667 327.379 604.782 318.581 599.667 315.548C599.667 315.548 600.691 308.27 595.576 307.663C590.462 307.057 570.342 313.122 590.8 328.892C590.8 328.892 596.597 406.534 640.586 409.264C684.572 411.996 684.022 400.908 684.022 400.908L680.876 364.26Z" fill="#FF5B39"/>
<path d="M599.667 327.378C599.667 327.378 600.766 325.474 601.433 323.139L601.436 323.136C606.153 321.689 603.692 309.644 601.616 307.622C600.081 306.125 597.926 307.142 596.906 307.771C595.876 305.755 590.307 295.185 587.233 296.155C584.965 296.872 587.249 304.081 589.012 308.775C582.4 311.189 576.038 317.513 590.8 328.892C590.8 328.892 591.432 337.339 593.854 348.759C597.69 347.937 601.439 346.769 605.082 345.255C601.335 335.469 599.667 327.378 599.667 327.378Z" fill="#F5F1D4"/>
<path d="M732.4 444.18L713.193 468.568L717.391 473.392L742.676 453.149L732.4 444.18Z" fill="#F5F1D4"/>
<path d="M694.166 358.179C694.166 358.179 725.162 361.37 732.131 371.551C739.103 381.736 764.264 409.071 761.614 429.977C758.96 450.881 747.139 457.044 747.139 457.044L732.399 444.18C732.399 444.18 742.047 436.409 740.439 428.635C738.834 420.864 717.391 400.229 717.391 400.229L700.509 366.462L694.166 358.179Z" fill="#FF5B39"/>
<path d="M761.807 657.483C761.807 657.483 721.179 663.255 671.054 663.255C620.933 663.255 580.305 657.483 580.305 657.483C580.305 657.483 620.933 651.706 671.054 651.706C721.179 651.706 761.807 657.483 761.807 657.483Z" fill="#01999A"/>
<path d="M709.531 643.672L710.337 648.588L711.449 655.275L683.406 662.247C681.82 662.642 680.582 660.845 681.542 659.521C682.878 657.679 684.818 655.8 686.887 654.072C691.853 649.946 697.571 646.645 697.571 646.645L709.531 643.672Z" fill="white"/>
<path d="M661.037 643.672L660.721 648.645L660.301 655.408L631.412 655.92C629.779 655.948 628.976 653.92 630.208 652.843C631.921 651.346 634.233 649.952 636.64 648.73C642.405 645.824 648.714 643.89 648.714 643.89L661.037 643.672Z" fill="white"/>
<path d="M714.194 470.214C714.194 470.214 710.64 514.402 700.951 553.725L710.823 645.672L695.341 647.251C695.341 647.251 679.356 586.886 674.725 572.705C669.519 556.783 674.725 517.409 674.725 517.409C674.725 517.409 661.037 547.603 661.037 562.135C661.037 576.669 662.655 643.953 662.655 643.953C662.655 643.953 652.334 646.822 647.172 643.953C642.014 641.085 638.002 554.294 638.002 554.294L658.068 460.196C658.068 460.196 684.948 467.348 714.194 470.214Z" fill="#161516"/>
<path d="M721.396 473.483C722.199 464.177 725.067 402.203 721.216 388.31C712.618 357.269 694.166 358.179 694.166 358.179C688.521 371.301 676.687 362.428 676.687 362.428C676.687 362.428 655.913 375.02 662.794 409.425C667.235 431.629 658.226 451.967 651.279 463.605C671.693 477.761 698.181 481.194 721.396 473.483Z" fill="#FF5B39"/>
<path d="M675.363 363.448C675.363 363.448 667.905 367.903 667.861 371.87C667.813 375.841 672.814 382.093 672.814 382.093L680.14 373.696L687.232 383.881C687.232 383.881 710.037 366.377 695.038 356.767C680.039 347.157 675.363 363.448 675.363 363.448Z" fill="white"/>
<path d="M661.637 327.979C661.637 327.979 656.059 358.975 673.029 358.656C690.002 358.337 696.301 346.137 695.11 338.808C693.919 331.479 692.934 316.916 678.383 315.137C663.833 313.362 661.637 327.979 661.637 327.979Z" fill="#F5F1D4"/>
<path d="M710.046 321.105C708.925 318.887 706.821 317.377 704.745 316.006L704.774 315.949C704.824 314.544 704.556 313.125 704 311.833C703.415 310.478 702.521 309.278 701.533 308.181C701.779 309.853 701.915 311.903 701.539 313.549C700.803 311.821 700.038 310.042 698.696 308.728C697.764 307.818 696.598 307.183 695.42 306.627C690.053 304.103 683.984 303.089 678.086 303.733C676.738 303.882 675.395 304.109 674.043 304.04C672.691 303.967 671.301 303.553 670.347 302.593C671.026 304.356 672.087 306.46 673.572 307.622C660.977 311.966 662.806 324.109 662.806 324.109C666.91 322.523 671.181 324.589 671.181 324.589C670.72 335.937 691.755 341.319 691.755 341.319C694.87 338.344 699.157 340.119 699.157 340.119C701.662 341.841 701.659 343.929 701.659 343.929C706.426 340.489 707.579 323.171 707.579 323.171C708.802 322.839 710.135 322.931 711.3 323.424C710.754 322.732 710.441 321.892 710.046 321.105Z" fill="#161516"/>
<path d="M690.59 345.726C691.083 348.781 693.964 350.86 697.022 350.36C700.08 349.864 702.155 346.983 701.659 343.929C701.163 340.871 698.282 338.795 695.224 339.291C692.166 339.787 690.094 342.668 690.59 345.726Z" fill="#F5F1D4"/>
<path d="M693.897 344.08L694.579 348.279C694.579 348.279 694.668 349.043 694.76 350.272C694.895 351.886 695.056 354.3 695.038 356.767C695.019 360.593 694.611 364.563 693.136 365.931C689.986 368.857 678.004 369.422 676.324 368.661C675.796 368.421 675.509 366.272 675.363 363.448C675.291 361.938 675.249 360.248 675.24 358.542H675.249C675.212 353.374 675.414 348.184 675.414 348.184L693.897 344.08Z" fill="#F5F1D4"/>
<path d="M694.76 350.272C694.895 351.886 695.056 354.3 695.038 356.767C690.305 358.953 680.718 363.091 675.363 363.448C675.291 361.938 675.249 360.248 675.24 358.542H675.249C675.79 358.432 692.656 354.97 694.76 350.272Z" fill="#EAE1B3"/>
<path d="M744.77 223.14H681.615C678.172 223.14 675.379 225.924 675.379 229.367V274.481C675.379 277.924 678.172 280.707 681.615 280.707H685.014V296.319L700.626 280.707H744.77C748.214 280.707 751.006 277.924 751.006 274.481V229.367C751.006 225.924 748.214 223.14 744.77 223.14Z" fill="#015656"/>
<path d="M742.233 237.182H684.155V232.027H742.233V237.182Z" fill="white"/>
<path d="M742.233 248.728H684.155V243.573H742.233V248.728Z" fill="white"/>
<path d="M742.233 260.275H684.155V255.119H742.233V260.275Z" fill="white"/>
<path d="M715.382 271.824H684.155V266.669H715.382V271.824Z" fill="white"/>
<path d="M397.578 578.505H325.413C322.611 578.505 320.337 576.233 320.337 573.428C320.337 570.623 322.611 568.355 325.413 568.355H397.578C400.383 568.355 402.658 570.623 402.658 573.428C402.658 576.233 400.383 578.505 397.578 578.505Z" fill="#302F31"/>
<path d="M366.323 636.021H356.517V586.472H366.323V636.021Z" fill="#EAE1B3"/>
<path d="M368.999 597.8H353.99V578.505H368.999V597.8Z" fill="#F5F1D4"/>
<path d="M391.089 639.932H331.902V633.712H391.089V639.932Z" fill="#302F31"/>
<path d="M340.577 645.277C340.577 648.228 338.182 650.622 335.232 650.622C332.281 650.622 329.887 648.228 329.887 645.277C329.887 642.326 332.281 639.932 335.232 639.932C338.182 639.932 340.577 642.326 340.577 645.277Z" fill="#EAE1B3"/>
<path d="M393.105 645.277C393.105 648.228 390.71 650.622 387.76 650.622C384.809 650.622 382.415 648.228 382.415 645.277C382.415 642.326 384.809 639.932 387.76 639.932C390.71 639.932 393.105 642.326 393.105 645.277Z" fill="#EAE1B3"/>
<path d="M430.097 558.376C429.383 543.37 390.793 539.794 390.793 539.794C389.096 539.794 372.843 539.895 359.881 539.974C346.92 539.895 330.667 539.794 328.971 539.794C328.971 539.794 290.383 543.37 289.666 558.376C288.949 573.384 309.321 651.579 309.321 651.579H326.112C326.112 651.579 327.543 573.384 323.256 570.525C323.256 570.525 343.966 570.184 359.881 568.803C375.797 570.184 396.507 570.525 396.507 570.525C392.22 573.384 393.648 651.579 393.648 651.579H410.442C410.442 651.579 430.814 573.384 430.097 558.376Z" fill="#161516"/>
<path d="M324.153 651.582L323.777 656.131L323.67 657.483L323.284 662.304H296.847C295.359 662.304 294.651 660.44 295.795 659.474C296.174 659.164 296.578 658.851 297.008 658.545C298.404 657.556 300.053 656.634 301.746 655.809C307.075 653.247 312.875 651.582 312.875 651.582H324.153Z" fill="#302F31"/>
<path d="M323.67 657.483L323.284 662.304H296.847C295.359 662.304 294.651 660.44 295.795 659.474C296.174 659.164 296.578 658.851 297.008 658.545C302.883 658.864 312.038 658.908 323.67 657.483Z" fill="white"/>
<path d="M397.136 651.582L397.509 656.131L397.616 657.483L398.002 662.304H424.436C425.927 662.304 426.635 660.44 425.488 659.474C425.112 659.164 424.705 658.851 424.275 658.545C422.882 657.556 421.23 656.634 419.537 655.809C414.21 653.247 408.411 651.582 408.411 651.582H397.136Z" fill="#302F31"/>
<path d="M397.616 657.483L398.002 662.304H424.436C425.927 662.304 426.635 660.44 425.488 659.474C425.112 659.164 424.705 658.851 424.275 658.545C418.402 658.864 409.248 658.908 397.616 657.483Z" fill="white"/>
<path d="M397.616 539.955L397.013 540.237C371.996 552.266 342.965 552.734 317.57 541.544C317.57 541.544 319.481 513.331 325.224 479.659C327.754 464.821 331.046 448.935 335.235 433.917L335.27 433.904L335.32 433.882C336.233 433.531 337.156 433.2 338.088 432.887C350 428.932 362.861 428.922 374.764 432.833C375.768 433.168 376.763 433.531 377.765 433.917C391.503 482.979 397.616 539.955 397.616 539.955Z" fill="#FF5B39"/>
<path d="M335.27 433.904L335.235 433.917C331.046 448.935 327.754 464.821 325.224 479.659C318.909 484.354 310.986 491.054 309.691 496.092C308.971 498.86 311.931 501.172 316.262 503.049L312.294 516.996H303.332C303.332 516.996 284.529 511.259 285.604 495.739C286.674 480.215 316.132 446.78 320.334 440.885C322.403 437.989 329.053 435.588 335.27 433.904Z" fill="#F54725"/>
<path d="M340.577 516.996V508.969C340.577 508.969 325.373 506.991 316.262 503.045L312.294 516.996H340.577Z" fill="#F5F1D4"/>
<path d="M377.43 433.904L377.765 433.917C381.954 448.935 384.945 464.821 387.476 479.659C393.791 484.354 401.714 491.054 403.009 496.092C403.726 498.86 400.769 501.172 396.438 503.049L400.406 516.996H409.368C409.368 516.996 428.17 511.259 427.096 495.739C426.025 480.215 396.568 446.78 392.366 440.885C390.297 437.989 383.647 435.588 377.43 433.904Z" fill="#F54725"/>
<path d="M372.123 516.996V508.969C372.123 508.969 387.327 506.991 396.438 503.045L400.406 516.996H372.123Z" fill="#F5F1D4"/>
<path d="M397.136 516.996H322.63V468.154H397.136V516.996Z" fill="#302F31"/>
<path d="M374.764 432.833C373.936 437.925 370.657 447.851 357.598 447.851C344.573 447.851 339.718 437.989 338.088 432.887C339.225 432.514 340.372 432.17 341.528 431.869C351.447 429.232 361.884 429.263 371.782 431.945C372.78 432.211 373.775 432.514 374.764 432.833Z" fill="#F5F1D4"/>
<path d="M371.782 431.945C368.253 435.749 362.197 440.98 355.541 441.151C347.789 441.346 343.328 435.139 341.528 431.869C351.447 429.232 361.884 429.263 371.782 431.945Z" fill="#EAE1B3"/>
<path d="M375.165 414.526C375.165 427.677 366.73 438.339 356.318 438.339C345.909 438.339 337.468 427.677 337.468 414.526C337.468 401.379 345.909 390.717 356.318 390.717C366.73 390.717 375.165 401.379 375.165 414.526Z" fill="#F5F1D4"/>
<path d="M343.768 418.996C343.768 422.102 341.247 424.623 338.145 424.623C335.036 424.623 332.518 422.102 332.518 418.996C332.518 415.891 335.036 413.373 338.145 413.373C341.247 413.373 343.768 415.891 343.768 418.996Z" fill="#F5F1D4"/>
<path d="M380.791 418.996C380.791 422.102 378.274 424.623 375.165 424.623C372.06 424.623 369.542 422.102 369.542 418.996C369.542 415.891 372.06 413.373 375.165 413.373C378.274 413.373 380.791 415.891 380.791 418.996Z" fill="#F5F1D4"/>
<path d="M377.247 413.772C377.007 415.56 373.962 415.692 374.394 417.442C373.895 415.983 372.982 413.901 371.851 412.852C371.826 408.679 368.623 404.737 364.544 403.858C361.584 403.224 358.511 404.064 355.488 403.912C351.937 403.729 348.478 402.112 346.071 399.499C341.872 404.68 338.691 411.194 338.571 417.859C338.031 416.157 336.745 415.003 335.128 414.252C335.128 414.252 330.5 398.902 336.666 395.775C336.666 395.775 334.076 388.18 344.257 386.752C354.442 385.321 372.221 390.057 375.165 383.356C375.165 383.356 379.275 394.255 375.165 396.845C375.165 396.845 379.502 396.748 377.247 413.772Z" fill="#985733"/>
<path d="M123.221 410.041C123.227 407.813 123.104 405.533 122.949 403.204C122.488 396.349 124.323 390.613 127.65 385.599C127.529 385.966 127.416 386.335 127.308 386.705C125.132 394.271 125.571 402.727 123.221 410.041ZM167.82 412.587C168.161 405.144 172.7 398.099 171.715 390.714C169.942 377.449 150.805 369.078 138.987 372.868C134.748 374.23 131.668 377.367 129.589 381.132C126.143 384.955 123.464 389.456 122.175 394.435C120.933 399.227 121.701 404.029 121.903 408.894C121.973 410.574 121.891 412.192 121.692 413.762C120.943 415.228 120.043 416.63 118.896 417.935C116.839 420.282 114.148 421.985 111.968 424.212C109.194 427.046 107.334 430.641 105.786 434.292C103.571 439.508 101.907 445.393 103.673 450.773C105.423 456.105 110.212 459.868 115.184 462.468C124.544 467.367 135.446 469.269 145.912 467.819C152.388 466.922 158.905 464.641 163.542 460.029C168.088 455.505 170.423 449.108 171.026 442.724C171.626 436.343 170.634 429.914 169.307 423.64C168.537 419.991 167.649 416.311 167.82 412.587Z" fill="#F7B40A"/>
<path d="M91.7727 587.338C76.2714 585.581 65.9857 579.348 61.2092 568.807C47.398 538.341 85.5653 482.806 87.1953 480.458L91.5958 483.513C91.2167 484.063 53.5265 538.894 66.0899 566.595C70.0355 575.298 78.8807 580.482 92.3761 582.008L91.7727 587.338Z" fill="#F5F1D4"/>
<path d="M128.882 515.315H86.1275C78.568 515.315 72.4395 509.187 72.4395 501.627V472.561C72.4395 465.001 78.568 458.873 86.1275 458.873H128.882V515.315Z" fill="#302F31"/>
<path d="M149.681 590.19H77.516C74.7108 590.19 72.4395 587.919 72.4395 585.113C72.4395 582.311 74.7108 580.04 77.516 580.04H149.681C152.483 580.04 154.754 582.311 154.754 585.113C154.754 587.919 152.483 590.19 149.681 590.19Z" fill="#302F31"/>
<path d="M114.312 579.576C114.312 579.576 151.807 581.291 163.599 579.576L152.344 651.62H166.982C166.982 651.62 198.44 564.997 187.721 554.281C177 543.56 143.233 544.738 143.233 544.738L112.145 560.713L114.312 579.576Z" fill="#161516"/>
<path d="M154.754 651.579L155.127 656.125L155.616 662.307H182.057C183.551 662.307 184.25 660.437 183.109 659.471C181.517 658.134 179.378 656.893 177.158 655.812C171.835 653.247 166.032 651.579 166.032 651.579H154.754Z" fill="#302F31"/>
<path d="M154.754 651.579L155.127 656.125C156.839 657.054 158.712 657.689 160.626 658.093C163.675 658.738 166.818 658.807 169.942 658.775C172.735 658.757 175.603 658.046 177.158 655.812C171.835 653.247 166.032 651.579 166.032 651.579H154.754Z" fill="#F5F1D4"/>
<path d="M161.135 420.124C161.135 420.124 169.14 423.495 172.713 439.221C176.286 454.94 179.145 492.82 179.145 492.82L205.563 501.485L205.943 513.543L152.344 516.187L153.775 469.591L161.135 420.124Z" fill="#F54725"/>
<path d="M229.398 631.658L231.089 635.892L233.379 641.654L258.645 633.873C260.076 633.431 260.193 631.437 258.815 630.853C256.901 630.041 254.491 629.485 252.052 629.106C246.211 628.221 240.174 628.338 240.174 628.338L229.398 631.658Z" fill="#302F31"/>
<path d="M229.398 631.658L231.089 635.892C233 636.274 234.977 636.327 236.926 636.154C240.025 635.873 243.049 635.01 246.031 634.066C248.691 633.222 251.224 631.7 252.052 629.106C246.211 628.221 240.174 628.338 240.174 628.338L229.398 631.658Z" fill="#F5F1D4"/>
<path d="M93.2414 531.505C93.2414 531.505 83.916 571.078 106.784 578.397C129.652 585.72 194.377 557.614 194.377 557.614L226.884 632.375L242.609 628.089C242.609 628.089 224.025 532.829 211.875 531.505C199.726 530.181 161.135 531.505 161.135 531.505H93.2414Z" fill="#201F20"/>
<path d="M161.135 531.499L155.196 532.573L138.248 535.646L88.0575 544.738C88.0575 544.738 108.961 487.304 110.3 479.776C111.643 472.251 111.823 451.572 110.395 441.486C108.961 431.396 124.825 420.118 124.825 420.118H161.135L161.423 420.462C180.225 442.503 161.135 531.499 161.135 531.499Z" fill="#FF5B39"/>
<path d="M155.196 532.573L138.248 535.646C149.28 461.605 131.709 420.118 131.709 420.118H161.135L161.423 420.462C172.271 434.324 157.938 517.315 155.196 532.573Z" fill="#983333"/>
<path d="M131.709 420.124C131.709 420.124 142.247 436.349 153.686 432.773C165.119 429.2 161.135 420.124 161.135 420.124H131.709Z" fill="#F5F1D4"/>
<path d="M217.735 510.905C215.079 508.561 209.74 502.003 205.564 501.485C203.542 501.235 190.738 506.362 190.738 506.362C190.738 506.362 168.704 505.383 148.3 503.965L147.248 516.266C161.6 516.054 177.989 515.691 191.598 515.189C201.713 517.965 212.106 515.565 217.069 514.02C218.437 513.603 218.794 511.856 217.735 510.905Z" fill="#F5F1D4"/>
<path d="M124.828 420.124C124.828 420.124 106.604 425.997 102.674 447.437C98.7444 468.874 100.889 518.901 107.321 522.477C113.753 526.049 152.343 520.692 152.343 520.692V503.181L126.522 501.753C126.522 501.753 141.265 433.187 124.828 420.124Z" fill="#F54725"/>
<path d="M118.422 647.706H108.616V598.157H118.422V647.706Z" fill="#EAE1B3"/>
<path d="M121.101 609.485H106.092V590.19H121.101V609.485Z" fill="#F5F1D4"/>
<path d="M143.192 651.62H84.0046V645.397H143.192V651.62Z" fill="#302F31"/>
<path d="M92.6793 656.965C92.6793 659.916 90.2847 662.307 87.3342 662.307C84.3836 662.307 81.9891 659.916 81.9891 656.965C81.9891 654.012 84.3836 651.62 87.3342 651.62C90.2847 651.62 92.6793 654.012 92.6793 656.965Z" fill="#EAE1B3"/>
<path d="M145.207 656.965C145.207 659.916 142.813 662.307 139.862 662.307C136.912 662.307 134.517 659.916 134.517 656.965C134.517 654.012 136.912 651.62 139.862 651.62C142.813 651.62 145.207 654.012 145.207 656.965Z" fill="#EAE1B3"/>
<path d="M514.838 524.824H157.325V516.996H514.838V524.824Z" fill="#034F50"/>
<path d="M504.922 533.612H167.245V524.824H504.922V533.612Z" fill="#003132"/>
<path d="M182.351 669.219L196.633 533.612H185.911L175.708 669.219H182.351Z" fill="#302F31"/>
<path d="M496.459 669.219L486.252 533.612H475.533L489.815 669.219H496.459Z" fill="#302F31"/>
<path d="M216.639 516.996H174.586V511.717H216.639V516.996Z" fill="#302F31"/>
<path d="M269.654 516.996H202.221L212.949 468.154H280.385L269.654 516.996Z" fill="#302F31"/>
<path d="M166.547 392.736C166.547 392.736 170.647 418.766 156.46 418.191C142.27 417.616 137.221 407.292 138.352 401.186C139.48 395.076 140.567 382.914 152.773 381.688C164.977 380.469 166.547 392.736 166.547 392.736Z" fill="#F5F1D4"/>
<path d="M142.007 407.055C141.537 409.602 139.088 411.285 136.539 410.815C133.993 410.344 132.309 407.896 132.78 405.35C133.251 402.8 135.699 401.116 138.245 401.587C140.794 402.058 142.478 404.506 142.007 407.055Z" fill="#F5F1D4"/>
<path d="M134.941 402.206C134.941 402.206 138.561 400.801 141.11 403.347C141.11 403.347 158.804 399.227 158.627 389.728C158.627 389.728 162.238 388.076 165.637 389.479C165.637 389.479 162.512 373.775 142.393 379.139C122.279 384.503 132.78 405.349 132.78 405.349C132.78 405.349 132.815 403.603 134.941 402.206Z" fill="#F6B40A"/>
<path d="M139.272 405.618L138.624 409.118C138.624 409.118 138.536 409.756 138.431 410.78C138.292 412.132 138.112 414.147 138.084 416.21C138.03 419.41 138.299 422.74 139.509 423.909C142.09 426.417 152.104 427.106 153.522 426.496C153.967 426.306 154.249 424.518 154.422 422.155C154.508 420.895 154.574 419.483 154.615 418.055H154.606C154.729 413.734 154.653 409.387 154.653 409.387L139.272 405.618Z" fill="#F5F1D4"/>
<path d="M138.431 410.78C138.292 412.132 138.112 414.147 138.084 416.21C142.001 418.125 149.949 421.757 154.422 422.155C154.508 420.895 154.574 419.483 154.615 418.055H154.606C154.157 417.948 140.109 414.751 138.431 410.78Z" fill="#EAE1B3"/>
<path d="M232.712 296.234H169.557C166.114 296.234 163.321 299.014 163.321 302.46V347.574C163.321 351.014 166.114 353.798 169.557 353.798H172.956V369.409L188.568 353.798H232.712C236.155 353.798 238.948 351.014 238.948 347.574V302.46C238.948 299.014 236.155 296.234 232.712 296.234Z" fill="#015656"/>
<path d="M230.169 309.42L213.711 314.067L218.301 318.537L209.759 327.312L192.662 314.796L173.032 335.501L176.14 338.451L193.174 320.486L210.233 332.973L221.378 321.528L225.968 325.998L230.169 309.42Z" fill="white"/>
<path d="M316.704 243.573C316.704 260.774 302.76 274.721 285.56 274.721C268.359 274.721 254.415 260.774 254.415 243.573C254.415 226.372 268.359 212.428 285.56 212.428C302.76 212.428 316.704 226.372 316.704 243.573Z" fill="white"/>
<path d="M294.244 220.44C292.383 219.741 290.437 219.271 288.459 219.037L288.709 216.908C290.86 217.16 292.977 217.672 294.999 218.434L294.244 220.44ZM276.73 220.493L275.962 218.49C277.984 217.72 280.097 217.192 282.242 216.93L282.505 219.053C280.53 219.299 278.587 219.782 276.73 220.493ZM303.992 227.124C302.666 225.639 301.165 224.316 299.526 223.191L300.739 221.422C302.517 222.644 304.15 224.082 305.594 225.696L303.992 227.124ZM267.025 227.235L265.418 225.819C266.849 224.196 268.475 222.749 270.251 221.514L271.473 223.273C269.84 224.41 268.343 225.744 267.025 227.235ZM309.527 237.568C309.047 235.638 308.33 233.771 307.395 232.011L309.29 231.006C310.304 232.918 311.084 234.952 311.606 237.046L309.527 237.568ZM261.554 237.71L259.469 237.204C259.981 235.107 260.749 233.066 261.75 231.149L263.652 232.14C262.729 233.906 262.022 235.783 261.554 237.71ZM311.634 249.995L309.552 249.484C310.023 247.56 310.266 245.573 310.266 243.573L312.408 243.469V243.573C312.408 245.743 312.146 247.904 311.634 249.995ZM259.494 250.046C258.976 247.958 258.714 245.797 258.708 243.627L260.853 243.624C260.859 245.623 261.099 247.61 261.576 249.531L259.494 250.046ZM305.66 261.371L304.059 259.949C305.382 258.458 306.52 256.809 307.442 255.05L309.344 256.048C308.336 257.959 307.101 259.75 305.66 261.371ZM265.487 261.409C264.05 259.788 262.808 258.003 261.8 256.095L263.696 255.094C264.625 256.85 265.765 258.493 267.092 259.984L265.487 261.409ZM295.103 268.678L294.342 266.675C296.193 265.97 297.968 265.035 299.604 263.901L300.824 265.664C299.045 266.896 297.118 267.91 295.103 268.678ZM276.067 268.697C274.048 267.935 272.118 266.924 270.336 265.692L271.552 263.93C273.192 265.061 274.97 265.989 276.828 266.691L276.067 268.697ZM285.559 270.422C284.489 270.422 283.411 270.358 282.356 270.235L282.609 268.103C284.574 268.34 286.605 268.337 288.56 268.096L288.82 270.229C287.749 270.358 286.649 270.422 285.559 270.422Z" fill="#015656"/>
<path d="M292.37 257.805L283.443 248.877V227.124H287.733V247.102L295.4 254.775L292.37 257.805Z" fill="#015656"/>
<path d="M333.665 342.946V357.241L326.263 364.522H312.089V342.946H333.665Z" fill="#F5F1D4"/>
<path d="M333.665 357.241L326.263 364.522V357.241H333.665Z" fill="#EAE1B3"/>
<path d="M302.703 322.034V343.61H281.127V322.034H302.703Z" fill="white"/>
<path d="M521.415 187.744C521.415 197.969 513.126 206.259 502.903 206.259C492.677 206.259 484.388 197.969 484.388 187.744C484.388 177.518 492.677 169.229 502.903 169.229C513.126 169.229 521.415 177.518 521.415 187.744Z" fill="#FF512F"/>
<path d="M611.955 722.97C611.955 733.196 603.666 741.485 593.44 741.485C583.218 741.485 574.929 733.196 574.929 722.97C574.929 712.744 583.218 704.455 593.44 704.455C603.666 704.455 611.955 712.744 611.955 722.97Z" fill="#FF512F"/>
<path d="M490.295 148.256C490.295 154.555 485.187 159.663 478.885 159.663C472.586 159.663 467.478 154.555 467.478 148.256C467.478 141.957 472.586 136.849 478.885 136.849C485.187 136.849 490.295 141.957 490.295 148.256Z" fill="#FF512F"/>
<path d="M563.923 694.15C563.923 700.452 558.815 705.557 552.516 705.557C546.216 705.557 541.108 700.452 541.108 694.15C541.108 687.851 546.216 682.746 552.516 682.746C558.815 682.746 563.923 687.851 563.923 694.15Z" fill="#FF512F"/>
<path d="M315.061 414.242L315.946 417.36L316.834 414.242C317.576 411.614 319.348 409.396 321.743 408.085C319.348 406.774 317.576 404.557 316.834 401.928L315.946 398.81L315.061 401.928C314.319 404.557 312.547 406.774 310.149 408.085C312.547 409.396 314.319 411.614 315.061 414.242Z" fill="white"/>
<path d="M306.87 426.888L307.552 429.295L308.238 426.888C308.816 424.853 310.181 423.138 312.035 422.124C310.181 421.107 308.816 419.391 308.238 417.36L307.552 414.95L306.87 417.36C306.295 419.391 304.924 421.107 303.073 422.124C304.924 423.138 306.295 424.853 306.87 426.888Z" fill="white"/>
<path d="M735.17 332.983L736.054 336.101L736.939 332.983C737.684 330.354 739.453 328.137 741.851 326.826C739.453 325.515 737.684 323.297 736.939 320.669L736.054 317.551L735.17 320.669C734.424 323.297 732.655 325.515 730.261 326.826C732.655 328.137 734.424 330.354 735.17 332.983Z" fill="white"/>
<path d="M726.978 345.625L727.661 348.038L728.343 345.625C728.921 343.594 730.289 341.878 732.143 340.864C730.289 339.85 728.921 338.135 728.343 336.101L727.661 333.69L726.978 336.101C726.4 338.135 725.032 339.85 723.178 340.864C725.032 341.878 726.4 343.594 726.978 345.625Z" fill="white"/>
<path d="M616.356 448.789L615.219 452.801L614.081 448.789C613.124 445.409 610.847 442.553 607.763 440.87C610.847 439.183 613.124 436.33 614.081 432.947L615.219 428.938L616.356 432.947C617.316 436.33 619.591 439.183 622.674 440.87C619.591 442.553 617.316 445.409 616.356 448.789Z" fill="white"/>
<path d="M626.894 465.055L626.016 468.154L625.135 465.055C624.396 462.436 622.633 460.231 620.248 458.927C622.633 457.622 624.396 455.417 625.135 452.801L626.016 449.699L626.894 452.801C627.634 455.417 629.396 457.622 631.781 458.927C629.396 460.231 627.634 462.436 626.894 465.055Z" fill="white"/>
<path d="M190.909 416.352L190.028 419.47L189.143 416.352C188.398 413.724 186.625 411.503 184.231 410.192C186.625 408.881 188.398 406.664 189.143 404.035L190.028 400.917L190.909 404.035C191.655 406.664 193.427 408.881 195.821 410.192C193.427 411.503 191.655 413.724 190.909 416.352Z" fill="#D62A92"/>
<path d="M199.103 428.992L198.418 431.405L197.732 428.992C197.161 426.96 195.79 425.245 193.935 424.231C195.79 423.217 197.161 421.502 197.732 419.47L198.418 417.057L199.103 419.47C199.682 421.502 201.046 423.217 202.901 424.231C201.046 425.245 199.682 426.96 199.103 428.992Z" fill="#D62A92"/>
</svg>
