<svg width="188" height="62" viewBox="0 0 188 62" fill="none" xmlns="http://www.w3.org/2000/svg">
<g clip-path="url(#clip0_26_1420)">
<path d="M8.23258 43.5671L10.111 39.4838H22.9441L24.8665 43.5671H33.0991L18.3435 12.3228H14.6235L0 43.5671H8.23258ZM16.5532 25.7028L19.7303 32.5787H13.3321L16.5532 25.7028ZM37.2887 43.5306H48.9112C57.562 43.5306 64.5913 36.538 64.5913 27.934C64.5913 19.3299 57.5694 12.3373 48.9112 12.3373H37.2887V43.5306ZM45.4846 20.6935H48.9552C53.0495 20.6935 56.3954 24.0184 56.3954 28.0506C56.3954 32.1266 53.0495 35.4516 48.9552 35.4516H45.4846V20.6935ZM90.8446 12.3301L82.5679 30.0923L74.3354 12.3301H66.0588L80.6896 43.5744H84.4537L99.0404 12.3301H90.8446Z" fill="#FF512F"/>
<path d="M116.555 26.7892V32.2725H122.615C121.317 34.1391 119.02 35.3495 116.555 35.3495C112.71 35.3495 109.159 32.236 109.159 27.9559C109.159 23.6539 112.629 20.5185 116.555 20.5185C118.69 20.5185 120.443 21.357 121.779 22.6112L127.59 16.8654C124.751 14.0801 120.862 12.3374 116.555 12.3374C107.904 12.3374 100.919 19.3154 100.919 27.9559C100.919 36.5526 107.904 43.538 116.555 43.538C125.205 43.538 132.235 36.5599 132.235 27.9559V26.7892H116.555ZM135.492 27.9923C135.492 36.6328 142.478 43.5744 151.129 43.5744C159.779 43.5744 166.809 36.6328 166.809 27.9923C166.809 19.3518 159.787 12.3301 151.129 12.3301C142.47 12.3301 135.492 19.3518 135.492 27.9923ZM158.613 27.9486C158.613 32.0392 155.267 35.4297 151.129 35.4297C147.034 35.4297 143.688 32.0464 143.688 27.9486C143.688 23.807 147.034 20.4675 151.129 20.4675C155.267 20.4748 158.613 23.807 158.613 27.9486Z" fill="#15ADAE"/>
<path d="M7.08734 49.5096H5.54648V53.1116C5.04754 52.3897 4.29178 52.0033 3.28656 52.0033C1.32013 52.0033 0.0654297 53.4397 0.0654297 55.7147C0.0654297 57.9969 1.3348 59.448 3.34525 59.448C4.40918 59.448 5.17961 59.0542 5.61985 58.2813V59.2511H7.09468V49.5096H7.08734ZM3.58005 53.2574C4.84943 53.2574 5.59051 54.1616 5.59051 55.7074C5.59051 57.2678 4.8641 58.1865 3.63142 58.1865C2.39873 58.1865 1.65031 57.2313 1.65031 55.6855C1.65031 54.1762 2.39139 53.2574 3.58005 53.2574ZM10.3818 49.4658H8.81163V50.9971H10.3818V49.4658ZM10.3818 52.1929H8.81163V59.2584H10.3818V52.1929ZM18.5997 52.1929H17.1396V53.1772C16.5746 52.3825 15.9583 52.0033 14.9237 52.0033C13.0086 52.0033 11.7539 53.4543 11.7539 55.6709C11.7539 57.822 12.9499 59.1855 14.8357 59.1855C15.8556 59.1855 16.5599 58.8282 17.0956 57.997V58.8282C17.0956 60.2792 16.5306 60.9063 15.2245 60.9063C14.234 60.9063 13.7204 60.5782 13.5736 59.849H12.0034C12.1795 61.2854 13.2581 62 15.1878 62C17.7486 62 18.6071 60.7532 18.6071 58.4272V52.1929H18.5997ZM15.2025 53.2574C16.3838 53.2574 17.1029 54.1178 17.1029 55.5543C17.1029 57.0345 16.3765 57.9605 15.2025 57.9605C14.0579 57.9605 13.3168 57.0563 13.3168 55.6345C13.3168 54.147 14.0139 53.2574 15.2025 53.2574ZM21.8649 49.4658H20.2947V50.9971H21.8649V49.4658ZM21.8649 52.1929H20.2947V59.2584H21.8649V52.1929ZM27.0451 52.1929H25.6143V50.071H24.0441V52.1929H22.8628V53.3303H24.0441V56.699C24.0441 58.3032 23.9194 59.324 25.9885 59.324C26.3847 59.324 26.5829 59.324 27.0525 59.2657V58.0334C26.8177 58.0626 26.6562 58.0626 26.4361 58.0626C25.607 58.0626 25.6217 57.7199 25.6217 57.049V53.3231H27.0525V52.1929H27.0451ZM28.0944 54.3657H29.5839C29.7086 53.447 30.1488 53.1043 31.1687 53.1043C32.1593 53.1043 32.6289 53.447 32.6289 54.1689C32.6289 54.4314 32.5995 54.5918 32.5335 54.672C32.3794 54.8762 32.0639 54.9491 30.978 55.0803C29.5618 55.2553 27.7935 55.4376 27.7935 57.3115C27.7935 58.6094 28.718 59.4188 30.1929 59.4188C31.1321 59.4188 32.0346 59.1855 32.6876 58.573C32.7977 59.1855 33.2379 59.4188 33.8469 59.4188C34.1477 59.4188 34.3679 59.3896 34.8668 59.2657V58.1719C34.676 58.2011 34.6173 58.2011 34.5073 58.2011C34.2211 58.2011 34.1331 58.0917 34.1331 57.6834V54.096C34.1331 52.5793 32.893 51.9595 31.2128 51.9595C29.4665 51.9741 28.2705 52.6304 28.0944 54.3657ZM32.6069 55.7074V56.5386C32.6069 56.9616 32.6216 57.4282 32.2914 57.7563C31.9318 58.1136 31.3302 58.3178 30.6771 58.3178C29.8627 58.3178 29.3931 57.9313 29.3931 57.2605C29.3931 56.3272 30.2222 56.1959 30.9486 56.0866C31.5209 56.0136 32.1006 55.9991 32.6069 55.7074ZM37.4276 49.5096H35.872V59.2511H37.4276V49.5096ZM44.4641 52.1929H42.9746V59.2584H44.5449V55.197C44.5449 54.1033 45.0658 53.3231 46.1664 53.3231C47.2157 53.3231 47.3404 53.9939 47.3404 54.8397V59.2584H48.9106V55.1095C48.9106 54.0012 49.4316 53.3158 50.4662 53.3158C51.5521 53.3158 51.7355 54.0522 51.7355 54.9199V59.2584H53.3057V54.2491C53.3057 52.7981 52.2712 52.0033 50.9798 52.0033C49.9892 52.0033 49.2335 52.4262 48.6832 53.2064C48.353 52.4262 47.6192 52.0033 46.7021 52.0033C45.7115 52.0033 45.0365 52.4262 44.4715 53.1918V52.1929H44.4641ZM54.8759 54.3657H56.3654C56.4902 53.447 56.9304 53.1043 57.9503 53.1043C58.9409 53.1043 59.4105 53.447 59.4105 54.1689C59.4105 54.4314 59.3811 54.5918 59.3151 54.672C59.161 54.8762 58.8455 54.9491 57.7595 55.0803C56.3434 55.2553 54.5751 55.4376 54.5751 57.3115C54.5751 58.6094 55.4996 59.4188 56.9744 59.4188C57.9136 59.4188 58.8161 59.1855 59.4692 58.573C59.5792 59.1855 60.0195 59.4188 60.6285 59.4188C60.9293 59.4188 61.1494 59.3896 61.6484 59.2657V58.1719C61.4576 58.2011 61.3989 58.2011 61.2888 58.2011C61.0027 58.2011 60.9146 58.0917 60.9146 57.6834V54.096C60.9146 52.5793 59.6746 51.9595 57.9943 51.9595C56.2554 51.9741 55.0594 52.6304 54.8759 54.3657ZM59.3958 55.7074V56.5386C59.3958 56.9616 59.4105 57.4282 59.0803 57.7563C58.7207 58.1136 58.1191 58.3178 57.466 58.3178C56.6516 58.3178 56.182 57.9313 56.182 57.2605C56.182 56.3272 57.0111 56.1959 57.7375 56.0866C58.3099 56.0136 58.8895 55.9991 59.3958 55.7074ZM66.6231 52.0543C66.4691 52.0397 66.4177 52.0252 66.3223 52.0252C65.1777 52.0252 64.4072 52.6304 63.9377 53.6001V52.1929H62.4628V59.2584H64.0184V56.1522C64.0184 54.672 64.5173 53.5126 66.0728 53.5126C66.2416 53.5126 66.3517 53.5272 66.6231 53.5564V52.0543ZM73.7625 52.1929H71.8327L68.9931 55.0001V49.5096H67.4669V59.2511H68.9931V56.7209L69.9323 55.8459L72.0969 59.2511H74.0119L71.0403 54.7741L73.7625 52.1929ZM81.2099 57.049H79.7058C79.3903 57.9532 78.8766 58.3324 78.0108 58.3324C76.8001 58.3324 76.0957 57.523 76.0517 56.1011H81.298V55.9334C81.298 53.4981 80.0066 51.9814 77.9228 51.9814C75.927 51.9814 74.4815 53.5856 74.4815 55.8022C74.4815 57.9094 75.7876 59.4844 77.9815 59.4844C79.5884 59.4844 80.8504 58.5949 81.2099 57.049ZM79.7351 55.0657H76.0884C76.2425 53.8189 76.8882 53.1481 77.9228 53.1481C78.95 53.1481 79.6397 53.8772 79.7351 55.0657ZM85.9792 52.1929H84.5485V50.071H82.9782V52.1929H81.7969V53.3303H82.9782V56.699C82.9782 58.3032 82.8535 59.324 84.9227 59.324C85.3189 59.324 85.517 59.324 85.9866 59.2657V58.0334C85.7518 58.0626 85.5904 58.0626 85.3703 58.0626C84.5411 58.0626 84.5558 57.7199 84.5558 57.049V53.3231H85.9866V52.1929H85.9792ZM88.7014 49.4658H87.1312V50.9971H88.7014V49.4658ZM88.7014 52.1929H87.1312V59.2584H88.7014V52.1929ZM91.9079 52.1929H90.4184V59.2584H91.9886V55.4522C91.9886 53.8262 92.7737 53.3012 93.7202 53.3012C94.9749 53.3012 95.0997 54.1762 95.0997 55.146V59.2511H96.6699V54.5408C96.6699 52.9366 95.8994 51.996 94.2632 51.996C93.1993 51.996 92.5022 52.3824 91.9079 53.2283V52.1929ZM104.829 52.1929H103.369V53.1772C102.804 52.3825 102.188 52.0033 101.153 52.0033C99.238 52.0033 97.9833 53.4543 97.9833 55.6709C97.9833 57.822 99.1793 59.1855 101.065 59.1855C102.085 59.1855 102.789 58.8282 103.325 57.997V58.8282C103.325 60.2792 102.76 60.9063 101.454 60.9063C100.463 60.9063 99.9497 60.5782 99.803 59.849H98.2327C98.4088 61.2854 99.4874 62 101.417 62C103.978 62 104.836 60.7532 104.836 58.4272V52.1929H104.829ZM101.425 53.2574C102.606 53.2574 103.325 54.1178 103.325 55.5543C103.325 57.0345 102.599 57.9605 101.425 57.9605C100.28 57.9605 99.5388 57.0563 99.5388 55.6345C99.5388 54.147 100.243 53.2574 101.425 53.2574ZM115.945 54.2418C115.945 52.6377 114.595 51.9814 112.974 51.9814C111.154 51.9814 110.068 52.7762 110.068 54.1178C110.068 55.6345 111.352 55.8386 112.974 56.2397C113.869 56.4584 114.669 56.5824 114.669 57.297C114.669 57.924 114.06 58.3251 113.142 58.3251C112.166 58.3251 111.506 57.9313 111.418 56.998H109.914C109.995 58.6094 111.095 59.4626 113.106 59.4626C115.006 59.4626 116.202 58.5584 116.202 57.1365C116.202 55.5761 114.691 55.2626 113.451 54.9709C112.306 54.7085 111.631 54.6574 111.631 53.9428C111.631 53.4251 112.1 53.1189 112.9 53.1189C113.737 53.1189 114.331 53.3814 114.441 54.2418H115.945ZM120.751 51.9887C118.55 51.9887 117.127 53.4543 117.127 55.722C117.127 58.0188 118.528 59.4698 120.751 59.4698C122.93 59.4698 124.303 58.0188 124.303 55.722C124.303 53.4397 122.923 51.9887 120.751 51.9887ZM120.722 53.221C121.962 53.221 122.718 54.1689 122.718 55.7147C122.718 57.3043 121.977 58.2594 120.737 58.2594C119.467 58.2594 118.711 57.3115 118.711 55.7293C118.711 54.1762 119.482 53.221 120.722 53.221ZM127.238 49.5096H125.682V59.2511H127.238V49.5096ZM135.184 52.1929H133.614V55.9261C133.614 57.0928 133.159 58.1282 131.904 58.1282C130.569 58.1282 130.51 57.2532 130.51 56.2251V52.1856H128.94V56.8668C128.94 58.5219 129.791 59.4407 131.361 59.4407C132.352 59.4407 133.093 59.0469 133.702 58.1938V59.2511H135.177V52.1929H135.184ZM140.32 52.1929H138.889V50.071H137.319V52.1929H136.138V53.3303H137.319V56.699C137.319 58.3032 137.194 59.324 139.264 59.324C139.66 59.324 139.858 59.324 140.328 59.2657V58.0334C140.093 58.0626 139.931 58.0626 139.711 58.0626C138.882 58.0626 138.897 57.7199 138.897 57.049V53.3231H140.328V52.1929H140.32ZM143.05 49.4658H141.479V50.9971H143.05V49.4658ZM143.05 52.1929H141.479V59.2584H143.05V52.1929ZM148.046 51.9887C145.845 51.9887 144.422 53.4543 144.422 55.722C144.422 58.0188 145.823 59.4698 148.046 59.4698C150.226 59.4698 151.598 58.0188 151.598 55.722C151.598 53.4397 150.226 51.9887 148.046 51.9887ZM148.017 53.221C149.257 53.221 150.013 54.1689 150.013 55.7147C150.013 57.3043 149.272 58.2594 148.032 58.2594C146.762 58.2594 146.007 57.3115 146.007 55.7293C146.007 54.1762 146.777 53.221 148.017 53.221ZM154.423 52.1929H152.933V59.2584H154.503V55.4522C154.503 53.8262 155.288 53.3012 156.235 53.3012C157.49 53.3012 157.614 54.1762 157.614 55.146V59.2511H159.185V54.5408C159.185 52.9366 158.414 51.996 156.778 51.996C155.714 51.996 155.017 52.3824 154.423 53.2283V52.1929ZM166.456 54.2418C166.456 52.6377 165.106 51.9814 163.484 51.9814C161.665 51.9814 160.579 52.7762 160.579 54.1178C160.579 55.6345 161.863 55.8386 163.484 56.2397C164.38 56.4584 165.179 56.5824 165.179 57.297C165.179 57.924 164.57 58.3251 163.653 58.3251C162.677 58.3251 162.017 57.9313 161.929 56.998H160.425C160.505 58.6094 161.606 59.4626 163.616 59.4626C165.517 59.4626 166.713 58.5584 166.713 57.1365C166.713 55.5761 165.201 55.2626 163.961 54.9709C162.817 54.7085 162.142 54.6574 162.142 53.9428C162.142 53.4251 162.611 53.1189 163.411 53.1189C164.247 53.1189 164.842 53.3814 164.952 54.2418H166.456Z" fill="#15ADAE"/>
<path d="M173.383 16.6833H169.465V12.7896H161.519V9.45735L167.396 0.481445H173.383C173.383 7.65634 173.383 10.799 173.383 16.6833ZM169.472 9.38443V3.73347L165.855 9.38443H169.472Z" fill="#F13F21"/>
<path d="M187.831 5.39575C187.831 7.15301 186.165 9.72694 182.841 13.1102H187.647V16.6758H175.078L181.836 8.84466C182.57 8.01342 183.069 7.35718 183.34 6.89052C183.612 6.41657 183.751 5.9572 183.751 5.51242C183.751 4.94367 183.575 4.44785 183.216 4.03223C182.856 3.61661 182.379 3.40516 181.77 3.40516C180.963 3.40516 180.383 3.78432 180.046 4.54264C179.848 4.98742 179.745 5.53429 179.745 6.16136H175.665C175.665 4.61555 176.076 3.29579 176.898 2.20205C177.999 0.73645 179.664 0 181.887 0C183.817 0 185.314 0.554165 186.385 1.66977C187.347 2.65413 187.831 3.90098 187.831 5.39575Z" fill="#F13F21"/>
</g>
<defs>
<clipPath id="clip0_26_1420">
<rect width="188" height="62" fill="white"/>
</clipPath>
</defs>
</svg>
