<svg width="512" height="512" viewBox="0 0 512 512" fill="none" xmlns="http://www.w3.org/2000/svg">
<path d="M60.88 350.63L70.4357 329.858H135.719L145.498 350.63H187.378L112.315 191.688H93.3912L19 350.63H60.88ZM103.208 259.753L119.37 294.731H86.8217L103.208 259.753Z" fill="#FF512F"/>
<path d="M281.678 263.563V291.457H312.505C305.902 300.953 294.217 307.11 281.678 307.11C262.118 307.11 244.053 291.272 244.053 269.498C244.053 247.614 261.706 231.663 281.678 231.663C292.539 231.663 301.456 235.929 308.253 242.309L337.814 213.08C323.372 198.911 303.588 190.045 281.678 190.045C237.669 190.045 202.136 225.543 202.136 269.498C202.136 313.231 237.669 348.766 281.678 348.766C325.681 348.766 361.443 313.268 361.443 269.498V263.563H281.678Z" fill="#15ADAE"/>
<path d="M420.189 213.87H400.258V194.062H359.836V177.111L389.733 131.449H420.189C420.189 167.949 420.189 183.936 420.189 213.87ZM400.294 176.74V147.993L381.894 176.74H400.294Z" fill="#F13F21"/>
<path d="M493.688 156.449C493.688 165.388 485.213 178.482 468.303 195.693H492.752V213.831H428.812L463.191 173.994C466.925 169.765 469.463 166.427 470.842 164.053C472.225 161.642 472.932 159.305 472.932 157.042C472.932 154.149 472.037 151.627 470.211 149.512C468.379 147.398 465.953 146.322 462.855 146.322C458.75 146.322 455.799 148.251 454.085 152.109C453.077 154.372 452.553 157.153 452.553 160.343H431.798C431.798 152.48 433.889 145.766 438.07 140.202C443.671 132.746 452.141 129 463.45 129C473.268 129 480.884 131.819 486.332 137.494C491.226 142.502 493.688 148.845 493.688 156.449Z" fill="#F13F21"/>
</svg>
