<svg width="640" height="470" viewBox="0 0 640 470" fill="none" xmlns="http://www.w3.org/2000/svg">
<g clip-path="url(#clip0_26_1016)">
<path opacity="0.5" d="M277.591 102.26C256.014 24.005 158.777 -1.20435 103.05 57.2816C102.25 58.1209 101.451 58.9754 100.652 59.8423C20.7605 146.664 58.5021 360.619 225.233 414.848C391.963 469.075 565.387 370.05 575.13 281.528C584.872 193.005 507.95 165.19 388.577 189.943C321.134 203.928 291.024 150.977 277.591 102.26Z" fill="#29C1C2"/>
<path opacity="0.5" d="M416.289 115.646C393.982 119.276 387.8 139.036 405.023 153.053C410.716 157.685 418.847 161.535 430.429 163.456C474.553 170.773 497.966 151.258 480.279 125.955C469.364 110.337 438.397 112.047 416.289 115.646Z" fill="#29C1C2"/>
<path opacity="0.5" d="M60.5966 273.766C46.7287 255.924 26.4164 259.957 22.3533 281.786C21.0096 289.001 21.522 297.98 25.3803 309.066C40.0776 351.296 68.4255 362.502 82.1795 334.865C90.6688 317.807 74.3414 291.446 60.5966 273.766Z" fill="#29C1C2"/>
<path opacity="0.5" d="M590.855 291.816C588.8 302.571 597.683 310.188 607.749 306.046C611.075 304.675 614.43 302.034 617.417 297.392C628.789 279.704 623.03 264.532 607.194 266.089C597.422 267.05 592.891 281.158 590.855 291.816Z" fill="#29C1C2"/>
<path opacity="0.5" d="M534.459 178.322C545.18 180.558 552.95 171.809 548.978 161.676C547.664 158.327 545.08 154.927 540.487 151.864C522.992 140.196 507.719 145.694 509.008 161.549C509.803 171.335 523.833 176.105 534.459 178.322Z" fill="#29C1C2"/>
<path opacity="0.5" d="M273.866 63.2299C282.355 70.1486 293.281 65.9562 294.418 55.1323C294.793 51.5556 294.064 47.3481 291.397 42.5152C281.237 24.1059 265.146 21.9621 258.991 36.6305C255.192 45.6847 265.454 56.3733 273.866 63.2299Z" fill="#29C1C2"/>
<path d="M617.436 345.618C634.46 328.509 647.424 309.175 634.528 306.161C621.619 303.142 599.939 336.837 596.161 367.506L592.38 377.632C595.524 355.33 587.88 328.164 576.688 327.043C565.568 325.932 572.299 343.553 581.131 358.622C587.854 370.095 589.627 379.145 590.07 383.82L572.212 431.644C577.089 396.312 564.98 353.445 547.272 351.674C529.626 349.91 540.306 377.871 554.321 401.781C564.913 419.851 567.763 434.142 568.491 441.61L564.931 451.145C566.489 452.023 568.051 452.888 569.616 453.747L590.861 396.851C594.96 393.792 601.183 390.096 610.043 387.099C626.594 381.502 643.228 372.6 634.098 366.155C626.174 360.563 607.548 371.329 594.718 386.522L602.064 366.846C605.378 361.148 610.089 353.002 617.436 345.618Z" fill="#15ADAE"/>
<path d="M80.807 122.407C83.0146 101.742 81.2962 81.7716 71.0092 86.6969C60.713 91.6278 64.3215 125.94 78.3215 148.572L81.2416 157.409C71.3274 140.738 51.5459 126.613 43.4267 131.892C35.3587 137.139 49.3803 145.346 63.438 150.706C74.1387 154.786 80.2077 159.909 83.0276 162.811L96.8209 204.551C81.0458 178.194 49.7988 155.932 36.952 164.287C24.1499 172.611 46.3991 185.632 68.7038 194.137C85.5599 200.564 95.1802 208.627 99.6953 213.249L102.446 221.572C103.964 221.322 105.481 221.062 106.996 220.793L90.5847 171.136C91.6878 166.872 93.8743 161.036 98.2087 154.248C106.305 141.572 112.676 126.629 103.07 127.221C94.733 127.734 88.0287 145.002 87.6052 162.121L81.9304 144.947C81.0815 139.334 79.8543 131.326 80.807 122.407Z" fill="#15ADAE"/>
<path d="M502.521 402.454C502.736 403.626 502.986 404.903 503.279 406.262V406.266C506.344 420.513 513.869 443.838 530.802 448.424C530.802 448.424 521.585 400.38 554.435 387.867C587.284 375.355 583.651 363.441 581.774 342.232C579.896 321.024 572.638 316.98 595.431 297.115C618.222 277.25 613.863 247.662 613.863 247.662C613.863 247.662 592.293 281.445 569.255 282.229C546.215 283.013 542.18 302.676 543.162 317.299C544.143 331.92 524.578 333.574 513.99 342.054C503.403 350.537 501.409 395.075 501.409 395.075C501.409 395.075 501.701 397.985 502.521 402.454Z" fill="#29C1C2"/>
<path d="M502.521 402.454C502.736 403.626 502.986 404.903 503.279 406.262C505.64 399.112 508.965 393.109 512.073 388.5C519.442 377.586 529.819 368.62 539.153 365.102C554.013 359.503 561.27 344.931 562.677 317.852C563.491 302.135 579.939 292.849 580.109 292.759C580.59 292.492 580.765 291.885 580.497 291.405C580.231 290.922 579.623 290.746 579.144 291.013C578.425 291.409 561.555 300.912 560.683 317.747C559.324 343.926 552.467 357.956 538.45 363.238C528.603 366.949 518.122 375.975 510.419 387.383C507.697 391.415 504.816 396.492 502.521 402.454Z" fill="#0BA3A4"/>
<path d="M138.919 448.163H162.002C149.529 446.102 118.606 432.829 115.849 406.216C112.356 372.508 100.35 372.93 80.1191 369.404C59.8883 365.879 54.3148 371.634 41.4697 345.465C28.6245 319.295 -0.0351562 315.997 -0.0351562 315.997C-0.0351562 315.997 26.0857 344.49 21.0868 366.145C16.0873 387.799 33.4093 396.447 47.2798 399.168C61.1515 401.889 57.8262 420.526 63.0976 432.495C65.5032 437.958 75.3484 443.62 85.3435 448.163H138.919Z" fill="#15ADAE"/>
<path d="M88.921 414.982C89.9292 425.076 95.7356 437.081 104.453 447.093C104.759 447.445 105.078 447.803 105.404 448.163H108.031C107.279 447.371 106.567 446.591 105.904 445.83C97.5651 436.253 91.7906 424.359 90.8326 414.79C89.3111 399.557 77.5354 389.173 52.6487 381.13C38.2038 376.462 33.6412 358.833 33.5996 358.652C33.4707 358.139 32.948 357.824 32.4345 357.954C31.9173 358.082 31.6023 358.604 31.7313 359.117C31.9222 359.884 36.5829 377.959 52.0554 382.96C76.1141 390.735 87.4842 400.61 88.921 414.982Z" fill="#008F90"/>
<path d="M151.369 385.604C150.88 387.241 150.326 389.024 149.701 390.918L149.699 390.922C143.136 410.779 129.673 444.221 104.811 448.163C104.811 448.163 124.489 379.713 79.55 356.815C34.6121 333.915 41.6267 317.477 47.5667 287.512C53.5058 257.547 64.4826 252.894 35.0221 221.05C5.56134 189.208 16.33 147.666 16.33 147.666C16.33 147.666 41.9071 199.177 74.6541 203.836C107.4 208.495 110.133 237.166 106.484 257.876C102.834 278.583 130.494 283.949 144.293 297.676C158.092 311.402 154.089 375.245 154.089 375.245C154.089 375.245 153.224 379.353 151.369 385.604Z" fill="#29C1C2"/>
<path d="M151.369 385.604C150.88 387.241 150.326 389.024 149.701 390.918C147.429 380.357 143.613 371.279 139.884 364.228C131.051 347.525 117.626 333.139 104.852 326.686C84.5139 316.415 76.4022 294.513 78.5597 255.665C79.8143 233.118 57.7772 217.345 57.5495 217.19C56.9049 216.736 56.7479 215.843 57.2026 215.198C57.6573 214.549 58.5517 214.392 59.1957 214.848C60.1585 215.523 82.762 231.671 81.4195 255.824C79.3316 293.377 86.9568 314.445 106.141 324.136C119.62 330.941 133.181 345.429 142.417 362.889C145.68 369.059 149.012 376.744 151.369 385.604Z" fill="#0BA3A4"/>
<path d="M169.193 432.067C169.269 437.27 169.363 442.686 169.476 448.163H219.682C219.777 442.168 219.852 436.421 219.906 431.032C220.058 416.423 220.074 404.4 220.063 396.926C220.058 391.626 220.036 388.621 220.036 388.621L168.84 388.077C168.84 388.077 168.84 392.499 168.88 399.732C168.913 407.769 169.003 419.278 169.193 432.067Z" fill="#201F20"/>
<path d="M168.88 399.732C168.913 407.769 169.003 419.278 169.193 432.067C184.965 433.271 202.254 433.281 219.906 431.032C220.058 416.423 220.074 404.399 220.063 396.926L168.88 399.732Z" fill="#1C1A2C"/>
<path d="M105.922 420.526C105.978 428.706 106.075 438.079 106.237 448.163H156.447C156.571 442.258 156.671 436.426 156.752 430.853C156.926 418.891 157.015 408.123 157.06 400.38C157.099 392.763 157.099 388.077 157.099 388.077L105.882 388.621C105.882 388.621 105.842 394.049 105.854 403.185C105.854 408.016 105.876 413.876 105.922 420.526Z" fill="#201F20"/>
<path d="M105.854 403.185C105.854 408.016 105.876 413.876 105.922 420.526C116.116 423.531 134.37 428.205 156.752 430.853C156.926 418.891 157.015 408.122 157.06 400.38L105.854 403.185Z" fill="#1C1A2C"/>
<path d="M190.02 118.793C190.02 118.793 198.088 111.026 198.06 103.353C198.033 95.6821 192.817 97.9488 190.02 90.8009C187.221 83.6531 178.904 79.2937 174.344 80.1661C169.782 81.0372 160.153 63.2545 147.092 66.3936C134.031 69.5313 135.169 86.269 129.542 88.7095C123.917 91.1501 125.486 101.088 128.452 103.353C131.416 105.621 132.67 114.729 134.339 114.524C136.007 114.318 190.02 118.793 190.02 118.793Z" fill="#2F335D"/>
<path d="M135.72 118.61C135.72 118.61 130.648 111.848 126.876 117.439C123.105 123.03 128.438 139.542 137.671 135.512L135.72 118.61Z" fill="#F25349"/>
<path d="M135.655 130.41C135.314 130.41 135.001 130.185 134.904 129.84C133.473 124.742 128.189 122.675 128.137 122.654C127.735 122.501 127.532 122.05 127.685 121.648C127.837 121.246 128.287 121.043 128.689 121.195C128.936 121.288 134.759 123.548 136.408 129.419C136.524 129.833 136.281 130.263 135.866 130.381C135.796 130.4 135.724 130.41 135.655 130.41Z" fill="#E43342"/>
<path d="M130.322 127.841C130.177 127.841 130.031 127.801 129.9 127.716C129.538 127.483 129.433 127 129.667 126.638C129.707 126.579 130.64 125.153 132.595 124.278C132.987 124.101 133.45 124.278 133.627 124.671C133.802 125.065 133.627 125.526 133.233 125.702C131.721 126.379 130.985 127.473 130.978 127.483C130.831 127.715 130.578 127.841 130.322 127.841Z" fill="#E43342"/>
<path d="M187.994 118.61C187.994 118.61 193.066 111.848 196.838 117.439C200.609 123.03 195.277 139.542 186.043 135.512L187.994 118.61Z" fill="#F25349"/>
<path d="M188.059 130.41C188.4 130.41 188.714 130.185 188.81 129.84C190.241 124.742 195.525 122.675 195.578 122.654C195.979 122.501 196.182 122.05 196.029 121.648C195.877 121.246 195.427 121.043 195.025 121.195C194.778 121.288 188.955 123.548 187.307 129.419C187.191 129.833 187.434 130.263 187.848 130.381C187.918 130.4 187.99 130.41 188.059 130.41Z" fill="#E43342"/>
<path d="M193.392 127.841C193.537 127.841 193.683 127.801 193.814 127.716C194.176 127.483 194.281 127 194.048 126.638C194.008 126.579 193.074 125.153 191.119 124.278C190.727 124.101 190.263 124.278 190.088 124.671C189.912 125.065 190.088 125.526 190.481 125.702C191.993 126.379 192.729 127.473 192.736 127.483C192.884 127.715 193.136 127.841 193.392 127.841Z" fill="#E43342"/>
<path d="M174.344 149.519V165.94C174.344 165.94 169.445 174.303 162.82 174.873C156.201 175.45 150.321 167.673 150.321 167.673V150.673L174.344 149.519Z" fill="#F6876F"/>
<path d="M174.344 149.519V156.805C169.898 161.737 162.003 162.968 150.321 161.244V150.673L174.344 149.519Z" fill="#F25349"/>
<path d="M191.662 107.344C191.356 113.726 190.749 121.706 189.531 128.088C189.227 129.679 188.883 131.177 188.501 132.519C185.043 144.62 176.397 165.372 152.191 156.727C141.5 152.912 136.544 141.007 134.336 128.899C132.838 120.676 132.612 112.367 132.721 106.432C132.838 100.369 136.147 94.8305 141.423 91.8433C155.711 83.7443 170.787 86.7633 180.713 90.5788C187.603 93.2237 192.012 99.9878 191.662 107.344Z" fill="#F6876F"/>
<path d="M161.354 137.79C177.573 135.007 174.675 144.5 174.57 144.839V144.845C174.565 144.85 174.565 144.85 174.565 144.85C173.467 145.897 172.347 146.776 171.233 147.377C164.949 150.771 164.269 150.259 161.789 150.368C159.268 150.489 155.788 149.741 152.258 147.769C151.159 147.152 149.515 145.959 147.716 144.316C147.716 144.316 145.167 135.608 161.354 137.79ZM134.339 128.897C134.339 128.897 136.688 142.889 138.905 147.988C141.128 153.089 147.189 154.05 149.466 158.361C152.711 164.506 157.659 169.376 165.799 166.409C172.572 163.939 172.266 160.477 176.06 157.799C182.559 153.21 185.782 148.161 186.044 143.977C186.305 139.793 189.534 128.086 189.534 128.086L186.044 127.841C186.044 127.841 184.056 131.957 181.132 136.492C178.196 130.048 164.055 134.735 164.055 134.735L161.354 135.608L158.582 134.735C158.582 134.735 144.274 130.247 141.447 137.004C139.717 134.358 138.309 131.382 137.671 128.229L134.339 128.897Z" fill="#2F335D"/>
<path d="M151.606 120.752C151.606 122.507 150.703 123.927 149.589 123.927C148.473 123.927 147.57 122.507 147.57 120.752C147.57 118.999 148.473 117.579 149.589 117.579C150.703 117.579 151.606 118.999 151.606 120.752Z" fill="#2F335D"/>
<path d="M175.603 120.752C175.603 122.507 174.7 123.927 173.584 123.927C172.47 123.927 171.565 122.507 171.565 120.752C171.565 118.999 172.47 117.579 173.584 117.579C174.7 117.579 175.603 118.999 175.603 120.752Z" fill="#2F335D"/>
<path d="M181.529 110.301C181.529 110.301 173.189 107.006 166.767 109.779L167.409 113.349C167.409 113.349 176.834 112.552 181.584 114.477C182.008 113.102 182.072 111.713 181.529 110.301Z" fill="#2F335D"/>
<path d="M141.871 110.316C141.871 110.316 150.274 106.998 156.744 109.792L156.096 113.389C156.096 113.389 146.601 112.586 141.816 114.524C141.388 113.139 141.326 111.739 141.871 110.316Z" fill="#2F335D"/>
<path d="M162.129 134.055C163.445 134.055 164.75 133.543 164.953 133.46C165.35 133.298 165.542 132.842 165.379 132.443C165.218 132.044 164.761 131.854 164.363 132.017C163.658 132.301 161.966 132.75 161.233 132.312C161.092 132.226 160.897 132.058 160.849 131.584C160.567 128.861 161.313 119.729 161.321 119.637C161.356 119.208 161.037 118.831 160.607 118.796C160.175 118.759 159.801 119.081 159.765 119.51C159.735 119.889 159 128.879 159.297 131.746C159.409 132.825 159.975 133.378 160.432 133.651C160.931 133.949 161.531 134.055 162.129 134.055Z" fill="#F25349"/>
<path d="M152.179 139.351C152.773 142.33 154.741 147.813 161.375 147.813C168.025 147.813 169.889 142.803 170.53 139.351H152.179Z" fill="white"/>
<path d="M191.662 107.344C191.356 113.726 190.749 121.706 189.531 128.088L186.043 127.841C186.043 127.841 186.888 122.453 187.278 118.942C187.668 115.432 188.331 108.869 185.335 108.051C182.345 107.239 184.1 99.7531 179.94 96.5077C175.781 93.2554 166.542 90.391 160.409 94.1679C154.275 97.935 147.298 95.852 144.473 96.5077C141.641 97.1551 137.801 101.056 138.839 104.699C139.884 108.334 136.764 110.551 136.007 114.318C135.249 118.087 137.668 128.229 137.668 128.229L134.336 128.899C132.838 120.676 132.612 112.367 132.721 106.432C132.838 100.369 136.147 94.8305 141.423 91.8432C155.711 83.7443 170.787 86.7633 180.713 90.5788C187.603 93.2236 192.012 99.9878 191.662 107.344Z" fill="#2F335D"/>
<path d="M230.644 413.298C214.855 417.294 199.065 419.88 183.266 421.071C182.55 421.122 181.839 421.175 181.122 421.223C178.95 421.369 176.778 421.491 174.607 421.586C163.861 422.048 153.11 421.867 142.36 421.038C140.192 420.872 138.027 420.68 135.859 420.457C135.166 420.392 134.474 420.319 133.779 420.239C120.943 418.846 108.112 416.531 95.2668 413.298C95.138 401.468 95.2841 364.07 96.0112 323.513C96.0949 318.639 96.1892 313.719 96.297 308.793C97.4352 255.341 99.631 201.083 103.581 195.649C107.367 190.447 118.779 183.836 129.689 177.873C130.34 177.518 130.991 177.163 131.637 176.811C134.091 175.481 136.489 174.189 138.744 172.964C143.578 170.333 147.747 167.996 150.323 166.19V167.676C150.323 167.676 156.197 175.449 162.817 174.875C168.851 174.356 173.445 167.387 174.225 166.138C177.071 168.142 182.184 170.905 188.11 174.035C189.76 174.909 191.465 175.804 193.205 176.724C193.846 177.063 194.489 177.404 195.137 177.749C207.202 184.146 220.211 191.358 224.116 196.72C224.409 197.116 224.686 197.781 224.951 198.693C227.261 206.514 228.695 232.47 229.569 263.9C229.573 264.012 229.576 264.126 229.58 264.241C229.617 265.511 229.649 266.792 229.68 268.08C229.687 268.247 229.692 268.416 229.694 268.588C229.98 279.612 230.196 291.218 230.363 302.882C230.376 303.806 230.393 304.731 230.404 305.658C230.408 306.124 230.415 306.583 230.418 307.049C230.456 309.346 230.48 311.642 230.502 313.928C230.526 315.615 230.546 317.299 230.561 318.987C230.996 361.141 230.818 400.904 230.644 413.298Z" fill="#FF5B39"/>
<path d="M229.68 268.08C225.88 261.875 221.802 255.544 217.959 249.942C217.949 249.927 217.938 249.913 217.931 249.901C216.317 247.549 214.747 245.327 213.254 243.3C213.23 243.261 213.205 243.228 213.177 243.195C212.71 242.558 212.248 241.94 211.796 241.338C211.723 241.233 211.667 241.125 211.632 241.011L211.629 241.007C211.508 240.599 211.643 240.148 212.001 239.876C212.465 239.525 213.122 239.615 213.47 240.078C218.085 246.19 223.987 254.979 229.569 263.9C229.573 264.011 229.576 264.126 229.58 264.241C229.617 265.511 229.649 266.792 229.68 268.08Z" fill="#F04220"/>
<path d="M224.277 195.857C224.277 195.857 248.089 239.472 262.604 261.575C262.604 261.575 270.859 253.992 281.594 243.852C293.235 232.855 309.154 214.478 309.154 214.478L317.963 224.922C317.963 224.922 282.195 289.271 266.152 297.358C250.108 305.445 220.545 248.204 220.545 248.204L224.277 195.857Z" fill="#FF5B39"/>
<path d="M123.457 367.748C123.443 367.748 123.431 367.748 123.418 367.748C122.823 367.726 122.359 367.227 122.38 366.632C123.63 331.411 105.36 320 105.176 319.89C104.667 319.582 104.501 318.922 104.806 318.413C105.111 317.903 105.771 317.736 106.281 318.04C106.484 318.162 111.313 321.095 115.991 328.61C120.261 335.471 125.208 347.65 124.531 366.71C124.512 367.291 124.034 367.748 123.457 367.748Z" fill="#F04220"/>
<path d="M201.395 334.565C200.837 334.565 200.365 334.137 200.322 333.573C199.744 326.156 202.188 320.746 205.281 313.896C206.186 311.892 207.121 309.821 208.079 307.496C214.084 292.937 211.067 276.29 211.036 276.125C210.927 275.54 211.312 274.978 211.896 274.869C212.481 274.757 213.043 275.143 213.154 275.729C213.285 276.433 216.317 293.173 210.072 308.318C209.1 310.674 208.157 312.763 207.244 314.782C204.161 321.607 201.933 326.538 202.469 333.406C202.516 333.999 202.072 334.517 201.479 334.562C201.45 334.565 201.423 334.565 201.395 334.565Z" fill="#F04220"/>
<path d="M138.742 172.963C139.204 176.43 139.879 180.929 140.616 186.04C140.841 187.557 141.066 189.13 141.297 190.747C142.045 196.024 142.819 201.767 143.479 207.573C143.657 209.131 143.824 210.695 143.98 212.254C144.561 218.002 145 223.713 145.158 229.023C145.21 230.629 145.231 232.197 145.22 233.719C145.21 237.772 144.985 241.497 144.493 244.681C144.179 246.695 143.901 248.663 143.657 250.588C143.452 252.183 143.269 253.752 143.107 255.294C142.479 261.284 142.164 266.859 142.077 272.115C142.049 273.712 142.045 275.274 142.06 276.807C142.107 282.774 142.447 288.335 142.94 293.627C143.085 295.213 143.248 296.772 143.415 298.31C144.058 304.094 144.843 309.602 145.582 315.046C145.796 316.606 146.005 318.159 146.21 319.712C146.529 322.202 146.831 324.691 147.093 327.196C147.371 329.854 147.548 332.961 147.632 336.408C147.673 337.913 147.694 339.488 147.7 341.115C147.72 346.266 147.591 351.972 147.349 357.94C147.287 359.5 147.219 361.079 147.14 362.675C146.874 368.219 146.523 373.918 146.131 379.548C146.016 381.133 145.9 382.708 145.78 384.274C145.345 390.134 144.865 395.84 144.379 401.149C144.231 402.76 144.085 404.335 143.938 405.861C143.378 411.705 142.834 416.897 142.359 421.039C153.11 421.866 163.861 422.05 174.607 421.585C174.859 417.174 175.543 410.061 176.219 401.688C176.344 400.155 176.464 398.576 176.585 396.965C176.988 391.639 177.354 385.949 177.594 380.206C177.663 378.633 177.72 377.052 177.762 375.477C177.924 369.745 177.929 364.05 177.684 358.71C177.611 357.088 177.517 355.504 177.391 353.96C177.265 352.381 177.113 350.843 176.93 349.356C176.412 345.163 176.213 341.135 176.239 337.151C176.245 335.57 176.286 334.001 176.36 332.427C176.605 326.967 177.202 321.495 177.892 315.685C178.076 314.142 178.269 312.572 178.464 310.972C179.085 305.805 179.734 300.322 180.248 294.323C180.383 292.785 180.503 291.211 180.619 289.601C180.974 284.454 181.214 278.926 181.252 272.9C181.261 271.347 181.257 269.761 181.235 268.142C181.179 262.925 180.959 257.345 180.535 251.335C180.498 250.802 180.462 250.263 180.42 249.72C180.34 248.668 180.274 247.607 180.226 246.544C179.948 241.062 180.021 235.424 180.331 229.802C180.415 228.223 180.518 226.642 180.64 225.063C181.074 219.435 181.707 213.859 182.439 208.514C182.653 206.924 182.878 205.35 183.109 203.801C183.988 197.943 184.936 192.431 185.804 187.504C186.091 185.882 186.369 184.324 186.63 182.838C187.221 179.512 187.733 176.546 188.11 174.035C182.182 170.903 177.071 168.141 174.225 166.138C173.446 167.389 168.852 174.356 162.815 174.873C156.197 175.448 150.322 167.676 150.322 167.676V166.19C147.747 167.995 143.577 170.333 138.742 172.963Z" fill="white"/>
<path d="M140.616 186.039C140.841 187.556 141.066 189.13 141.297 190.747C147.234 190.882 154.209 189.993 162.611 188.052C171.61 185.981 179.546 186.343 185.804 187.504C186.091 185.882 186.369 184.323 186.63 182.838C179.849 181.587 171.296 181.227 161.553 183.472C153.262 185.38 146.356 186.259 140.616 186.039Z" fill="#DCD9D7"/>
<path d="M143.479 207.573C143.657 209.131 143.824 210.695 143.98 212.254C149.311 212.113 155.443 211.224 162.611 209.565C170.056 207.85 176.784 207.807 182.439 208.514C182.653 206.924 182.878 205.35 183.109 203.801C176.977 203.043 169.679 203.106 161.553 204.979C154.596 206.584 148.61 207.462 143.479 207.573Z" fill="#DCD9D7"/>
<path d="M145.158 229.023C145.21 230.629 145.231 232.197 145.22 233.719C150.258 233.483 155.993 232.605 162.611 231.079C169.15 229.571 175.135 229.357 180.331 229.802C180.415 228.223 180.519 226.642 180.64 225.063C175.052 224.603 168.612 224.864 161.553 226.492C155.344 227.924 149.908 228.776 145.158 229.023Z" fill="#DCD9D7"/>
<path d="M143.107 255.294C148.641 255.232 155.046 254.333 162.611 252.591C169.235 251.063 175.292 250.864 180.535 251.335C180.498 250.802 180.462 250.262 180.42 249.72C180.34 248.668 180.274 247.606 180.226 246.543C174.733 246.131 168.439 246.414 161.553 248.004C154.674 249.593 148.752 250.462 143.657 250.588C143.452 252.182 143.269 253.752 143.107 255.294Z" fill="#DCD9D7"/>
<path d="M142.06 276.807C147.831 276.854 154.564 275.96 162.611 274.104C169.554 272.502 175.857 272.351 181.252 272.9C181.261 271.347 181.257 269.761 181.235 268.142C175.512 267.613 168.867 267.832 161.553 269.517C153.952 271.268 147.516 272.152 142.077 272.115C142.049 273.712 142.045 275.274 142.06 276.807Z" fill="#DCD9D7"/>
<path d="M142.94 293.627C143.085 295.213 143.248 296.772 143.415 298.31C148.878 298.221 155.186 297.325 162.611 295.616C169.124 294.114 175.084 293.884 180.248 294.323C180.383 292.785 180.503 291.211 180.619 289.6C175.031 289.139 168.601 289.402 161.553 291.029C154.355 292.687 148.193 293.571 142.94 293.627Z" fill="#DCD9D7"/>
<path d="M145.582 315.046C145.796 316.606 146.005 318.159 146.21 319.712C151.007 319.413 156.417 318.556 162.611 317.129C168.156 315.846 173.3 315.496 177.892 315.685C178.076 314.142 178.269 312.572 178.464 310.972C173.399 310.742 167.712 311.119 161.553 312.542C155.522 313.926 150.227 314.775 145.582 315.046Z" fill="#DCD9D7"/>
<path d="M147.632 336.408C147.674 337.913 147.694 339.488 147.7 341.115C152.121 340.743 157.055 339.923 162.611 338.636C167.503 337.51 172.08 337.104 176.239 337.151C176.245 335.57 176.286 334.001 176.36 332.427C171.844 332.38 166.875 332.824 161.553 334.054C156.396 335.242 151.77 336.03 147.632 336.408Z" fill="#DCD9D7"/>
<path d="M147.141 362.675C151.703 362.324 156.815 361.482 162.611 360.149C168.068 358.892 173.137 358.532 177.684 358.71C177.611 357.088 177.517 355.503 177.391 353.96C172.604 353.825 167.282 354.243 161.553 355.561C156.275 356.779 151.562 357.581 147.349 357.94C147.287 359.5 147.219 361.079 147.141 362.675Z" fill="#DCD9D7"/>
<path d="M145.781 384.274C150.682 383.998 156.233 383.13 162.611 381.661C168.036 380.41 173.075 380.045 177.594 380.206C177.663 378.632 177.72 377.052 177.763 375.477C172.881 375.31 167.434 375.718 161.553 377.074C155.762 378.411 150.646 379.244 146.131 379.548C146.017 381.132 145.901 382.707 145.781 384.274Z" fill="#DCD9D7"/>
<path d="M143.938 405.861C149.281 405.725 155.423 404.83 162.611 403.172C167.492 402.047 172.064 401.636 176.219 401.688C176.344 400.155 176.465 398.575 176.585 396.964C172.007 396.897 166.963 397.336 161.553 398.586C154.999 400.097 149.306 400.959 144.379 401.149C144.231 402.76 144.085 404.335 143.938 405.861Z" fill="#DCD9D7"/>
<path d="M181.121 421.223C181.837 421.176 182.55 421.123 183.266 421.071C187.503 396.165 185.06 359.603 184.15 348.4C183.208 336.767 185.019 321.808 189.114 307.372C192.295 296.159 190.344 270.158 188.78 249.27C188.341 243.407 187.922 237.867 187.677 233.316C186.876 218.609 192.202 191.39 195.137 177.75C194.488 177.405 193.845 177.064 193.207 176.724C190.266 190.229 184.747 218.065 185.583 233.432C185.835 238.003 186.253 243.552 186.694 249.426C188.247 270.154 190.181 295.945 187.106 306.798C182.942 321.469 181.105 336.695 182.068 348.567C182.974 359.787 185.431 396.578 181.121 421.223Z" fill="#F04220"/>
<path d="M137.712 319.879C140.203 335.195 139.418 345.142 138.508 356.655C138.215 360.378 137.911 364.222 137.697 368.468C137.033 381.796 134.777 408.633 133.779 420.24C134.474 420.319 135.165 420.392 135.861 420.459C136.861 408.853 139.119 381.948 139.791 368.573C139.999 364.359 140.303 360.524 140.596 356.822C141.511 345.172 142.306 335.11 139.774 319.545C139.235 316.203 138.66 312.814 138.089 309.44C135.27 292.749 132.351 275.49 133.732 267.221C134.066 265.201 134.495 262.91 134.955 260.483C136.829 250.504 139.168 238.087 138.429 227.312C137.697 216.633 133.319 187.713 131.638 176.813C130.991 177.163 130.342 177.52 129.687 177.874C131.439 189.272 135.63 217.081 136.343 227.454C137.059 237.962 134.752 250.238 132.9 260.095C132.439 262.533 132.006 264.834 131.665 266.876C130.231 275.49 133.045 292.147 136.028 309.789C136.598 313.159 137.168 316.542 137.712 319.879Z" fill="#F04220"/>
<path d="M96.5312 213.411C96.5312 213.411 75.2161 284.474 69.9373 309.799C64.6585 335.124 64.2502 387.772 64.2502 387.772C64.2502 387.772 54.9319 407.111 54.7112 415.718C54.4761 424.892 59.2949 432.192 58.7452 438.196C58.1951 444.201 65.5069 440.941 63.4416 428.781C61.3758 416.618 67.2362 405.605 69.7652 405.957C72.2949 406.31 67.6725 419.236 69.9184 423.894C72.1633 428.551 75.0705 419.503 77.9615 414.011C80.9627 408.313 80.7873 395.874 79.4212 386.995C78.0554 378.116 94.1552 324.187 94.2323 308.561L114.619 239.691C114.619 239.691 107.883 210.942 96.5312 213.411Z" fill="#F6876F"/>
<path d="M117.23 237.961C116.507 242.528 113.981 250.369 110.717 260.232V260.237C110.439 261.068 110.156 261.917 109.874 262.78C109.858 262.816 109.843 262.857 109.833 262.9C109.016 265.353 108.163 267.919 107.284 270.578C107.279 270.593 107.274 270.61 107.268 270.625C103.654 281.599 99.6514 294.15 96.2922 307.049C95.1358 311.464 94.0586 315.925 93.1013 320.37C91.8769 326.046 90.8413 331.705 90.0825 337.244C87.3563 357.197 82.146 382.471 82.146 382.471C74.5021 385.609 62.5528 381.466 62.5528 381.466C62.5528 381.466 62.2442 345.069 63.9498 330.926C66.0575 313.44 68.7421 300.992 72.069 286.703C81.2248 247.376 97.3386 208.896 101.76 198.691C102.11 197.875 102.387 197.243 102.581 196.804H106.385C113.872 201.558 119.181 225.659 117.23 237.961Z" fill="#FF5B39"/>
<path d="M61.9314 374.179L62.5305 382.554C62.5305 382.554 73.8926 386.245 82.4086 383.645L84.6606 376.175C76.4599 376.61 68.8839 376.407 61.9314 374.179Z" fill="#3D89D1"/>
<path d="M110.717 260.232V260.237C110.717 260.357 110.696 260.478 110.654 260.599C110.397 261.304 110.135 262.032 109.874 262.78C109.858 262.816 109.843 262.857 109.833 262.9C108.995 265.273 108.142 267.857 107.284 270.578C107.279 270.593 107.274 270.61 107.268 270.625C102.816 284.768 98.2906 302.561 96.2087 313.926C96.2297 311.642 96.256 309.345 96.2922 307.049C95.1358 311.464 94.0586 315.925 93.1013 320.37C93.5301 316.203 94.7227 309.958 96.3494 302.881C99.6358 288.561 104.679 270.824 108.687 259.881C108.886 259.339 109.487 259.06 110.031 259.259C110.455 259.416 110.717 259.808 110.717 260.232Z" fill="#F04220"/>
<path d="M492.007 448.163H542.358C542.193 444.671 542.027 441.325 541.865 438.165C540.987 420.927 540.241 409.191 540.241 409.191L499.294 411.01L495.9 411.164L489.875 411.433C489.875 411.433 490.457 421.928 491.361 437.302C491.561 440.702 491.778 444.345 492.007 448.163Z" fill="#201F20"/>
<path d="M495.9 411.164L489.875 411.433C489.875 411.433 490.457 421.928 491.361 437.302C507.094 438.613 524.27 439.146 541.865 438.165C540.987 420.927 540.241 409.191 540.241 409.191L499.294 411.01L495.9 411.164Z" fill="#1C1A2C"/>
<path d="M501.38 448.163C500.461 432.208 499.705 418.579 499.292 411.012L495.897 411.165C496.308 418.698 497.06 432.263 497.978 448.163H501.38Z" fill="#1C1A2C"/>
<path d="M477.237 448.163C477.495 443.841 477.738 439.741 477.96 435.964C478.828 421.319 479.373 411.433 479.373 411.433L472.835 411.142L469.445 410.988L429 409.191C429 409.191 428.556 416.187 427.949 427.304C427.626 433.228 427.259 440.331 426.885 448.163H477.237Z" fill="#201F20"/>
<path d="M427.949 427.304C438.927 429.884 456.627 433.506 477.961 435.964C478.828 421.318 479.373 411.433 479.373 411.433L472.835 411.142L469.445 410.988L429 409.191C429 409.191 428.556 416.187 427.949 427.304Z" fill="#1C1A2C"/>
<path d="M470.754 448.163C471.672 432.248 472.424 418.67 472.835 411.142L469.444 410.99C469.031 418.552 468.276 432.192 467.353 448.163H470.754Z" fill="#1C1A2C"/>
<path d="M547.553 417.037C537.296 419.86 527.04 421.989 516.784 423.419C513.218 423.919 509.654 424.337 506.09 424.664C501.283 425.109 496.478 425.408 491.675 425.559C483.729 425.802 475.784 425.628 467.835 425.04C452.471 423.916 437.11 421.234 421.743 417.037C421.599 402.714 421.814 351.347 422.89 301.802C422.943 299.58 422.991 297.357 423.046 295.143C423.053 294.674 423.068 294.204 423.078 293.735C423.088 293.223 423.103 292.711 423.117 292.204C423.151 290.632 423.192 289.066 423.231 287.506C423.31 284.323 423.394 281.168 423.485 278.042C423.54 276.174 423.596 274.316 423.651 272.476C423.662 272.094 423.676 271.714 423.687 271.335C423.725 270.121 423.763 268.913 423.801 267.714C423.801 267.714 423.801 267.714 423.801 267.71C423.817 267.337 423.825 266.966 423.84 266.593C423.875 265.487 423.913 264.387 423.948 263.299C423.984 262.37 424.014 261.455 424.046 260.536C425.236 227.114 426.976 200.752 429.467 197.037C433.692 190.736 448.083 182.372 459.658 175.563C463.781 173.142 468.705 170.623 471.525 168.754C475.635 172.063 478.618 175.051 484.711 174.847C491.53 174.614 493.209 170.515 495.809 167.001C497.397 168.031 501.427 171.337 503.522 172.564C505.314 173.621 507.255 174.742 509.281 175.907C512.414 177.699 515.745 179.603 519.042 181.543C523.931 184.422 528.753 187.388 532.751 190.225C536.744 193.06 539.914 195.77 541.483 198.118C543.744 201.514 545.211 223.5 546.153 252.434C546.191 253.446 546.219 254.471 546.257 255.504C546.26 255.63 546.26 255.755 546.26 255.885C546.3 256.934 546.331 258.014 546.356 259.092C546.449 262.348 546.535 265.674 546.626 269.057C546.644 269.769 546.661 270.49 546.672 271.206C546.686 271.746 546.703 272.289 546.708 272.821C546.738 274.213 546.768 275.609 546.8 277.017C546.807 277.298 546.811 277.58 546.818 277.863C546.894 281.575 546.967 285.339 547.034 289.135C547.054 290.245 547.072 291.358 547.09 292.472C547.949 344.559 547.75 401.646 547.553 417.037Z" fill="#FF5B39"/>
<path d="M547.09 292.472L530.848 308.942L515.716 293.606L500.588 308.942L485.4 293.543L470.206 308.942L454.918 293.442L439.627 308.942L423.117 292.204C423.151 290.632 423.193 289.066 423.231 287.506C423.31 284.323 423.394 281.167 423.485 278.042L439.627 261.677L454.918 277.179L470.206 261.677L485.4 277.076L500.588 261.677L515.716 277.012L530.848 261.677L546.818 277.863C546.894 281.575 546.967 285.339 547.034 289.135C547.054 290.245 547.072 291.358 547.09 292.472Z" fill="#F04220"/>
<path d="M519.054 377.364C519.053 377.364 519.052 377.364 519.049 377.364C497.303 377.267 478.741 367.374 466.998 359.091C454.299 350.133 446.601 341.057 446.527 340.966C446.154 340.524 446.21 339.864 446.654 339.492C447.096 339.12 447.756 339.177 448.127 339.62C448.203 339.707 455.759 348.611 468.252 357.415C479.739 365.51 497.877 375.179 519.059 375.271C519.637 375.272 520.104 375.745 520.101 376.322C520.098 376.897 519.63 377.364 519.054 377.364Z" fill="#F04220"/>
<path d="M505.489 364.504C486.973 360.865 470.583 346.688 469.839 346.036C469.404 345.657 469.359 344.996 469.739 344.561C470.12 344.126 470.78 344.083 471.217 344.463C471.409 344.63 490.697 361.304 510.351 363.098C510.937 363.145 511.352 363.659 511.3 364.235C511.247 364.809 510.738 365.233 510.163 365.18C508.595 365.038 507.035 364.807 505.489 364.504Z" fill="#F04220"/>
<path d="M468.405 203.616C467.912 203.616 467.475 203.266 467.378 202.765C467.27 202.197 467.645 201.651 468.212 201.542C494.725 196.513 502.717 179.46 502.794 179.289C503.033 178.762 503.653 178.529 504.179 178.766C504.707 179.005 504.939 179.623 504.701 180.151C504.366 180.892 496.175 198.368 468.601 203.597C468.535 203.61 468.469 203.616 468.405 203.616Z" fill="#F04220"/>
<path d="M436.056 249.517V249.524C436.031 249.639 435.979 249.753 435.912 249.858C435.516 250.494 435.1 251.153 434.688 251.824C434.667 251.862 434.642 251.894 434.625 251.936C433.3 254.078 431.918 256.419 430.493 258.893C430.491 258.911 430.484 258.922 430.469 258.936C428.246 262.829 425.943 267.048 423.687 271.335C423.725 270.121 423.763 268.913 423.801 267.714C423.801 267.714 423.801 267.714 423.801 267.71C423.817 267.337 423.825 266.966 423.84 266.593C427.477 259.844 431.103 253.53 434.145 248.741C434.458 248.25 435.1 248.112 435.592 248.417C435.972 248.664 436.146 249.103 436.056 249.517Z" fill="#F04220"/>
<path d="M569.661 210.746C569.661 210.746 603.565 199.852 613.599 177.609C616.5 171.167 592.593 105.763 592.593 105.763L581.055 106.323C581.055 106.323 584.341 129.014 586.337 141.863C587.974 152.429 590.623 165.051 591.517 169.209C591.711 170.111 591.82 170.612 591.82 170.612C591.254 170.708 590.686 170.819 590.108 170.933C574.267 174.151 554.042 184.466 554.042 184.466L569.661 210.746Z" fill="#F6876F"/>
<path d="M600.336 176.88C600.818 177.231 601.507 177.126 601.854 176.642C602.218 176.149 602.108 175.47 601.615 175.126C599.149 173.334 595.426 171.23 591.517 169.209C591.711 170.111 591.82 170.612 591.82 170.612C591.253 170.709 590.686 170.819 590.107 170.934C594.088 172.978 597.898 175.107 600.336 176.88Z" fill="#F25349"/>
<path d="M517.781 180.824C517.781 180.824 507.526 204.885 533.636 218.281C551.705 227.551 592.865 203.347 592.865 203.347L578.19 172.198C578.19 172.198 540.53 187.729 517.781 180.824Z" fill="#FF5B39"/>
<path d="M586.687 68.9917C585.664 69.7081 585.874 74.1269 586.323 78.2888C586.179 78.3095 586.033 78.3344 585.885 78.3606C584.671 72.8058 582.255 63.3582 580.188 65.161C578.835 66.3413 580.648 74.4885 581.881 79.3614C581.627 79.4401 581.37 79.5202 581.114 79.603C579.558 73.8176 576.204 62.6776 573.972 64.8449C572.482 66.2888 575.341 76.0995 576.929 81.1049C576.707 81.1905 576.492 81.2761 576.279 81.3603C574.76 76.5053 571.515 67.3214 569.292 69.479C567.279 71.4323 573.048 85.3166 573.048 85.3166L574.558 90.7665C574.558 90.7665 572.762 91.5423 569.956 88.3701C567.152 85.1993 563.798 84.6402 566.127 89.2301C568.76 94.415 572.657 98.1339 574.373 101.803C576.088 105.474 581.485 106.687 581.485 106.687L592.32 106.164C592.32 106.164 594.421 87.8538 590.378 79.1268C589.685 73.9391 588.464 67.7452 586.687 68.9917Z" fill="#F6876F"/>
<path d="M452.625 111.215C452.625 129.667 463.987 142.379 482.436 142.379C500.891 142.379 513.756 128.712 513.756 110.26C513.756 105.171 512.926 100.42 511.329 96.2166C511.235 95.9653 511.141 95.7154 511.039 95.4739C510.844 94.9949 510.64 94.5186 510.42 94.0562C510.1 93.3439 509.739 92.6468 509.364 91.9731C504.556 83.3316 495.942 77.8362 484.369 77.8362C462.241 77.8362 452.625 92.7641 452.625 111.215Z" fill="#2F335D"/>
<path d="M456.768 119.159C456.768 119.159 451.641 112.325 447.829 117.976C444.015 123.628 449.407 140.32 458.74 136.245L456.768 119.159Z" fill="#F25349"/>
<path d="M456.702 131.087C456.358 131.087 456.04 130.858 455.942 130.51C454.497 125.357 449.156 123.269 449.102 123.248C448.696 123.092 448.491 122.638 448.645 122.231C448.799 121.825 449.254 121.619 449.661 121.772C449.911 121.868 455.796 124.151 457.462 130.085C457.58 130.503 457.334 130.94 456.914 131.057C456.844 131.076 456.773 131.087 456.702 131.087Z" fill="#E43342"/>
<path d="M451.312 128.491C451.165 128.491 451.017 128.451 450.884 128.365C450.519 128.129 450.414 127.642 450.648 127.275C450.687 127.214 451.633 125.773 453.61 124.889C454.005 124.711 454.475 124.889 454.653 125.287C454.828 125.684 454.653 126.151 454.254 126.329C452.725 127.012 451.982 128.118 451.975 128.129C451.825 128.364 451.571 128.491 451.312 128.491Z" fill="#E43342"/>
<path d="M509.606 119.159C509.606 119.159 514.734 112.325 518.546 117.976C522.36 123.628 516.968 140.32 507.635 136.245L509.606 119.159Z" fill="#F25349"/>
<path d="M509.673 131.087C510.017 131.087 510.335 130.858 510.433 130.51C511.878 125.357 517.219 123.269 517.273 123.248C517.679 123.092 517.884 122.638 517.729 122.231C517.576 121.825 517.121 121.619 516.714 121.772C516.464 121.868 510.579 124.151 508.912 130.085C508.795 130.503 509.04 130.94 509.459 131.057C509.531 131.076 509.601 131.087 509.673 131.087Z" fill="#E43342"/>
<path d="M515.064 128.491C515.21 128.491 515.358 128.451 515.489 128.365C515.856 128.129 515.961 127.642 515.725 127.275C515.687 127.214 514.742 125.773 512.765 124.889C512.37 124.711 511.9 124.889 511.724 125.287C511.546 125.684 511.724 126.151 512.121 126.329C513.65 127.012 514.393 128.118 514.4 128.129C514.55 128.364 514.804 128.491 515.064 128.491Z" fill="#E43342"/>
<path d="M495.809 150.402V167.002C495.809 167.002 490.857 175.456 484.16 176.031C477.47 176.615 471.526 168.752 471.526 168.752V151.57L495.809 150.402Z" fill="#F6876F"/>
<path d="M495.809 150.402V157.768C491.314 162.753 483.334 163.998 471.526 162.255V151.57L495.809 150.402Z" fill="#F25349"/>
<path d="M513.314 107.772C513.007 114.223 512.391 122.29 511.16 128.741C510.854 130.349 510.506 131.863 510.119 133.22C506.624 145.451 497.885 166.426 473.416 157.69C462.61 153.833 457.601 141.799 455.369 129.561C453.855 121.249 453.625 112.851 453.736 106.848C453.855 100.722 457.199 95.1231 462.531 92.1027C476.975 83.9168 492.214 86.9689 502.247 90.8258C509.212 93.4983 513.669 100.336 513.314 107.772Z" fill="#F6876F"/>
<path d="M472.695 121.326C472.695 123.097 471.783 124.534 470.655 124.534C469.529 124.534 468.615 123.097 468.615 121.326C468.615 119.554 469.529 118.117 470.655 118.117C471.783 118.117 472.695 119.554 472.695 121.326Z" fill="#2F335D"/>
<path d="M496.745 121.26C496.745 123.031 495.831 124.468 494.704 124.468C493.577 124.468 492.663 123.031 492.663 121.26C492.663 119.488 493.577 118.051 494.704 118.051C495.831 118.051 496.745 119.488 496.745 121.26Z" fill="#2F335D"/>
<path d="M501.355 110.233C501.355 110.233 494.918 107.69 489.961 109.83L490.457 112.587C490.457 112.587 497.732 111.973 501.397 113.457C501.725 112.396 501.774 111.324 501.355 110.233Z" fill="#2F335D"/>
<path d="M463.847 110.233C463.847 110.233 470.285 107.69 475.242 109.83L474.746 112.587C474.746 112.587 467.472 111.973 463.805 113.457C463.477 112.396 463.429 111.324 463.847 110.233Z" fill="#2F335D"/>
<path d="M483.461 134.772C484.793 134.772 486.113 134.254 486.317 134.171C486.719 134.006 486.912 133.546 486.749 133.143C486.585 132.74 486.124 132.545 485.72 132.711C485.008 132.999 483.299 133.453 482.557 133.009C482.413 132.923 482.217 132.754 482.168 132.275C481.883 129.522 482.637 120.291 482.645 120.199C482.68 119.764 482.358 119.383 481.925 119.347C481.488 119.311 481.11 119.634 481.073 120.069C481.042 120.454 480.299 129.539 480.6 132.437C480.712 133.528 481.285 134.087 481.746 134.363C482.252 134.665 482.857 134.772 483.461 134.772Z" fill="#F25349"/>
<path d="M472.869 138.776C474.181 143.326 477.908 147.865 483.043 147.929C488.173 147.865 491.9 143.326 493.211 138.776H472.869Z" fill="white"/>
<path d="M482.604 152.871C484.645 152.871 486.377 151.837 486.45 151.793C486.821 151.568 486.941 151.083 486.715 150.71C486.49 150.338 486.005 150.219 485.632 150.444C485.618 150.452 484.195 151.294 482.604 151.294C481.145 151.294 479.747 150.456 479.734 150.448C479.362 150.22 478.876 150.333 478.647 150.705C478.419 151.075 478.534 151.561 478.905 151.79C478.975 151.834 480.677 152.871 482.604 152.871Z" fill="#F25349"/>
<path d="M512.479 119.299H508.906C509.301 115.711 509.867 109.391 506.919 108.486C497.604 105.625 509.675 99.045 505.47 95.7637C501.266 92.4769 490.801 93.8849 483.524 93.6502C476.201 93.4128 464.433 93.5164 461.577 94.179C458.714 94.8333 460.284 99.5861 461.332 103.268C462.389 106.944 457.822 111.013 457.058 114.822C456.839 115.915 456.884 117.539 457.059 119.299H454.08C453.726 114.663 453.672 110.348 453.736 106.849C453.855 100.722 457.199 95.1232 462.532 92.1028C476.975 83.9169 492.215 86.969 502.247 90.8259C509.212 93.4984 513.669 100.336 513.315 107.772C513.146 111.306 512.884 115.326 512.479 119.299Z" fill="#2F335D"/>
<path d="M470.297 114.152C466.139 114.152 462.759 117.533 462.759 121.688C462.759 125.843 466.139 129.224 470.297 129.224C474.452 129.224 477.835 125.843 477.835 121.688C477.835 117.533 474.452 114.152 470.297 114.152ZM470.297 130.617C465.372 130.617 461.366 126.611 461.366 121.688C461.366 116.766 465.372 112.761 470.297 112.761C475.22 112.761 479.225 116.766 479.225 121.688C479.225 126.611 475.22 130.617 470.297 130.617Z" fill="white"/>
<path d="M494.704 114.152C490.548 114.152 487.166 117.533 487.166 121.688C487.166 125.843 490.548 129.224 494.704 129.224C498.86 129.224 502.242 125.843 502.242 121.688C502.242 117.533 498.86 114.152 494.704 114.152ZM494.704 130.617C489.78 130.617 485.774 126.611 485.774 121.688C485.774 116.766 489.78 112.761 494.704 112.761C499.628 112.761 503.634 116.766 503.634 121.688C503.634 126.611 499.628 130.617 494.704 130.617Z" fill="white"/>
<path d="M462.875 118.813C462.698 118.813 462.522 118.746 462.385 118.611C462.345 118.571 458.288 114.637 452.967 115.878C452.592 115.966 452.218 115.733 452.13 115.359C452.044 114.985 452.276 114.611 452.65 114.522C458.737 113.103 463.179 117.439 463.367 117.624C463.637 117.895 463.64 118.336 463.368 118.608C463.233 118.745 463.055 118.813 462.875 118.813Z" fill="white"/>
<path d="M502.29 118.813C502.062 118.813 501.839 118.702 501.706 118.498C501.495 118.176 501.586 117.746 501.908 117.534C502.174 117.361 508.493 113.286 513.869 114.17C514.249 114.234 514.505 114.591 514.442 114.971C514.38 115.349 514.025 115.606 513.643 115.545C508.803 114.747 502.731 118.661 502.668 118.7C502.551 118.777 502.42 118.813 502.29 118.813Z" fill="white"/>
<path d="M486.265 119.684C486.249 119.662 484.595 117.425 482.422 117.425C480.268 117.425 478.774 119.658 478.76 119.68L477.593 118.919C477.669 118.802 479.507 116.034 482.422 116.034C485.316 116.034 487.31 118.753 487.393 118.869L486.265 119.684Z" fill="white"/>
<path d="M433.115 248.206C433.115 248.206 423.708 266.416 412.631 280.84C409.362 285.096 405.952 289.021 402.59 292.051C397.144 296.966 391.832 299.538 387.507 297.357C371.464 289.27 335.698 224.922 335.698 224.922L344.506 214.478C344.506 214.478 360.424 232.855 372.066 243.853C382.801 253.994 391.057 261.576 391.057 261.576C392.543 259.315 394.127 256.837 395.773 254.215C397.523 251.43 399.339 248.483 401.188 245.453C414.593 223.45 429.467 197.037 429.467 197.037L433.115 248.206Z" fill="#F6876F"/>
<path d="M412.631 280.84C409.363 285.096 405.952 289.021 402.59 292.051L395.773 254.215C397.524 251.43 399.339 248.483 401.188 245.453L412.631 280.84Z" fill="#F25349"/>
<path d="M429.467 197.037L397.316 247.589L408.107 292.051L434.711 248.741C434.711 248.741 437.938 219.112 429.467 197.037Z" fill="#FF5B39"/>
<path d="M389.041 448.163C386.746 435.441 384.482 421.093 382.424 407.16C381.974 404.078 381.531 401.023 381.096 398.01C379.447 386.472 377.973 375.564 376.791 366.512C376.339 363.074 375.935 359.899 375.566 357.066C374.419 348.031 373.745 342.418 373.745 342.418L322.974 344.337L272.048 342.418C272.048 342.418 270.736 353.524 268.634 369.625C268.249 372.556 267.84 375.647 267.409 378.873C266.279 387.324 264.986 396.655 263.596 406.211C263.575 406.35 263.554 406.49 263.534 406.63C263.097 409.608 262.657 412.606 262.2 415.604C262.194 415.646 262.19 415.682 262.179 415.725V415.73C261.09 422.976 259.948 430.212 258.785 437.174C258.309 440.047 257.825 442.869 257.338 445.618C257.187 446.474 257.036 447.321 256.885 448.163H389.041Z" fill="#385DB4"/>
<path d="M283.751 357.662C283.751 360.305 281.608 362.447 278.965 362.447C276.322 362.447 274.179 360.305 274.179 357.662C274.179 355.02 276.322 352.878 278.965 352.878C281.608 352.878 283.751 355.02 283.751 357.662Z" fill="#3948A5"/>
<path d="M295.625 376.196C295.625 378.838 293.482 380.98 290.84 380.98C288.197 380.98 286.054 378.838 286.054 376.196C286.054 373.554 288.197 371.411 290.84 371.411C293.482 371.411 295.625 373.554 295.625 376.196Z" fill="#3948A5"/>
<path d="M318.988 366.628C318.988 369.27 316.845 371.411 314.202 371.411C311.559 371.411 309.416 369.27 309.416 366.628C309.416 363.986 311.559 361.844 314.202 361.844C316.845 361.844 318.988 363.986 318.988 366.628Z" fill="#3948A5"/>
<path d="M282.115 395.878C282.115 398.52 279.972 400.663 277.329 400.663C274.686 400.663 272.545 398.52 272.545 395.878C272.545 393.236 274.686 391.095 277.329 391.095C279.972 391.095 282.115 393.236 282.115 395.878Z" fill="#3948A5"/>
<path d="M311.308 393.832C311.308 396.474 309.165 398.615 306.522 398.615C303.881 398.615 301.738 396.474 301.738 393.832C301.738 391.19 303.881 389.048 306.522 389.048C309.165 389.048 311.308 391.19 311.308 393.832Z" fill="#3948A5"/>
<path d="M271.747 374.111C271.747 376.602 269.848 378.65 267.409 378.873C267.84 375.647 268.249 372.556 268.634 369.625C270.455 370.304 271.747 372.053 271.747 374.111Z" fill="#3948A5"/>
<path d="M358.88 421.938C358.88 424.58 356.737 426.721 354.095 426.721C351.452 426.721 349.31 424.58 349.31 421.938C349.31 419.297 351.452 417.155 354.095 417.155C356.737 417.155 358.88 419.297 358.88 421.938Z" fill="#3948A5"/>
<path d="M356.619 395.878C356.619 398.52 354.477 400.663 351.836 400.663C349.193 400.663 347.05 398.52 347.05 395.878C347.05 393.236 349.193 391.095 351.836 391.095C354.477 391.095 356.619 393.236 356.619 395.878Z" fill="#3948A5"/>
<path d="M382.424 407.16C381.849 407.403 381.211 407.539 380.546 407.539C377.905 407.539 375.763 405.395 375.763 402.755C375.763 400.115 377.905 397.972 380.546 397.972C380.733 397.972 380.915 397.983 381.096 398.009C381.531 401.023 381.974 404.078 382.424 407.16Z" fill="#3948A5"/>
<path d="M361.405 441.036C361.405 443.678 359.263 445.819 356.619 445.819C353.976 445.819 351.836 443.678 351.836 441.036C351.836 438.394 353.976 436.253 356.619 436.253C359.263 436.253 361.405 438.394 361.405 441.036Z" fill="#3948A5"/>
<path d="M381.873 433.398C381.873 436.04 379.73 438.182 377.088 438.182C374.445 438.182 372.302 436.04 372.302 433.398C372.302 430.757 374.445 428.616 377.088 428.616C379.73 428.616 381.873 430.757 381.873 433.398Z" fill="#3948A5"/>
<path d="M339.283 448.163C338.423 446.906 336.98 446.077 335.338 446.077C333.699 446.077 332.256 446.906 331.396 448.163H339.283Z" fill="#3948A5"/>
<path d="M278.965 426.097C278.965 428.739 276.822 430.882 274.179 430.882C271.538 430.882 269.395 428.739 269.395 426.097C269.395 423.456 271.538 421.314 274.179 421.314C276.822 421.314 278.965 423.456 278.965 426.097Z" fill="#3948A5"/>
<path d="M266.341 410.987C266.341 413.415 264.53 415.422 262.179 415.724C262.19 415.682 262.194 415.646 262.2 415.604C262.657 412.606 263.097 409.608 263.534 406.63C265.189 407.388 266.341 409.053 266.341 410.987Z" fill="#3948A5"/>
<path d="M260.747 441.031C260.747 443.195 259.31 445.02 257.338 445.618C257.825 442.869 258.309 440.046 258.785 437.173C259.974 438.045 260.747 439.45 260.747 441.031Z" fill="#3948A5"/>
<path d="M290.84 443.056C290.84 445.699 288.697 447.84 286.054 447.84C283.412 447.84 281.27 445.699 281.27 443.056C281.27 440.413 283.412 438.274 286.054 438.274C288.697 438.274 290.84 440.413 290.84 443.056Z" fill="#3948A5"/>
<path d="M316.092 439.311C316.092 441.953 313.951 444.094 311.308 444.094C308.665 444.094 306.522 441.953 306.522 439.311C306.522 436.668 308.665 434.527 311.308 434.527C313.951 434.527 316.092 436.668 316.092 439.311Z" fill="#3948A5"/>
<path d="M298.077 415.789C298.077 418.433 295.934 420.574 293.291 420.574C290.648 420.574 288.507 418.433 288.507 415.789C288.507 413.147 290.648 411.006 293.291 411.006C295.934 411.006 298.077 413.147 298.077 415.789Z" fill="#3948A5"/>
<path d="M323.772 411.006C323.772 413.648 321.631 415.789 318.988 415.789C316.345 415.789 314.202 413.648 314.202 411.006C314.202 408.365 316.345 406.223 318.988 406.223C321.631 406.223 323.772 408.365 323.772 411.006Z" fill="#3948A5"/>
<path d="M335.338 385.764C335.338 388.406 333.198 390.547 330.555 390.547C327.911 390.547 325.769 388.406 325.769 385.764C325.769 383.12 327.911 380.981 330.555 380.981C333.198 380.981 335.338 383.12 335.338 385.764Z" fill="#3948A5"/>
<path d="M376.791 366.512C376.458 366.591 376.116 366.627 375.763 366.627C373.116 366.627 370.979 364.485 370.979 361.844C370.979 359.271 373.013 357.166 375.566 357.066C375.935 359.899 376.339 363.074 376.791 366.512Z" fill="#3948A5"/>
<path d="M351.836 366.628C351.836 369.27 349.693 371.411 347.05 371.411C344.407 371.411 342.264 369.27 342.264 366.628C342.264 363.986 344.407 361.844 347.05 361.844C349.693 361.844 351.836 363.986 351.836 366.628Z" fill="#3948A5"/>
<path d="M369.361 383.678C369.361 386.319 367.218 388.461 364.575 388.461C361.932 388.461 359.789 386.319 359.789 383.678C359.789 381.036 361.932 378.893 364.575 378.893C367.218 378.893 369.361 381.036 369.361 383.678Z" fill="#3948A5"/>
<path d="M340.124 426.097C340.124 428.739 337.981 430.882 335.338 430.882C332.695 430.882 330.555 428.739 330.555 426.097C330.555 423.456 332.695 421.314 335.338 421.314C337.981 421.314 340.124 423.456 340.124 426.097Z" fill="#3948A5"/>
<path d="M376.832 343.673C350.049 361.154 300.87 359.784 269.968 343.673C272.92 325.29 276.807 306.886 275.972 282.417C275.878 279.736 275.763 277.069 275.629 274.43C275.509 272.131 275.375 269.849 275.229 267.592C272.562 226.889 265.614 193.607 269.029 189.308C270.518 187.424 273.003 185.391 276.07 183.31C277.274 182.492 278.561 181.662 279.919 180.831C283.126 178.875 286.691 176.905 290.271 174.986C298.764 170.452 307.388 166.246 311.711 163.371C315.997 165.239 319.41 166.261 323.089 166.24C323.188 166.24 323.296 166.24 323.405 166.229C323.504 166.24 323.613 166.24 323.711 166.24C327.391 166.261 330.803 165.239 335.096 163.371C339.106 166.037 346.656 169.757 354.361 173.813C360.021 176.796 365.766 179.96 370.237 183.032C373.165 185.039 375.555 187.01 377.018 188.856C378.711 190.988 378 200.335 376.552 214.185C375.12 227.813 372.977 245.806 371.68 265.585C371.321 271.078 371.026 276.707 370.828 282.417C369.999 306.886 373.879 325.29 376.832 343.673Z" fill="#3D89D1"/>
<path d="M360.453 323.344C360.452 323.344 360.45 323.344 360.449 323.344C338.881 323.248 320.471 313.438 308.826 305.223C296.232 296.338 288.599 287.338 288.523 287.247C288.155 286.809 288.211 286.153 288.649 285.786C289.088 285.416 289.742 285.473 290.111 285.912C290.186 285.999 297.679 294.829 310.071 303.561C321.462 311.588 339.451 321.176 360.457 321.269C361.03 321.271 361.494 321.738 361.491 322.311C361.489 322.882 361.023 323.344 360.453 323.344Z" fill="#385DB4"/>
<path d="M346.174 310.791C327.81 307.183 311.555 293.122 310.818 292.476C310.385 292.099 310.341 291.443 310.718 291.013C311.097 290.581 311.751 290.539 312.183 290.915C312.374 291.082 331.503 307.618 350.996 309.396C351.576 309.443 351.988 309.954 351.936 310.524C351.884 311.094 351.38 311.515 350.808 311.462C349.255 311.322 347.706 311.092 346.174 310.791Z" fill="#385DB4"/>
<path d="M318.986 215.808C318.498 215.808 318.063 215.46 317.967 214.964C317.861 214.4 318.231 213.858 318.793 213.751C345.089 208.763 353.013 191.851 353.091 191.681C353.327 191.159 353.941 190.928 354.465 191.164C354.987 191.4 355.219 192.014 354.982 192.536C354.65 193.271 346.525 210.603 319.181 215.789C319.115 215.801 319.05 215.808 318.986 215.808Z" fill="#385DB4"/>
<path d="M354.358 173.813C349.14 185.715 336.308 198.039 319.623 195.159C303.465 192.366 295.801 183.822 290.271 174.985C298.767 170.449 307.389 166.248 311.71 163.373C315.997 165.238 319.41 166.259 323.086 166.243C323.187 166.243 323.297 166.243 323.403 166.23C323.503 166.243 323.615 166.243 323.714 166.243C327.39 166.259 330.805 165.238 335.097 163.373C339.106 166.037 346.658 169.756 354.358 173.813Z" fill="#F6876F"/>
<path d="M340.41 164.244C339.948 164.238 339.582 164.608 339.58 165.064C339.574 165.732 339.302 181.465 325.175 182.684C312.073 183.821 306.649 171.283 304.973 166.08C304.875 165.775 304.593 165.57 304.271 165.57H304.117C303.613 165.57 303.256 166.062 303.415 166.539C305.203 171.907 310.914 184.867 324.262 184.393C324.609 184.379 324.961 184.358 325.317 184.328C340.951 182.979 341.228 165.252 341.23 165.072C341.232 164.618 340.865 164.247 340.41 164.244Z" fill="white"/>
<path d="M350.395 80.6231C350.395 80.6231 363.02 100.173 361.637 120.535C360.253 140.898 363.498 164.405 345.273 163.373C327.046 162.339 294.537 170.678 284.204 154.818C273.872 138.957 350.395 80.6231 350.395 80.6231Z" fill="#2F335D"/>
<path d="M355.073 116.569C355.073 116.569 358.35 146.086 344.342 154.212C330.331 162.339 320.193 153.267 320.193 153.267C320.193 153.267 349.722 112.124 355.073 116.569Z" fill="#1C1A2C"/>
<path d="M296.881 116.433C296.881 116.433 291.851 109.727 288.11 115.272C284.37 120.817 289.657 137.193 298.816 133.195L296.881 116.433Z" fill="#F25349"/>
<path d="M296.816 128.135C296.478 128.135 296.167 127.911 296.071 127.57C294.653 122.514 289.412 120.464 289.36 120.444C288.961 120.293 288.759 119.845 288.911 119.446C289.063 119.047 289.509 118.846 289.908 118.998C290.153 119.089 295.927 121.329 297.562 127.152C297.677 127.563 297.436 127.991 297.025 128.106C296.956 128.125 296.885 128.135 296.816 128.135Z" fill="#E43342"/>
<path d="M291.526 125.588C291.383 125.588 291.238 125.548 291.109 125.465C290.749 125.233 290.645 124.754 290.877 124.395C290.916 124.336 291.843 122.922 293.783 122.054C294.169 121.879 294.629 122.054 294.804 122.445C294.978 122.835 294.804 123.292 294.414 123.466C292.914 124.138 292.185 125.222 292.178 125.233C292.03 125.464 291.78 125.588 291.526 125.588Z" fill="#E43342"/>
<path d="M348.723 116.433C348.723 116.433 353.752 109.727 357.493 115.272C361.233 120.817 355.946 137.193 346.787 133.195L348.723 116.433Z" fill="#F25349"/>
<path d="M348.788 128.135C349.127 128.135 349.436 127.911 349.532 127.57C350.952 122.514 356.191 120.464 356.245 120.444C356.642 120.293 356.844 119.845 356.692 119.446C356.541 119.047 356.095 118.846 355.696 118.998C355.451 119.089 349.676 121.329 348.043 127.152C347.928 127.563 348.167 127.991 348.578 128.106C348.649 128.125 348.719 128.135 348.788 128.135Z" fill="#E43342"/>
<path d="M354.077 125.588C354.22 125.588 354.365 125.548 354.494 125.465C354.854 125.233 354.957 124.754 354.726 124.395C354.688 124.336 353.76 122.922 351.822 122.054C351.434 121.879 350.974 122.054 350.8 122.445C350.626 122.835 350.8 123.292 351.189 123.466C352.69 124.138 353.418 125.222 353.425 125.233C353.573 125.464 353.822 125.588 354.077 125.588Z" fill="#E43342"/>
<path d="M335.185 147.086V163.373C335.185 163.373 330.327 171.668 323.757 172.231C317.193 172.805 311.36 165.09 311.36 165.09V148.231L335.185 147.086Z" fill="#F6876F"/>
<path d="M335.185 147.086V154.313C330.777 159.204 322.949 160.936 311.363 159.227L311.36 148.231L335.185 147.086Z" fill="#F25349"/>
<path d="M352.36 105.26C352.059 111.589 351.454 119.504 350.246 125.834C349.947 127.411 349.604 128.897 349.226 130.227C345.797 142.227 337.223 162.808 313.216 154.236C302.613 150.452 297.699 138.645 295.509 126.637C294.023 118.483 293.798 110.243 293.907 104.355C294.023 98.3437 297.304 92.8496 302.536 89.8872C316.705 81.8559 331.658 84.85 341.502 88.6324C348.335 91.2552 352.708 97.9641 352.36 105.26Z" fill="#F6876F"/>
<path d="M312.23 117.388C312.23 119.126 311.334 120.535 310.228 120.535C309.122 120.535 308.226 119.126 308.226 117.388C308.226 115.65 309.122 114.241 310.228 114.241C311.334 114.241 312.23 115.65 312.23 117.388Z" fill="#2F335D"/>
<path d="M336.949 117.388C336.949 119.126 336.053 120.535 334.947 120.535C333.842 120.535 332.946 119.126 332.946 117.388C332.946 115.65 333.842 114.241 334.947 114.241C336.053 114.241 336.949 115.65 336.949 117.388Z" fill="#2F335D"/>
<path d="M306.262 108.016C307.926 107.547 311.284 106.745 314.826 106.734C315.758 106.731 316.472 107.559 316.308 108.477L316.304 108.501C316.171 109.232 315.516 109.751 314.772 109.716C312.363 109.604 306.035 109.942 303.046 111.153C302.986 110.634 303.294 110.065 303.729 109.561C304.387 108.796 305.292 108.291 306.262 108.016Z" fill="#2F335D"/>
<path d="M338.608 108.081C336.944 107.61 333.587 106.808 330.044 106.799C329.112 106.796 328.398 107.624 328.562 108.541L328.566 108.564C328.699 109.297 329.353 109.815 330.098 109.781C332.509 109.669 338.835 110.007 341.823 111.218C341.884 110.698 341.576 110.13 341.143 109.625C340.483 108.86 339.58 108.356 338.608 108.081Z" fill="#2F335D"/>
<path d="M323.071 131.75C322.478 131.75 321.883 131.646 321.388 131.35C320.936 131.078 320.374 130.53 320.262 129.46C319.968 126.618 320.696 117.703 320.728 117.325C320.762 116.898 321.135 116.582 321.562 116.616C321.988 116.652 322.304 117.026 322.27 117.452C322.263 117.543 321.523 126.6 321.802 129.301C321.85 129.77 322.042 129.937 322.183 130.02C322.909 130.457 324.588 130.012 325.287 129.728C325.682 129.566 326.135 129.757 326.296 130.153C326.457 130.548 326.267 130.999 325.872 131.161C325.671 131.243 324.376 131.75 323.071 131.75Z" fill="#F25349"/>
<path d="M313.242 136.635C313.828 139.578 315.772 144.994 322.324 144.994C328.889 144.994 330.731 140.045 331.364 136.635H313.242Z" fill="white"/>
<path d="M322.23 149.508C320.34 149.508 318.67 148.49 318.599 148.448C318.235 148.223 318.124 147.745 318.349 147.382C318.572 147.019 319.047 146.907 319.412 147.129C319.426 147.138 320.787 147.96 322.23 147.96C323.79 147.96 325.188 147.135 325.203 147.125C325.569 146.907 326.044 147.024 326.263 147.39C326.483 147.756 326.367 148.23 326.002 148.45C325.931 148.495 324.232 149.508 322.23 149.508Z" fill="#F25349"/>
<path d="M355.475 103.999C355.227 104.705 354.538 105.156 353.614 105.425C353.682 107.131 353.502 109.184 353.334 111.151C352.378 122.334 349.556 124.298 348.918 121.533C348.498 119.696 348.523 109.165 348.726 105.732C346.515 105.587 344.626 105.218 344.626 105.218L342.032 94.3611L341.125 105.083C337.232 106.437 328.152 104.268 328.152 104.268L325.107 93.5674L323.224 103.864C317.386 106.706 310.091 104.814 310.091 104.814L308.415 93.7068L304.545 104.814C304.545 104.814 292.093 109.279 291.957 104.814C291.874 102.214 293.778 94.8953 295.387 89.2259C297.141 83.043 301.203 77.8181 306.699 74.8722C322.144 66.5828 338.479 70.9932 344.081 74.338C355.964 81.4293 355.475 103.999 355.475 103.999Z" fill="#2F335D"/>
<path d="M298.816 81.4501C298.816 81.4501 288.563 93.6393 285.191 115.41C281.819 137.181 277.149 153.267 290.271 160.455C304.473 168.235 303.244 152.278 303.039 147.941C302.834 143.605 290.753 131.75 298.816 98.3631C301.418 87.5848 298.816 81.4501 298.816 81.4501Z" fill="#2F335D"/>
<path d="M296.42 126.438C296.42 126.438 296.42 126.449 296.42 126.464C296.424 126.625 296.435 127.492 296.497 128.846C296.528 129.686 296.58 130.708 296.659 131.87C297.141 139.204 298.568 151.871 302.761 156.265C304.415 158.003 307.606 158.874 311.363 159.228V153.464C307.403 151.585 304.317 148.5 301.925 144.703C300.446 141.503 297.899 136.492 296.704 128.612L296.42 126.438Z" fill="#1C1A2C"/>
<path d="M352.545 133.563C352.545 134.565 351.732 135.376 350.732 135.376C349.73 135.376 348.918 134.565 348.918 133.563C348.918 132.562 349.73 131.75 350.732 131.75C351.732 131.75 352.545 132.562 352.545 133.563Z" fill="white"/>
<path d="M389.496 270.117C384.36 284.817 361.359 283.746 335.162 275.711C335.125 275.7 335.088 275.686 335.049 275.676C334.966 275.651 334.888 275.624 334.805 275.6L331.201 274.452C330.704 274.289 330.204 274.123 329.707 273.953C326.883 273.009 324.04 271.988 321.185 270.903C311.826 267.349 302.392 263.138 293.498 258.644L293.56 258.488L296.239 251.532L297.153 249.165C297.153 249.165 345.717 254.455 370.137 249.351C370.551 249.266 370.954 249.179 371.35 249.086C371.255 248.544 371.225 247.992 371.072 247.475C358.133 203.44 372.284 194.997 377.019 188.854C377.019 188.854 399.191 242.369 389.496 270.117Z" fill="#3D89D1"/>
<path d="M381.582 256.488C381.437 256.557 381.281 256.59 381.129 256.59C380.747 256.59 380.378 256.378 380.199 256.011C378.348 252.223 372.066 249.968 370.137 249.351C370.551 249.266 370.954 249.179 371.35 249.086C371.255 248.544 371.163 248.007 371.072 247.475C373.527 248.286 379.935 250.757 382.057 255.104C382.31 255.614 382.096 256.236 381.582 256.488Z" fill="#385DB4"/>
<path d="M313.561 254.643C303.65 254.643 295.601 254.074 294.9 254.023C294.33 253.981 293.902 253.484 293.942 252.914C293.984 252.344 294.48 251.92 295.05 251.958C295.416 251.983 331.846 254.561 346.209 248.736C346.738 248.522 347.343 248.774 347.558 249.306C347.772 249.835 347.518 250.438 346.988 250.655C339.037 253.878 325.048 254.643 313.561 254.643Z" fill="#385DB4"/>
<path d="M331.201 274.452C331.204 274.452 331.204 274.452 331.204 274.452C339.516 272.16 347.07 269.927 351.434 268.53C357.49 266.587 362.502 260.467 364.781 255.262C365.008 254.739 365.619 254.5 366.143 254.732C366.668 254.96 366.907 255.57 366.679 256.095C364.213 261.721 358.741 268.361 352.066 270.504C348.9 271.52 344.064 272.968 338.475 274.562C336.093 275.243 333.561 275.204 331.201 274.452Z" fill="#385DB4"/>
<path d="M353.604 267.333C278.55 292.604 255.46 276.067 255.46 276.067C250.408 230.384 269.026 189.307 269.026 189.307C274.529 198.374 280.748 214.202 280.748 214.202L282.391 249.218L282.267 250.191L282.207 250.65L281.898 253.044L281.89 253.092C282.05 253.127 282.212 253.161 282.373 253.196C305.078 257.985 346.598 252.633 346.598 252.633L353.604 267.333Z" fill="#3D89D1"/>
<path d="M282.373 253.196C278.322 256.59 274.473 260.504 271.042 265C270.697 265.455 270.045 265.545 269.59 265.197C269.134 264.852 269.048 264.203 269.389 263.748C269.394 263.748 269.394 263.744 269.394 263.744C273.249 258.682 277.618 254.349 282.207 250.65L281.898 253.044L281.89 253.092C282.05 253.127 282.211 253.161 282.373 253.196Z" fill="#385DB4"/>
<path d="M346.598 252.634C346.598 252.634 354.908 233.764 367.541 235.444L371.35 249.088C364.435 252.022 363.423 263.878 353.606 267.333L346.598 252.634Z" fill="#F6876F"/>
<path d="M297.155 249.165C297.155 249.165 291.908 236.851 278.097 233.278C264.288 229.702 255.489 236.21 254.561 238.664C253.635 241.12 259.77 238.773 259.77 238.773C259.77 238.773 255.774 239.904 253.481 243.658C251.189 247.412 259.061 243.362 259.061 243.362C259.061 243.362 253.417 245.834 252.699 248.127C251.981 250.421 259.426 246.546 260.826 246.621C260.826 246.621 254.177 249.263 254.223 251.629C254.267 253.994 261.86 250.137 267.528 250.44C273.198 250.747 281.89 253.094 281.89 253.094C286.529 253.977 290.963 254.629 294.974 254.815L297.155 249.165Z" fill="#F6876F"/>
<path d="M430.512 42.0817C427.004 42.0817 424.151 44.935 424.151 48.4427C424.151 51.9489 427.004 54.8023 430.512 54.8023C434.019 54.8023 436.875 51.9489 436.875 48.4427C436.875 44.935 434.019 42.0817 430.512 42.0817ZM430.512 57.7095C425.4 57.7095 421.241 53.5516 421.241 48.4427C421.241 43.3323 425.4 39.1745 430.512 39.1745C435.624 39.1745 439.783 43.3323 439.783 48.4427C439.783 53.5516 435.624 57.7095 430.512 57.7095Z" fill="#15ADAE"/>
<path d="M511.392 26.3365C507.884 26.3365 505.031 29.1885 505.031 32.6962C505.031 36.2025 507.884 39.0558 511.392 39.0558C514.9 39.0558 517.755 36.2025 517.755 32.6962C517.755 29.1885 514.9 26.3365 511.392 26.3365ZM511.392 41.9644C506.281 41.9644 502.122 37.8065 502.122 32.6962C502.122 27.5858 506.281 23.428 511.392 23.428C516.504 23.428 520.663 27.5858 520.663 32.6962C520.663 37.8065 516.504 41.9644 511.392 41.9644Z" fill="#29C1C2"/>
<path d="M522.846 72.0811C522.044 72.0811 521.394 71.4295 521.394 70.6261V64.2154C521.394 63.412 522.044 62.7618 522.846 62.7618C523.648 62.7618 524.3 63.412 524.3 64.2154V70.6261C524.3 71.4295 523.648 72.0811 522.846 72.0811Z" fill="#015656"/>
<path d="M522.846 83.2998C522.044 83.2998 521.394 82.6482 521.394 81.8462V75.4341C521.394 74.6321 522.044 73.9819 522.846 73.9819C523.648 73.9819 524.3 74.6321 524.3 75.4341V81.8462C524.3 82.6482 523.648 83.2998 522.846 83.2998Z" fill="#015656"/>
<path d="M531.847 74.4844H526.087C525.285 74.4844 524.633 73.8342 524.633 73.0308C524.633 72.2274 525.285 71.5772 526.087 71.5772H531.847C532.651 71.5772 533.303 72.2274 533.303 73.0308C533.303 73.8342 532.651 74.4844 531.847 74.4844Z" fill="#015656"/>
<path d="M519.607 74.4844H513.846C513.042 74.4844 512.391 73.8342 512.391 73.0308C512.391 72.2274 513.042 71.5772 513.846 71.5772H519.607C520.409 71.5772 521.059 72.2274 521.059 73.0308C521.059 73.8342 520.409 74.4844 519.607 74.4844Z" fill="#015656"/>
<path d="M473.88 33.2427C473.078 33.2427 472.428 32.5911 472.428 31.7891V25.377C472.428 24.575 473.078 23.9234 473.88 23.9234C474.684 23.9234 475.334 24.575 475.334 25.377V31.7891C475.334 32.5911 474.684 33.2427 473.88 33.2427Z" fill="#015556"/>
<path d="M473.88 44.4614C473.078 44.4614 472.428 43.8112 472.428 43.0078V36.5971C472.428 35.7937 473.078 35.1435 473.88 35.1435C474.684 35.1435 475.334 35.7937 475.334 36.5971V43.0078C475.334 43.8112 474.684 44.4614 473.88 44.4614Z" fill="#015556"/>
<path d="M482.882 35.6475H477.121C476.319 35.6475 475.667 34.9959 475.667 34.1925C475.667 33.3905 476.319 32.7389 477.121 32.7389H482.882C483.685 32.7389 484.337 33.3905 484.337 34.1925C484.337 34.9959 483.685 35.6475 482.882 35.6475Z" fill="#015556"/>
<path d="M470.641 35.6475H464.88C464.077 35.6475 463.425 34.9959 463.425 34.1925C463.425 33.3905 464.077 32.7389 464.88 32.7389H470.641C471.443 32.7389 472.093 33.3905 472.093 34.1925C472.093 34.9959 471.443 35.6475 470.641 35.6475Z" fill="#015556"/>
<path d="M102.075 24.9256C102.075 28.4319 104.929 31.2852 108.437 31.2852C111.945 31.2852 114.799 28.4319 114.799 24.9256C114.799 21.4179 111.945 18.5646 108.437 18.5646C104.929 18.5646 102.075 21.4179 102.075 24.9256ZM99.1667 24.9256C99.1667 19.8139 103.325 15.6574 108.437 15.6574C113.549 15.6574 117.708 19.8139 117.708 24.9256C117.708 30.0359 113.549 34.1924 108.437 34.1924C103.325 34.1924 99.1667 30.0359 99.1667 24.9256Z" fill="#15ADAE"/>
<path d="M64.8463 60.2508C64.8463 63.7571 67.7001 66.6105 71.2082 66.6105C74.7162 66.6105 77.5701 63.7571 77.5701 60.2508C77.5701 56.7432 74.7162 53.8898 71.2082 53.8898C67.7001 53.8898 64.8463 56.7432 64.8463 60.2508ZM61.9375 60.2508C61.9375 55.1405 66.0972 50.9827 71.2082 50.9827C76.3193 50.9827 80.479 55.1405 80.479 60.2508C80.479 65.3612 76.3193 69.519 71.2082 69.519C66.0972 69.519 61.9375 65.3612 61.9375 60.2508Z" fill="#29C1C2"/>
<path d="M42.6643 73.2559C43.4675 73.2559 44.1186 72.6057 44.1186 71.8023V65.3916C44.1186 64.5882 43.4675 63.938 42.6643 63.938C41.8613 63.938 41.2102 64.5882 41.2102 65.3916V71.8023C41.2102 72.6057 41.8613 73.2559 42.6643 73.2559Z" fill="#015656"/>
<path d="M42.6643 84.4758C43.4675 84.4758 44.1186 83.8256 44.1186 83.0209V76.6102C44.1186 75.8081 43.4675 75.1566 42.6643 75.1566C41.8613 75.1566 41.2102 75.8081 41.2102 76.6102V83.0209C41.2102 83.8256 41.8613 84.4758 42.6643 84.4758Z" fill="#015656"/>
<path d="M33.6629 75.6606H39.4234C40.2265 75.6606 40.8781 75.0091 40.8781 74.2071C40.8781 73.4036 40.2265 72.7535 39.4234 72.7535H33.6629C32.8602 72.7535 32.2087 73.4036 32.2087 74.2071C32.2087 75.0091 32.8602 75.6606 33.6629 75.6606Z" fill="#015656"/>
<path d="M45.9044 75.6606H51.6661C52.4686 75.6606 53.1197 75.0091 53.1197 74.2071C53.1197 73.4036 52.4686 72.7535 51.6661 72.7535H45.9044C45.1019 72.7535 44.4514 73.4036 44.4514 74.2071C44.4514 75.0091 45.1019 75.6606 45.9044 75.6606Z" fill="#015656"/>
<path d="M76.1714 23.9746C76.9741 23.9746 77.6257 23.323 77.6257 22.521V16.1103C77.6257 15.3069 76.9741 14.6567 76.1714 14.6567C75.3689 14.6567 74.7173 15.3069 74.7173 16.1103V22.521C74.7173 23.323 75.3689 23.9746 76.1714 23.9746Z" fill="#015656"/>
<path d="M76.1714 35.1948C76.9741 35.1948 77.6257 34.5433 77.6257 33.7398V27.3292C77.6257 26.5271 76.9741 25.8756 76.1714 25.8756C75.3689 25.8756 74.7173 26.5271 74.7173 27.3292V33.7398C74.7173 34.5433 75.3689 35.1948 76.1714 35.1948Z" fill="#015656"/>
<path d="M67.1704 26.3794H72.931C73.7335 26.3794 74.3851 25.7278 74.3851 24.9258C74.3851 24.1224 73.7335 23.4708 72.931 23.4708H67.1704C66.3674 23.4708 65.7163 24.1224 65.7163 24.9258C65.7163 25.7278 66.3674 26.3794 67.1704 26.3794Z" fill="#015656"/>
<path d="M79.4119 26.3794H85.1724C85.9755 26.3794 86.6266 25.7278 86.6266 24.9258C86.6266 24.1224 85.9755 23.4708 85.1724 23.4708H79.4119C78.6088 23.4708 77.9578 24.1224 77.9578 24.9258C77.9578 25.7278 78.6088 26.3794 79.4119 26.3794Z" fill="#015656"/>
<path d="M353.4 25.5909C353.233 25.6088 353.059 25.5854 352.892 25.515C351.127 24.771 350.093 24.4231 350.082 24.4203C349.542 24.2395 349.251 23.6555 349.429 23.1144C349.611 22.5733 350.195 22.282 350.736 22.4615C350.781 22.4767 351.847 22.8342 353.694 23.6128C354.22 23.835 354.467 24.4397 354.245 24.9656C354.093 25.3245 353.763 25.5536 353.4 25.5909Z" fill="#ABDDE7"/>
<path d="M406.022 80.9572C406.725 82.8304 407.382 84.7617 407.978 86.6984C408.125 87.1788 408.591 87.4728 409.073 87.4218C409.137 87.4162 409.204 87.4024 409.267 87.3817C409.813 87.2147 410.121 86.6377 409.952 86.0924C409.345 84.1156 408.674 82.1444 407.957 80.2325C407.757 79.6996 407.164 79.4291 406.627 79.6293C406.094 79.8294 405.822 80.4244 406.022 80.9572Z" fill="#ABDDE7"/>
<path d="M409.586 92.5473C410.06 94.4868 410.488 96.4829 410.858 98.4818C410.956 99.0146 411.449 99.3763 411.98 99.3211C412.007 99.317 412.033 99.3142 412.062 99.3087C412.621 99.2051 412.993 98.6654 412.888 98.1063C412.511 96.0702 412.076 94.0354 411.592 92.0587C411.457 91.5051 410.898 91.1655 410.346 91.3008C409.79 91.4347 409.451 91.9938 409.586 92.5473Z" fill="#ABDDE7"/>
<path d="M413.941 123.72C414.453 123.666 414.855 123.237 414.863 122.71C414.897 120.638 414.881 118.56 414.819 116.532C414.803 115.962 414.325 115.515 413.756 115.531C413.178 115.552 412.738 116.026 412.756 116.594C412.816 118.592 412.83 120.638 412.799 122.678C412.791 123.248 413.245 123.716 413.815 123.726C413.858 123.727 413.9 123.724 413.941 123.72Z" fill="#ABDDE7"/>
<path d="M412.692 103.321C412.126 103.395 411.726 103.914 411.8 104.478C411.921 105.411 412.032 106.354 412.13 107.28C412.243 108.35 412.344 109.441 412.428 110.523C412.472 111.09 412.969 111.516 413.538 111.471C413.548 111.47 413.557 111.469 413.567 111.469C414.121 111.409 414.531 110.919 414.487 110.362C414.4 109.26 414.299 108.152 414.183 107.064C414.085 106.121 413.972 105.163 413.847 104.212C413.776 103.655 413.272 103.261 412.715 103.319C412.708 103.32 412.699 103.32 412.692 103.321Z" fill="#ABDDE7"/>
<path d="M403.719 75.3486C403.907 75.7682 404.338 76.0001 404.77 75.9545C404.876 75.9435 404.981 75.9159 405.083 75.8704C405.604 75.6371 405.837 75.0269 405.604 74.5065C404.763 72.6263 403.853 70.7517 402.896 68.9364C402.631 68.4312 402.008 68.238 401.501 68.503C400.997 68.768 400.804 69.392 401.069 69.8972C402.004 71.6752 402.895 73.5084 403.719 75.3486Z" fill="#ABDDE7"/>
<path d="M358.377 28.0812C360.149 28.9854 361.939 29.9724 363.695 31.0119C363.894 31.1292 364.115 31.172 364.328 31.1499C364.643 31.1168 364.937 30.9415 365.111 30.6502C365.401 30.1588 365.239 29.5266 364.748 29.2353C362.954 28.1751 361.127 27.1674 359.317 26.2425C358.809 25.983 358.186 26.1846 357.928 26.6912C357.668 27.1992 357.87 27.8203 358.377 28.0812Z" fill="#ABDDE7"/>
<path d="M373.763 37.801C373.982 37.9666 374.246 38.0329 374.5 38.0066C374.772 37.9777 375.032 37.841 375.211 37.6063C375.556 37.1535 375.471 36.5061 375.018 36.1596C373.382 34.9117 371.69 33.6969 369.985 32.5471C369.511 32.2296 368.872 32.3524 368.552 32.8259C368.233 33.298 368.357 33.9399 368.83 34.2588C370.501 35.3852 372.161 36.5765 373.763 37.801Z" fill="#ABDDE7"/>
<path d="M391.114 54.7016C391.342 54.986 391.691 55.1185 392.029 55.0826C392.218 55.0633 392.405 54.9901 392.565 54.8617C393.01 54.5056 393.083 53.8568 392.725 53.4109C391.442 51.8096 390.089 50.2235 388.704 48.6995C388.319 48.2771 387.667 48.2454 387.245 48.6291C386.824 49.0129 386.792 49.6658 387.174 50.0882C388.533 51.5805 389.857 53.1335 391.114 54.7016Z" fill="#ABDDE7"/>
<path d="M382.957 45.7259C383.185 45.9481 383.492 46.0434 383.786 46.0116C384.018 45.9882 384.242 45.886 384.417 45.7052C384.815 45.2966 384.806 44.6436 384.398 44.2461C382.928 42.8173 381.392 41.4093 379.827 40.062C379.396 39.6893 378.743 39.739 378.372 40.171C377.999 40.6017 378.047 41.2547 378.481 41.626C380.012 42.9471 381.519 44.3261 382.957 45.7259Z" fill="#ABDDE7"/>
<path d="M398.077 64.6241C398.291 64.9761 398.683 65.1542 399.067 65.1128C399.215 65.0976 399.361 65.0492 399.497 64.9678C399.984 64.671 400.136 64.0347 399.839 63.5488C398.768 61.7942 397.626 60.0494 396.444 58.3666C396.118 57.9 395.474 57.7868 395.006 58.114C394.538 58.4425 394.426 59.0858 394.755 59.5524C395.911 61.1992 397.028 62.9068 398.077 64.6241Z" fill="#ABDDE7"/>
<path d="M353.381 18.5288L357.899 1.79801L302.533 2.27293L353.381 18.5288Z" fill="#15ADAE"/>
<path d="M302.533 2.27147L350.694 22.5679L350.821 22.6231L352.892 26.0535L353.381 18.5288L302.533 2.27147Z" fill="#069899"/>
<path d="M352.892 26.0535L348.403 25.3467L350.821 22.6231L352.892 26.0535Z" fill="#008E8F"/>
<path d="M344.762 20.0693L350.822 22.6231L338.34 36.6814L302.533 2.27291L344.762 20.0693Z" fill="#15ADAE"/>
<path d="M607.974 458.698V459.706C607.974 465.525 603.254 470.242 597.431 470.242H50.7069C44.8849 470.242 40.1692 465.525 40.1692 459.706V458.698C40.1692 452.881 44.8849 448.163 50.7069 448.163H597.431C603.254 448.163 607.974 452.881 607.974 458.698Z" fill="#003132"/>
<path d="M607.974 458.699V459.203H40.1692V458.699C40.1692 452.881 44.8849 448.163 50.7069 448.163H597.431C603.254 448.163 607.974 452.881 607.974 458.699Z" fill="#034F50"/>
<path d="M407.741 415.019H235.991C231.887 415.019 228.559 411.694 228.559 407.591V317.757C228.559 313.654 231.887 310.329 235.991 310.329H407.741C411.845 310.329 415.171 313.654 415.171 317.757V407.591C415.171 411.694 411.845 415.019 407.741 415.019Z" fill="#2F335D"/>
<path d="M336.315 447.837H307.415V414.9H336.315V447.837Z" fill="#1C1A2C"/>
<path d="M335.887 363.957C335.887 371.877 329.464 378.297 321.544 378.297C313.621 378.297 307.198 371.877 307.198 363.957C307.198 356.038 313.621 349.617 321.544 349.617C329.464 349.617 335.887 356.038 335.887 363.957Z" fill="#35527F"/>
<path d="M358.677 447.837H284.131V445.327C284.131 440.26 288.239 436.152 293.306 436.152H349.501C354.568 436.152 358.677 440.26 358.677 445.327V447.837Z" fill="#2F335D"/>
</g>
<defs>
<clipPath id="clip0_26_1016">
<rect width="640" height="470" fill="white"/>
</clipPath>
</defs>
</svg>
