<svg width="18" height="19" viewBox="0 0 18 19" fill="none" xmlns="http://www.w3.org/2000/svg">
<path d="M14.1333 18.6667V18.5334H14V18.4H13.8667V18.2667H13.6V18.1334H13.4667V18H13.3333V17.8667H13.2V17.7334H13.0667V17.6H12.9333V17.4667H12.6667V17.3334H12.5333V17.2H12.4V17.0667H12.2667V16.9334H12.1333V16.8H12V16.6667H11.7333V16.5334H11.6V16.4H11.4667V16.2667H11.3333V16.1334H11.2V16H11.0667V15.8667H10.9333V15.7334H10.6667V15.6H10.5333V15.4667H10.4V15.3334H10.2667V15.2H10.1333V15.0667H10V14.9334H9.73333V14.8H9.6V14.6667H9.46667V14.5334H9.33333V14.4H9.2V14.2667H9.06667V14.1334H8.93333V14H8.66667V13.8667H8.53333V13.7334H8.4V13.6H8.26667V13.4667H8.13333V13.3334H8V13.2H7.73333V13.0667H7.6V12.9334H7.46667V12.8H7.33333V12.6667H7.2V12.5334H7.06667V12.4H6.8V12.2667H6.66667V12.1334H6.53333V12H6.4V11.8667H6.26667V11.7334H6.13333V11.6H6V11.4667H5.73333V11.3334H5.6V11.2H5.46667V11.0667H5.33333V10.9334H5.2V10.8H5.06667V10.6667H4.8V10.5334H4.66667V10.4H4.53333V10.2667H4.4V10.1334H4.26667V10H4.13333V9.86669H3.86667V9.73335H3.73333V9.60002H3.6V9.46669H3.46667V9.33335H3.33333V9.20002H3.2V9.06669H3.06667V8.93335H2.8V8.80002H2.66667V8.66669H2.53333V8.53335H2.4V8.40002H2.26667V8.26669H2.13333V8.13335H1.86667V8.00002H1.73333V7.86669H1.6V7.73335H1.46667V7.60002H1.33333V7.46669H1.2V7.33335H0.933333V7.20002H0.8V7.06669H0.666667V6.93335H0.533333V6.80002H0.4V6.66669H0.266667V6.53335H0.133333V6.40002H0V6.26669H0.133333V6.13335H0.533333V6.00002H0.933333V5.86669H1.33333V5.73335H1.73333V5.60002H2.13333V5.46669H2.4V5.33335H2.8V5.20002H3.2V5.06669H3.6V4.93335H4V4.80002H4.4V4.66669H4.8V4.53335H5.2V4.40002H5.46667V4.26669H5.86667V4.13335H6.26667V4.00002H6.66667V3.86669H7.06667V3.73335H7.46667V3.60002H7.86667V3.46669H8.26667V3.33335H8.53333V3.20002H8.93333V3.06669H9.33333V2.93335H9.73333V2.80002H10.1333V2.66669H10.5333V2.53335H10.9333V2.40002H11.3333V2.26669H11.6V2.13335H12V2.00002H12.4V1.86669H12.8V1.73335H13.2V1.60002H13.6V1.46669H14V1.33335H14.4V1.20002H14.6667V1.06669H15.0667V0.933355H15.4667V0.800022H15.8667V0.666689H16.2667V0.533356H16.6667V0.400021H17.0667V0.266687H17.4667V0.133354H17.7333V2.09808e-05H18V0.266687H17.8667V0.933355H17.7333V1.60002H17.6V2.26669H17.4667V3.06669H17.3333V3.73335H17.2V4.40002H17.0667V5.06669H16.9333V5.86669H16.8V6.53335H16.6667V7.20002H16.5333V7.86669H16.4V8.53335H16.2667V9.33335H16.1333V10H16V10.6667H15.8667V11.3334H15.7333V12.1334H15.6V12.8H15.4667V13.4667H15.3333V14.1334H15.2V14.9334H15.0667V15.6H14.9333V16.2667H14.8V16.9334H14.6667V17.6H14.5333V18.4H14.4V18.6667" fill="url(#paint0_linear_26_1407)"/>
<defs>
<linearGradient id="paint0_linear_26_1407" x1="14.3061" y1="10.0469" x2="3.6565" y2="9.49028" gradientUnits="userSpaceOnUse">
<stop stop-color="#E13311"/>
<stop offset="1" stop-color="#FF512F"/>
</linearGradient>
</defs>
</svg>
