<svg width="12" height="12" viewBox="0 0 12 12" fill="none" xmlns="http://www.w3.org/2000/svg">
<path d="M11.5387 5.99866H11.0787C11.0787 7.40266 10.5107 8.66934 9.59067 9.58934C8.67067 10.5093 7.40266 11.0773 5.99866 11.0773C4.59467 11.0773 3.32801 10.5093 2.40801 9.58934C1.48801 8.66934 0.920003 7.40266 0.920003 5.99866C0.920003 4.59467 1.48801 3.32801 2.40801 2.40801C3.32801 1.48801 4.59467 0.920003 5.99866 0.920003C7.40266 0.920003 8.67067 1.48801 9.59067 2.40801C10.5107 3.32801 11.0787 4.59467 11.0787 5.99866H11.5387H11.9987C11.9987 2.68533 9.31333 0 5.99866 0C2.68533 0 0 2.68533 0 5.99866C0 9.312 2.68533 11.9973 5.99866 11.9973C9.31333 11.9973 11.9987 9.312 11.9987 5.99866H11.5387Z" fill="#29C1C2"/>
</svg>
