<svg width="340" height="290" viewBox="0 0 340 290" fill="none" xmlns="http://www.w3.org/2000/svg">
<g filter="url(#filter0_dd_205_22)">
<path fill-rule="evenodd" clip-rule="evenodd" d="M170 65C197.614 65 220 42.6142 220 15H261C283.402 15 294.603 15 303.16 19.3597C310.686 23.1947 316.805 29.3139 320.64 36.8404C325 45.3968 325 56.5979 325 79V211C325 233.402 325 244.603 320.64 253.16C316.805 260.686 310.686 266.805 303.16 270.64C294.603 275 283.402 275 261 275H79C56.5979 275 45.3968 275 36.8404 270.64C29.3139 266.805 23.1947 260.686 19.3597 253.16C15 244.603 15 233.402 15 211V79C15 56.5979 15 45.3968 19.3597 36.8404C23.1947 29.3139 29.3139 23.1947 36.8404 19.3597C45.3968 15 56.5979 15 79 15H120C120 42.6142 142.386 65 170 65Z" fill="white"/>
</g>
<defs>
<filter id="filter0_dd_205_22" x="0" y="0" width="340" height="290" filterUnits="userSpaceOnUse" color-interpolation-filters="sRGB">
<feFlood flood-opacity="0" result="BackgroundImageFix"/>
<feColorMatrix in="SourceAlpha" type="matrix" values="0 0 0 0 0 0 0 0 0 0 0 0 0 0 0 0 0 0 127 0" result="hardAlpha"/>
<feOffset dx="5" dy="5"/>
<feGaussianBlur stdDeviation="5"/>
<feColorMatrix type="matrix" values="0 0 0 0 0.6512 0 0 0 0 0.66896 0 0 0 0 0.74 0 0 0 0.5 0"/>
<feBlend mode="normal" in2="BackgroundImageFix" result="effect1_dropShadow_205_22"/>
<feColorMatrix in="SourceAlpha" type="matrix" values="0 0 0 0 0 0 0 0 0 0 0 0 0 0 0 0 0 0 127 0" result="hardAlpha"/>
<feOffset dx="-5" dy="-5"/>
<feGaussianBlur stdDeviation="5"/>
<feColorMatrix type="matrix" values="0 0 0 0 0.979167 0 0 0 0 0.983333 0 0 0 0 1 0 0 0 1 0"/>
<feBlend mode="normal" in2="effect1_dropShadow_205_22" result="effect2_dropShadow_205_22"/>
<feBlend mode="normal" in="SourceGraphic" in2="effect2_dropShadow_205_22" result="shape"/>
</filter>
</defs>
</svg>
